<svg width="90" height="91" viewBox="0 0 90 91" fill="none" xmlns="http://www.w3.org/2000/svg">
<path d="M73.5 26.0635C67.4509 26.0613 62.3459 30.562 61.5901 36.5635L69 35.0635L69.9001 35.3638L73.5 36.5635L78 35.0635L78.5698 35.1836L85.4099 36.5488C84.6431 30.5547 79.5425 26.0642 73.5 26.0635Z" fill="#04A0FE"/>
<path d="M64.5 50.0635V86.0635C64.5051 87.718 65.8455 89.0583 67.5 89.0635H70.5C72.1545 89.0583 73.4949 87.718 73.5 86.0635C73.5051 87.718 74.8455 89.0583 76.5 89.0635H79.5C81.1545 89.0583 82.4949 87.718 82.5 86.0635V50.0635H64.5Z" fill="#04A0FE"/>
<path d="M60 24.5635C59.9993 18.0779 55.8318 12.3277 49.6685 10.3091C43.5051 8.29131 36.7427 10.4622 32.9062 15.691C29.0698 20.9197 29.0281 28.0213 32.8022 33.2947C36.5771 38.5689 43.3132 40.8189 49.5 38.8736C55.749 36.9085 60.0007 31.1143 60 24.5635Z" fill="#04A0FE"/>
<path d="M40.5 53.0635C40.5051 54.718 41.8455 56.0583 43.5 56.0635H46.5C48.1545 56.0583 49.4949 54.718 49.5 53.0635V45.5635H40.5V53.0635Z" fill="#04A0FE"/>
<path d="M7.5 50.0635V86.0635C7.50513 87.718 8.84546 89.0583 10.5 89.0635H13.5C15.1545 89.0583 16.4949 87.718 16.5 86.0635C16.5051 87.718 17.8455 89.0583 19.5 89.0635H22.5C24.1545 89.0583 25.4949 87.718 25.5 86.0635V50.0635H7.5Z" fill="#04A0FE"/>
<path d="M16.5 26.0635C11.1958 26.0686 6.52148 29.5483 4.99512 34.6284C6.32007 35.1887 7.7417 35.4839 9.18018 35.4985C10.1367 35.5015 11.0881 35.355 12 35.0635C13.7483 34.498 15.3062 33.4602 16.5 32.0635C17.6938 33.4602 19.2517 34.498 21 35.0635C21.2358 35.1426 21.4761 35.2078 21.72 35.2583C23.8293 35.7102 26.0273 35.4897 28.0049 34.6284C26.4785 29.5483 21.8042 26.0686 16.5 26.0635Z" fill="#04A0FE"/>
<path d="M54 24.5635H57C56.9956 20.6348 55.0701 16.9558 51.8445 14.7131L50.1313 17.1733C52.5513 18.8564 53.9956 21.6162 54 24.5635Z" fill="#5344DB"/>
<path d="M48.4065 13.0571C47.3005 12.729 46.1536 12.5627 45 12.5635V15.5635C45.8635 15.5635 46.7219 15.688 47.5503 15.9326L48.4065 13.0571Z" fill="#5344DB"/>
<path d="M43.5 0.563477H46.5V6.56348H43.5V0.563477Z" fill="#5344DB"/>
<path d="M21.4358 19.8035L22.2129 16.9053L28.0107 18.4595L27.2336 21.3577L21.4358 19.8035Z" fill="#5344DB"/>
<path d="M62.0068 18.4419L67.804 16.887L68.5811 19.7852L62.7839 21.3394L62.0068 18.4419Z" fill="#5344DB"/>
<path d="M26.9692 8.65381L29.0911 6.53198L33.3333 10.7749L31.2122 12.896L26.9692 8.65381Z" fill="#5344DB"/>
<path d="M56.6682 10.7749L60.9104 6.53198L63.0322 8.65381L58.7893 12.896L56.6682 10.7749Z" fill="#5344DB"/>
<path d="M85.5 48.5635H81.9661C86.4258 44.9731 88.136 38.9592 86.2317 33.5598C84.3281 28.1597 79.2253 24.5481 73.5 24.5481C67.7747 24.5481 62.6719 28.1597 60.7683 33.5598C58.864 38.9592 60.5742 44.9731 65.0339 48.5635H61.5C59.0149 48.5635 57 50.5784 57 53.0635V65.0635C57 67.5486 59.0149 69.5635 61.5 69.5635H63V86.0635C63 88.5486 65.0149 90.5635 67.5 90.5635H70.5C71.6104 90.5598 72.6797 90.1423 73.5 89.3938C74.3203 90.1423 75.3896 90.5598 76.5 90.5635H79.5C81.9851 90.5635 84 88.5486 84 86.0635V69.5635H85.5C87.9851 69.5635 90 67.5486 90 65.0635V53.0635C90 50.5784 87.9851 48.5635 85.5 48.5635ZM66 69.5635V51.5635H72V62.0635H75V51.5635H81V69.5635H66ZM73.5 27.5635C77.9619 27.5737 81.9309 30.4001 83.4001 34.6138L78.3003 33.5935C78.0447 33.5408 77.7795 33.5569 77.532 33.6396L73.5059 34.9902L69.4797 33.6396C69.2314 33.5591 68.9656 33.543 68.7092 33.5935L63.594 34.6299C65.0581 30.4082 69.0315 27.5737 73.5 27.5635ZM63 38.0635C63 37.9763 63.0103 37.8928 63.0132 37.8071L68.9055 36.6067L73.0261 37.9807C73.3337 38.0833 73.6663 38.0833 73.9739 37.9807L78.0959 36.6067L83.9868 37.7844C83.9868 37.876 84 37.9661 84 38.0576C84 43.8562 79.2993 48.5576 73.5 48.5576C67.7007 48.5576 63 43.8562 63 38.0576V38.0635ZM61.5 66.5635C60.6716 66.5635 60 65.8918 60 65.0635V53.0635C60 52.2351 60.6716 51.5635 61.5 51.5635H63V66.5635H61.5ZM70.5 87.5635H67.5C66.6716 87.5635 66 86.8918 66 86.0635V72.5635H72V86.0635C72 86.8918 71.3284 87.5635 70.5 87.5635ZM79.5 87.5635H76.5C75.6716 87.5635 75 86.8918 75 86.0635V72.5635H81V86.0635C81 86.8918 80.3284 87.5635 79.5 87.5635ZM87 65.0635C87 65.8918 86.3284 66.5635 85.5 66.5635H84V51.5635H85.5C86.3284 51.5635 87 52.2351 87 53.0635V65.0635Z" fill="#5344DB"/>
<path d="M67.5 38.0635H70.5V41.0635H67.5V38.0635Z" fill="#5344DB"/>
<path d="M76.5 38.0635H79.5V41.0635H76.5V38.0635Z" fill="#5344DB"/>
<path d="M73.5 44.0635C72.7976 44.0393 72.1406 43.7112 71.6997 43.1633L69.3003 44.9636C70.2913 46.2856 71.8477 47.0635 73.5 47.0635C75.1523 47.0635 76.7087 46.2856 77.6997 44.9636L75.3003 43.1633C74.8608 43.7126 74.2031 44.0415 73.5 44.0635Z" fill="#5344DB"/>
<path d="M28.5 48.5635H24.9661C29.4258 44.9731 31.136 38.9592 29.2317 33.5598C27.3281 28.1597 22.2253 24.5481 16.5 24.5481C10.7747 24.5481 5.67188 28.1597 3.76831 33.5598C1.86401 38.9592 3.57422 44.9731 8.03394 48.5635H4.5C2.01489 48.5635 0 50.5784 0 53.0635V65.0635C0 67.5486 2.01489 69.5635 4.5 69.5635H6V86.0635C6 88.5486 8.01489 90.5635 10.5 90.5635H13.5C14.6104 90.5598 15.6797 90.1423 16.5 89.3938C17.3203 90.1423 18.3896 90.5598 19.5 90.5635H22.5C24.9851 90.5635 27 88.5486 27 86.0635V69.5635H28.5C30.9851 69.5635 33 67.5486 33 65.0635V53.0635C33 50.5784 30.9851 48.5635 28.5 48.5635ZM9 69.5635V51.5635H15V62.0635H18V51.5635H24V69.5635H9ZM16.5 27.5635C20.6052 27.5686 24.3303 29.9651 26.0369 33.6982C24.5332 34.115 22.9417 34.0923 21.4497 33.6323C19.9666 33.1511 18.6453 32.2686 17.6323 31.0828C17.3394 30.7686 16.9292 30.5906 16.5 30.5906C16.0708 30.5906 15.6606 30.7686 15.3677 31.0828C14.354 32.2693 13.0312 33.1519 11.5474 33.6323C10.0569 34.0916 8.46606 34.1143 6.96313 33.6968C8.66968 29.9644 12.3955 27.5679 16.5 27.5635ZM6 38.0635C6.00366 37.564 6.04321 37.0659 6.11865 36.5723C7.11768 36.8447 8.14819 36.9868 9.18457 36.9956C10.292 36.9978 11.3936 36.8286 12.4497 36.4946C13.9468 36.0186 15.3267 35.2327 16.5 34.189C19.3206 36.7151 23.2405 37.6167 26.8813 36.5752C26.9568 37.0681 26.9963 37.5654 27 38.0635C27 43.8628 22.2993 48.5635 16.5 48.5635C10.7007 48.5635 6 43.8628 6 38.0635ZM4.5 66.5635C3.67163 66.5635 3 65.8918 3 65.0635V53.0635C3 52.2351 3.67163 51.5635 4.5 51.5635H6V66.5635H4.5ZM13.5 87.5635H10.5C9.67163 87.5635 9 86.8918 9 86.0635V72.5635H15V86.0635C15 86.8918 14.3284 87.5635 13.5 87.5635ZM22.5 87.5635H19.5C18.6716 87.5635 18 86.8918 18 86.0635V72.5635H24V86.0635C24 86.8918 23.3284 87.5635 22.5 87.5635ZM30 65.0635C30 65.8918 29.3284 66.5635 28.5 66.5635H27V51.5635H28.5C29.3284 51.5635 30 52.2351 30 53.0635V65.0635Z" fill="#5344DB"/>
<path d="M19.5 38.0635H22.5V41.0635H19.5V38.0635Z" fill="#5344DB"/>
<path d="M10.5 38.0635H13.5V41.0635H10.5V38.0635Z" fill="#5344DB"/>
<path d="M16.5 44.0635C15.7969 44.0415 15.1392 43.7126 14.6997 43.1633L12.3003 44.9636C13.2913 46.2856 14.8477 47.0635 16.5 47.0635C18.1523 47.0635 19.7087 46.2856 20.6997 44.9636L18.3003 43.1633C17.8594 43.7112 17.2024 44.0393 16.5 44.0635Z" fill="#5344DB"/>
<path d="M61.4999 24.5635C61.508 16.238 55.3132 9.21117 47.0522 8.17552C38.7919 7.13988 31.0539 12.4199 29.0067 20.4897C26.9596 28.5596 31.2443 36.8901 38.9999 39.9172V44.0635H37.4999V47.0635H38.9999V53.0635C38.9999 55.5486 41.0148 57.5635 43.4999 57.5635H46.4999C48.985 57.5635 50.9999 55.5486 50.9999 53.0635V47.0635H52.4999V44.0635H50.9999V39.9172C57.3237 37.4446 61.4889 31.353 61.4999 24.5635ZM31.4999 24.5635C31.4999 17.1074 37.5439 11.0635 44.9999 11.0635C52.456 11.0635 58.4999 17.1074 58.4999 24.5635C58.4999 32.0195 52.456 38.0635 44.9999 38.0635C37.5475 38.0554 31.508 32.0159 31.4999 24.5635ZM47.9999 53.0635C47.9999 53.8918 47.3283 54.5635 46.4999 54.5635H43.4999C42.6715 54.5635 41.9999 53.8918 41.9999 53.0635V47.0635H47.9999V53.0635ZM47.9999 44.0635H41.9999V40.7771C43.9818 41.1587 46.018 41.1587 47.9999 40.7771V44.0635Z" fill="#5344DB"/>
</svg>
