<svg width="86" height="85" viewBox="0 0 86 85" fill="none" xmlns="http://www.w3.org/2000/svg">
<path d="M83.7812 1.91309H2.21875V58.1631H46.2062L45.1516 60.1318L50.0312 62.4943L50.65 67.0084H50.6078L40.1875 77.5553L45.0672 78.5256L46.0516 83.4756L59.0594 70.3271L59.2422 70.1584L59.875 70.8193L60.5078 70.1584L60.6906 70.3271L73.6984 83.4756L74.6828 78.5256L79.5625 77.5553L69.1422 67.0084H69.1L69.7188 62.4943L74.5984 60.1318L73.5438 58.1631H83.7812V1.91309ZM59.875 60.9756C58.7625 60.9756 57.6749 60.6457 56.7499 60.0276C55.8249 59.4095 55.1039 58.531 54.6782 57.5032C54.2524 56.4753 54.141 55.3443 54.3581 54.2532C54.5751 53.1621 55.1109 52.1598 55.8975 51.3731C56.6842 50.5864 57.6865 50.0507 58.7776 49.8337C59.8688 49.6166 60.9998 49.728 62.0276 50.1538C63.0554 50.5795 63.9339 51.3005 64.552 52.2255C65.1701 53.1505 65.5 54.2381 65.5 55.3506C65.5 56.8424 64.9074 58.2732 63.8525 59.3281C62.7976 60.383 61.3668 60.9756 59.875 60.9756ZM78.1562 52.5381H73.5438L74.5984 50.5693L69.7188 48.2068L68.9734 42.835L63.6297 43.7912L59.875 39.8818L56.1203 43.7912L50.7766 42.835L50.0312 48.2068L45.1516 50.5693L46.2062 52.5381H7.84375V7.53809H78.1562V52.5381Z" fill="#04A0FE"/>
<path d="M83.7812 0.506836H2.21875C1.84579 0.506836 1.4881 0.654994 1.22438 0.918717C0.960658 1.18244 0.8125 1.54013 0.8125 1.91309V58.1631C0.8125 58.536 0.960658 58.8937 1.22438 59.1575C1.4881 59.4212 1.84579 59.5693 2.21875 59.5693H43.8775C43.7224 59.899 43.7045 60.2769 43.8279 60.6197C43.9514 60.9625 44.2059 61.2423 44.5356 61.3975L48.7445 63.4281L49.1664 66.467L39.1905 76.5625C39.0119 76.743 38.8855 76.9685 38.8247 77.215C38.7639 77.4616 38.771 77.72 38.8453 77.9628C38.9196 78.2057 39.0582 78.4239 39.2465 78.5942C39.4348 78.7646 39.6657 78.8809 39.9147 78.9306L43.8747 79.7237L44.672 83.7484C44.7215 83.9991 44.8384 84.2316 45.0101 84.4209C45.1818 84.6102 45.4018 84.7492 45.6466 84.8228C45.778 84.8617 45.9144 84.8816 46.0516 84.8818C46.2379 84.8812 46.4222 84.8437 46.5938 84.7712C46.7655 84.6988 46.921 84.593 47.0514 84.46L59.2956 72.085C59.4771 72.1728 59.6762 72.2185 59.8778 72.2185C60.0795 72.2185 60.2785 72.1728 60.46 72.085L72.7042 84.46C72.8346 84.593 72.9902 84.6988 73.1618 84.7712C73.3335 84.8437 73.5178 84.8812 73.7041 84.8818C73.8412 84.8816 73.9776 84.8617 74.1091 84.8228C74.3535 84.7489 74.5733 84.6099 74.7447 84.4206C74.9162 84.2314 75.0328 83.999 75.0822 83.7484L75.8809 79.7237L79.8409 78.9306C80.09 78.8809 80.3209 78.7646 80.5091 78.5942C80.6974 78.4239 80.8361 78.2057 80.9103 77.9628C80.9846 77.72 80.9917 77.4616 80.9309 77.215C80.8702 76.9685 80.7438 76.743 80.5652 76.5625L70.5892 66.467L71.0111 63.4281L75.213 61.3975C75.3763 61.3208 75.523 61.2126 75.6446 61.0792C75.7661 60.9458 75.8602 60.7898 75.9215 60.62C75.9827 60.4503 76.0099 60.2701 76.0015 60.0898C75.9931 59.9095 75.9493 59.7327 75.8725 59.5693H83.7812C84.1542 59.5693 84.5119 59.4212 84.7756 59.1575C85.0393 58.8937 85.1875 58.536 85.1875 58.1631V1.91309C85.1875 1.54013 85.0393 1.18244 84.7756 0.918717C84.5119 0.654994 84.1542 0.506836 83.7812 0.506836ZM75.94 50.1348C75.8813 49.9545 75.7868 49.7879 75.6621 49.6451C75.5374 49.5023 75.3851 49.3862 75.2144 49.3037L71.0055 47.2731L70.3684 42.6493C70.3425 42.4623 70.2793 42.2825 70.1824 42.1205C70.0855 41.9585 69.9569 41.8176 69.8045 41.7063C69.652 41.595 69.4786 41.5156 69.2948 41.4727C69.1109 41.4299 68.9204 41.4245 68.7344 41.4568L64.1317 42.2739L60.8973 38.9073C60.6268 38.6416 60.2627 38.4927 59.8834 38.4927C59.5042 38.4927 59.1401 38.6416 58.8695 38.9073L55.6352 42.2739L51.0156 41.4568C50.8292 41.4236 50.6381 41.4284 50.4536 41.4709C50.2691 41.5134 50.095 41.5927 49.9419 41.704C49.7888 41.8154 49.6597 41.9565 49.5625 42.1189C49.4652 42.2814 49.4018 42.4618 49.3759 42.6493L48.7389 47.2731L44.537 49.3037C44.3737 49.3804 44.227 49.4885 44.1054 49.6219C43.9839 49.7553 43.8898 49.9114 43.8285 50.0811C43.7673 50.2509 43.7401 50.4311 43.7485 50.6114C43.7569 50.7916 43.8007 50.9685 43.8775 51.1318H9.25V8.94434H76.75V51.1318H75.8725C76.0172 50.8192 76.0413 50.4641 75.94 50.1348ZM46.9136 80.6026L46.4481 78.2556C46.394 77.9828 46.2603 77.7323 46.0638 77.5355C45.8673 77.3388 45.6169 77.2047 45.3442 77.1503L43.0211 76.6848L50.4081 69.2092C50.6071 69.2679 50.8169 69.2799 51.0212 69.2443L55.6239 68.4273L57.2692 70.1387L46.9136 80.6026ZM74.4058 77.1475C74.1331 77.2019 73.8827 77.336 73.6862 77.5327C73.4897 77.7295 73.356 77.98 73.3019 78.2528L72.8364 80.5998L62.4808 70.1359L64.1261 68.4245L68.7288 69.2415C68.9331 69.2765 69.1428 69.2645 69.3419 69.2064L76.7289 76.682L74.4058 77.1475ZM70.803 56.0115L72.6719 59.5032L69.1056 61.2231C68.897 61.3237 68.7165 61.4743 68.5801 61.6615C68.4437 61.8487 68.3556 62.0667 68.3237 62.2961L67.7838 66.2195L63.8814 65.5262C63.6531 65.4847 63.418 65.5003 63.1972 65.5717C62.9763 65.6431 62.7766 65.7681 62.6158 65.9354L59.875 68.7915L57.13 65.9354C56.9987 65.7992 56.8411 65.6908 56.6669 65.6169C56.4927 65.5429 56.3054 65.5049 56.1161 65.5051C56.0336 65.5052 55.9513 65.5122 55.87 65.5262L51.9677 66.2195L51.4277 62.2961C51.3958 62.0667 51.3077 61.8487 51.1713 61.6615C51.0349 61.4743 50.8544 61.3237 50.6458 61.2231L47.0781 59.5018L48.9456 56.0157C49.0552 55.8114 49.1125 55.5831 49.1125 55.3513C49.1125 55.1194 49.0552 54.8912 48.9456 54.6868L47.0781 51.1979L50.6444 49.4781C50.853 49.3775 51.0335 49.2269 51.1699 49.0397C51.3063 48.8525 51.3944 48.6345 51.4263 48.4051L51.9662 44.4817L55.8686 45.175C56.0969 45.2165 56.332 45.2009 56.5528 45.1294C56.7737 45.058 56.9734 44.9331 57.1342 44.7657L59.875 41.9096L62.62 44.7657C62.7808 44.9331 62.9805 45.058 63.2014 45.1294C63.4222 45.2009 63.6573 45.2165 63.8856 45.175L67.788 44.4817L68.328 48.4051C68.3599 48.6345 68.4479 48.8525 68.5843 49.0397C68.7207 49.2269 68.9012 49.3775 69.1098 49.4781L72.6719 51.1993L70.8044 54.6854C70.6946 54.8897 70.637 55.1179 70.6368 55.3497C70.6366 55.5816 70.6936 55.8099 70.803 56.0143V56.0115ZM82.375 56.7568H74.3903L73.6366 55.3506L74.3903 53.9443H78.1562C78.5292 53.9443 78.8869 53.7962 79.1506 53.5325C79.4143 53.2687 79.5625 52.911 79.5625 52.5381V7.53809C79.5625 7.16513 79.4143 6.80744 79.1506 6.54372C78.8869 6.27999 78.5292 6.13184 78.1562 6.13184H7.84375C7.47079 6.13184 7.1131 6.27999 6.84938 6.54372C6.58566 6.80744 6.4375 7.16513 6.4375 7.53809V52.5381C6.4375 52.911 6.58566 53.2687 6.84938 53.5325C7.1131 53.7962 7.47079 53.9443 7.84375 53.9443H45.3597L46.1134 55.3506L45.3597 56.7568H3.625V3.31934H82.375V56.7568Z" fill="#5344DB"/>
<path d="M59.875 48.3193C58.4844 48.3193 57.1249 48.7317 55.9687 49.5043C54.8124 50.2769 53.9112 51.3751 53.379 52.6598C52.8468 53.9446 52.7076 55.3584 52.9789 56.7223C53.2502 58.0863 53.9198 59.3391 54.9032 60.3224C55.8865 61.3058 57.1393 61.9754 58.5033 62.2467C59.8672 62.518 61.281 62.3788 62.5658 61.8466C63.8506 61.3144 64.9487 60.4132 65.7213 59.2569C66.4939 58.1007 66.9063 56.7412 66.9063 55.3506C66.904 53.4865 66.1625 51.6993 64.8444 50.3812C63.5263 49.0631 61.7391 48.3216 59.875 48.3193ZM59.875 59.5693C59.0406 59.5693 58.225 59.3219 57.5312 58.8584C56.8374 58.3948 56.2967 57.7359 55.9774 56.965C55.6581 56.1942 55.5745 55.3459 55.7373 54.5276C55.9001 53.7092 56.3019 52.9575 56.8919 52.3675C57.4819 51.7775 58.2336 51.3757 59.052 51.2129C59.8703 51.0501 60.7186 51.1337 61.4895 51.453C62.2603 51.7723 62.9192 52.313 63.3828 53.0068C63.8463 53.7006 64.0938 54.5162 64.0938 55.3506C64.0938 56.4695 63.6493 57.5425 62.8581 58.3337C62.0669 59.1249 60.9939 59.5693 59.875 59.5693Z" fill="#5344DB"/>
<path d="M31.75 11.7568H54.25V14.5693H31.75V11.7568Z" fill="#5344DB"/>
<path d="M26.125 17.3818H59.875V20.1943H26.125V17.3818Z" fill="#5344DB"/>
<path d="M14.875 25.8193H72.5312V28.6318H14.875V25.8193Z" fill="#5344DB"/>
<path d="M14.875 34.2568H72.5312V37.0693H14.875V34.2568Z" fill="#5344DB"/>
<path d="M23.3125 42.6943H34.5625V45.5068H23.3125V42.6943Z" fill="#5344DB"/>
<path d="M14.875 42.6943H20.5V45.5068H14.875V42.6943Z" fill="#5344DB"/>
</svg>
