<svg width="86" height="86" viewBox="0 0 86 86" fill="none" xmlns="http://www.w3.org/2000/svg">
<path d="M69.7188 50.0312H61.2812H33.1562V78.1562V83.7812H55.6562H83.7812V50.0312H78.1562H69.7188Z" fill="#04A0FE"/>
<path d="M69.7188 10.6562H10.6562H2.21875V21.9062H69.7188V10.6562Z" fill="#04A0FE"/>
<path d="M40.1875 35.9688C41.7408 35.9688 43 34.7096 43 33.1562C43 31.6029 41.7408 30.3438 40.1875 30.3438C38.6342 30.3438 37.375 31.6029 37.375 33.1562C37.375 34.7096 38.6342 35.9688 40.1875 35.9688Z" fill="#04A0FE"/>
<path d="M21.9062 35.9688C23.4596 35.9688 24.7188 34.7096 24.7188 33.1562C24.7188 31.6029 23.4596 30.3438 21.9062 30.3438C20.3529 30.3438 19.0938 31.6029 19.0938 33.1562C19.0938 34.7096 20.3529 35.9688 21.9062 35.9688Z" fill="#04A0FE"/>
<path d="M21.9062 48.625C23.4596 48.625 24.7188 47.3658 24.7188 45.8125C24.7188 44.2592 23.4596 43 21.9062 43C20.3529 43 19.0938 44.2592 19.0938 45.8125C19.0938 47.3658 20.3529 48.625 21.9062 48.625Z" fill="#04A0FE"/>
<path d="M83.7812 48.625H79.5625V2.21875C79.5625 1.84579 79.4143 1.4881 79.1506 1.22438C78.8869 0.960658 78.5292 0.8125 78.1562 0.8125H10.6562C10.2833 0.8125 9.9256 0.960658 9.66188 1.22438C9.39816 1.4881 9.25 1.84579 9.25 2.21875V9.25H2.21875C1.84579 9.25 1.4881 9.39816 1.22438 9.66188C0.960658 9.9256 0.8125 10.2833 0.8125 10.6562V78.1562C0.8125 78.5292 0.960658 78.8869 1.22438 79.1506C1.4881 79.4143 1.84579 79.5625 2.21875 79.5625H31.75V83.7812C31.75 84.1542 31.8982 84.5119 32.1619 84.7756C32.4256 85.0393 32.7833 85.1875 33.1562 85.1875H83.7812C84.1542 85.1875 84.5119 85.0393 84.7756 84.7756C85.0393 84.5119 85.1875 84.1542 85.1875 83.7812V50.0312C85.1875 49.6583 85.0393 49.3006 84.7756 49.0369C84.5119 48.7732 84.1542 48.625 83.7812 48.625ZM12.0625 3.625H76.75V48.625H71.125V10.6562C71.125 10.2833 70.9768 9.9256 70.7131 9.66188C70.4494 9.39816 70.0917 9.25 69.7188 9.25H12.0625V3.625ZM68.3125 12.0625V20.5H3.625V12.0625H68.3125ZM31.75 50.0312V76.75H3.625V23.3125H68.3125V48.625H33.1562C32.7833 48.625 32.4256 48.7732 32.1619 49.0369C31.8982 49.3006 31.75 49.6583 31.75 50.0312ZM82.375 82.375H34.5625V51.4375H82.375V82.375Z" fill="#5344DB"/>
<path d="M6.4375 14.875H9.25V17.6875H6.4375V14.875Z" fill="#5344DB"/>
<path d="M12.0625 14.875H14.875V17.6875H12.0625V14.875Z" fill="#5344DB"/>
<path d="M17.6875 14.875H20.5V17.6875H17.6875V14.875Z" fill="#5344DB"/>
<path d="M62.6875 14.875H65.5V17.6875H62.6875V14.875Z" fill="#5344DB"/>
<path d="M49.719 79.8325L51.7074 77.844L40.7696 66.9062L51.7074 55.9684L49.719 53.98L37.787 65.912C37.5233 66.1757 37.3752 66.5333 37.3752 66.9062C37.3752 67.2791 37.5233 67.6367 37.787 67.9005L49.719 79.8325Z" fill="#5344DB"/>
<path d="M67.2184 79.8325L79.1505 67.9005C79.4141 67.6367 79.5622 67.2791 79.5622 66.9062C79.5622 66.5333 79.4141 66.1757 79.1505 65.912L67.2184 53.98L65.23 55.9684L76.1678 66.9062L65.23 77.844L67.2184 79.8325Z" fill="#5344DB"/>
<path d="M54.2786 79.2808L59.9053 53.9732L62.6503 54.5835L57.0236 79.8911L54.2786 79.2808Z" fill="#5344DB"/>
<path d="M9.25 28.9375H12.0625V37.375H9.25V28.9375Z" fill="#5344DB"/>
<path d="M13.4688 28.9375H16.2812V37.375H13.4688V28.9375Z" fill="#5344DB"/>
<path d="M27.5312 28.9375H30.3438V37.375H27.5312V28.9375Z" fill="#5344DB"/>
<path d="M31.75 28.9375H34.5625V37.375H31.75V28.9375Z" fill="#5344DB"/>
<path d="M21.9063 28.9375C21.0719 28.9375 20.2562 29.1849 19.5624 29.6485C18.8687 30.112 18.3279 30.7709 18.0086 31.5418C17.6893 32.3127 17.6058 33.1609 17.7686 33.9793C17.9313 34.7976 18.3331 35.5494 18.9231 36.1394C19.5131 36.7294 20.2649 37.1312 21.0832 37.2939C21.9016 37.4567 22.7498 37.3732 23.5207 37.0539C24.2916 36.7346 24.9504 36.1938 25.414 35.5001C25.8776 34.8063 26.125 33.9906 26.125 33.1562C26.125 32.0374 25.6805 30.9643 24.8894 30.1731C24.0982 29.382 23.0251 28.9375 21.9063 28.9375ZM21.9063 34.5625C21.6281 34.5625 21.3562 34.48 21.125 34.3255C20.8937 34.171 20.7135 33.9514 20.607 33.6944C20.5006 33.4374 20.4728 33.1547 20.527 32.8819C20.5813 32.6091 20.7152 32.3585 20.9119 32.1619C21.1085 31.9652 21.3591 31.8313 21.6319 31.777C21.9047 31.7228 22.1874 31.7506 22.4444 31.857C22.7014 31.9635 22.921 32.1437 23.0755 32.375C23.23 32.6062 23.3125 32.8781 23.3125 33.1562C23.3125 33.5292 23.1643 33.8869 22.9006 34.1506C22.6369 34.4143 22.2792 34.5625 21.9063 34.5625Z" fill="#5344DB"/>
<path d="M40.1875 28.9375C39.3531 28.9375 38.5375 29.1849 37.8437 29.6485C37.1499 30.112 36.6092 30.7709 36.2899 31.5418C35.9706 32.3127 35.887 33.1609 36.0498 33.9793C36.2126 34.7976 36.6144 35.5494 37.2044 36.1394C37.7944 36.7294 38.5461 37.1312 39.3645 37.2939C40.1828 37.4567 41.0311 37.3732 41.802 37.0539C42.5728 36.7346 43.2317 36.1938 43.6953 35.5001C44.1588 34.8063 44.4063 33.9906 44.4063 33.1562C44.4063 32.0374 43.9618 30.9643 43.1706 30.1731C42.3794 29.382 41.3064 28.9375 40.1875 28.9375ZM40.1875 34.5625C39.9094 34.5625 39.6375 34.48 39.4062 34.3255C39.175 34.171 38.9947 33.9514 38.8883 33.6944C38.7819 33.4374 38.754 33.1547 38.8083 32.8819C38.8625 32.6091 38.9965 32.3585 39.1931 32.1619C39.3898 31.9652 39.6404 31.8313 39.9132 31.777C40.1859 31.7228 40.4687 31.7506 40.7257 31.857C40.9826 31.9635 41.2022 32.1437 41.3568 32.375C41.5113 32.6062 41.5938 32.8781 41.5938 33.1562C41.5938 33.5292 41.4456 33.8869 41.1819 34.1506C40.9182 34.4143 40.5605 34.5625 40.1875 34.5625Z" fill="#5344DB"/>
<path d="M13.4688 41.5938H16.2812V50.0312H13.4688V41.5938Z" fill="#5344DB"/>
<path d="M9.25 41.5938H12.0625V50.0312H9.25V41.5938Z" fill="#5344DB"/>
<path d="M27.5312 41.5938H30.3438V50.0312H27.5312V41.5938Z" fill="#5344DB"/>
<path d="M21.9063 41.5938C21.0719 41.5938 20.2562 41.8412 19.5624 42.3047C18.8687 42.7683 18.3279 43.4272 18.0086 44.1981C17.6893 44.9689 17.6058 45.8172 17.7686 46.6355C17.9313 47.4539 18.3331 48.2056 18.9231 48.7956C19.5131 49.3856 20.2649 49.7874 21.0832 49.9502C21.9016 50.113 22.7498 50.0294 23.5207 49.7101C24.2916 49.3908 24.9504 48.8501 25.414 48.1563C25.8776 47.4625 26.125 46.6469 26.125 45.8125C26.125 44.6936 25.6805 43.6206 24.8894 42.8294C24.0982 42.0382 23.0251 41.5938 21.9063 41.5938ZM21.9063 47.2188C21.6281 47.2188 21.3562 47.1363 21.125 46.9818C20.8937 46.8272 20.7135 46.6076 20.607 46.3507C20.5006 46.0937 20.4728 45.8109 20.527 45.5382C20.5813 45.2654 20.7152 45.0148 20.9119 44.8181C21.1085 44.6215 21.3591 44.4875 21.6319 44.4333C21.9047 44.379 22.1874 44.4069 22.4444 44.5133C22.7014 44.6197 22.921 44.8 23.0755 45.0312C23.23 45.2625 23.3125 45.5344 23.3125 45.8125C23.3125 46.1855 23.1643 46.5432 22.9006 46.8069C22.6369 47.0706 22.2792 47.2188 21.9063 47.2188Z" fill="#5344DB"/>
</svg>
