<svg width="90" height="91" viewBox="0 0 90 91" fill="none" xmlns="http://www.w3.org/2000/svg">
<path d="M73.5 26.3252C67.4509 26.323 62.3459 30.8237 61.5901 36.8252L69 35.3252L69.9001 35.6255L73.5 36.8252L78 35.3252L78.5698 35.4453L85.4099 36.8106C84.6431 30.8164 79.5425 26.3259 73.5 26.3252Z" fill="#04A0FE"/>
<path d="M64.5 50.3252V86.3252C64.5051 87.9797 65.8455 89.3201 67.5 89.3252H70.5C72.1545 89.3201 73.4949 87.9797 73.5 86.3252C73.5051 87.9797 74.8455 89.3201 76.5 89.3252H79.5C81.1545 89.3201 82.4949 87.9797 82.5 86.3252V50.3252H64.5Z" fill="#04A0FE"/>
<path d="M7.5 50.3252V86.3252C7.50513 87.9797 8.84546 89.3201 10.5 89.3252H13.5C15.1545 89.3201 16.4949 87.9797 16.5 86.3252C16.5051 87.9797 17.8455 89.3201 19.5 89.3252H22.5C24.1545 89.3201 25.4949 87.9797 25.5 86.3252V50.3252H7.5Z" fill="#04A0FE"/>
<path d="M16.5 26.3252C11.1958 26.3303 6.52148 29.8101 4.99512 34.8901C6.32007 35.4504 7.7417 35.7456 9.18018 35.7603C10.1367 35.7632 11.0881 35.6167 12 35.3252C13.7483 34.7598 15.3062 33.7219 16.5 32.3252C17.6938 33.7219 19.2517 34.7598 21 35.3252C21.2358 35.4043 21.4761 35.4695 21.72 35.52C23.8293 35.9719 26.0273 35.7515 28.0049 34.8901C26.4785 29.8101 21.8042 26.3303 16.5 26.3252Z" fill="#04A0FE"/>
<path d="M85.5 48.8252H81.9661C86.4258 45.2349 88.136 39.2209 86.2317 33.8215C84.3281 28.4214 79.2253 24.8098 73.5 24.8098C67.7747 24.8098 62.6719 28.4214 60.7683 33.8215C58.864 39.2209 60.5742 45.2349 65.0339 48.8252H61.5C59.0149 48.8252 57 50.8401 57 53.3252V65.3252C57 67.8103 59.0149 69.8252 61.5 69.8252H63V86.3252C63 88.8103 65.0149 90.8252 67.5 90.8252H70.5C71.6104 90.8215 72.6797 90.4041 73.5 89.6555C74.3203 90.4041 75.3896 90.8215 76.5 90.8252H79.5C81.9851 90.8252 84 88.8103 84 86.3252V69.8252H85.5C87.9851 69.8252 90 67.8103 90 65.3252V53.3252C90 50.8401 87.9851 48.8252 85.5 48.8252ZM66 69.8252V51.8252H72V62.3252H75V51.8252H81V69.8252H66ZM73.5 27.8252C77.9619 27.8354 81.9309 30.6619 83.4001 34.8755L78.3003 33.8552C78.0447 33.8025 77.7795 33.8186 77.532 33.9014L73.5059 35.252L69.4797 33.9014C69.2314 33.8208 68.9656 33.8047 68.7092 33.8552L63.594 34.8916C65.0581 30.6699 69.0315 27.8354 73.5 27.8252ZM63 38.3252C63 38.238 63.0103 38.1545 63.0132 38.0688L68.9055 36.8684L73.0261 38.2424C73.3337 38.345 73.6663 38.345 73.9739 38.2424L78.0959 36.8684L83.9868 38.0461C83.9868 38.1377 84 38.2278 84 38.3193C84 44.1179 79.2993 48.8193 73.5 48.8193C67.7007 48.8193 63 44.1179 63 38.3193V38.3252ZM61.5 66.8252C60.6716 66.8252 60 66.1536 60 65.3252V53.3252C60 52.4968 60.6716 51.8252 61.5 51.8252H63V66.8252H61.5ZM70.5 87.8252H67.5C66.6716 87.8252 66 87.1536 66 86.3252V72.8252H72V86.3252C72 87.1536 71.3284 87.8252 70.5 87.8252ZM79.5 87.8252H76.5C75.6716 87.8252 75 87.1536 75 86.3252V72.8252H81V86.3252C81 87.1536 80.3284 87.8252 79.5 87.8252ZM87 65.3252C87 66.1536 86.3284 66.8252 85.5 66.8252H84V51.8252H85.5C86.3284 51.8252 87 52.4968 87 53.3252V65.3252Z" fill="#5344DB"/>
<path d="M67.5 38.3252H70.5V41.3252H67.5V38.3252Z" fill="#5344DB"/>
<path d="M76.5 38.3252H79.5V41.3252H76.5V38.3252Z" fill="#5344DB"/>
<path d="M73.5 44.3252C72.7976 44.301 72.1406 43.9729 71.6997 43.425L69.3003 45.2253C70.2913 46.5474 71.8477 47.3252 73.5 47.3252C75.1523 47.3252 76.7087 46.5474 77.6997 45.2253L75.3003 43.425C74.8608 43.9744 74.2031 44.3032 73.5 44.3252Z" fill="#5344DB"/>
<path d="M28.5 48.8252H24.9661C29.4258 45.2349 31.136 39.2209 29.2317 33.8215C27.3281 28.4214 22.2253 24.8098 16.5 24.8098C10.7747 24.8098 5.67188 28.4214 3.76831 33.8215C1.86401 39.2209 3.57422 45.2349 8.03394 48.8252H4.5C2.01489 48.8252 0 50.8401 0 53.3252V65.3252C0 67.8103 2.01489 69.8252 4.5 69.8252H6V86.3252C6 88.8103 8.01489 90.8252 10.5 90.8252H13.5C14.6104 90.8215 15.6797 90.4041 16.5 89.6555C17.3203 90.4041 18.3896 90.8215 19.5 90.8252H22.5C24.9851 90.8252 27 88.8103 27 86.3252V69.8252H28.5C30.9851 69.8252 33 67.8103 33 65.3252V53.3252C33 50.8401 30.9851 48.8252 28.5 48.8252ZM9 69.8252V51.8252H15V62.3252H18V51.8252H24V69.8252H9ZM16.5 27.8252C20.6052 27.8303 24.3303 30.2268 26.0369 33.96C24.5332 34.3767 22.9417 34.354 21.4497 33.894C19.9666 33.4128 18.6453 32.5303 17.6323 31.3445C17.3394 31.0303 16.9292 30.8523 16.5 30.8523C16.0708 30.8523 15.6606 31.0303 15.3677 31.3445C14.354 32.531 13.0312 33.4136 11.5474 33.894C10.0569 34.3533 8.46606 34.376 6.96313 33.9585C8.66968 30.2261 12.3955 27.8296 16.5 27.8252ZM6 38.3252C6.00366 37.8257 6.04321 37.3276 6.11865 36.834C7.11768 37.1064 8.14819 37.2485 9.18457 37.2573C10.292 37.2595 11.3936 37.0903 12.4497 36.7563C13.9468 36.2803 15.3267 35.4944 16.5 34.4507C19.3206 36.9768 23.2405 37.8784 26.8813 36.8369C26.9568 37.3298 26.9963 37.8271 27 38.3252C27 44.1245 22.2993 48.8252 16.5 48.8252C10.7007 48.8252 6 44.1245 6 38.3252ZM4.5 66.8252C3.67163 66.8252 3 66.1536 3 65.3252V53.3252C3 52.4968 3.67163 51.8252 4.5 51.8252H6V66.8252H4.5ZM13.5 87.8252H10.5C9.67163 87.8252 9 87.1536 9 86.3252V72.8252H15V86.3252C15 87.1536 14.3284 87.8252 13.5 87.8252ZM22.5 87.8252H19.5C18.6716 87.8252 18 87.1536 18 86.3252V72.8252H24V86.3252C24 87.1536 23.3284 87.8252 22.5 87.8252ZM30 65.3252C30 66.1536 29.3284 66.8252 28.5 66.8252H27V51.8252H28.5C29.3284 51.8252 30 52.4968 30 53.3252V65.3252Z" fill="#5344DB"/>
<path d="M19.5 38.3252H22.5V41.3252H19.5V38.3252Z" fill="#5344DB"/>
<path d="M10.5 38.3252H13.5V41.3252H10.5V38.3252Z" fill="#5344DB"/>
<path d="M16.5 44.3252C15.7969 44.3032 15.1392 43.9744 14.6997 43.425L12.3003 45.2253C13.2913 46.5474 14.8477 47.3252 16.5 47.3252C18.1523 47.3252 19.7087 46.5474 20.6997 45.2253L18.3003 43.425C17.8594 43.9729 17.2024 44.301 16.5 44.3252Z" fill="#5344DB"/>
<path d="M54.9667 7.45867C54.9667 8.4159 54.1906 9.19201 53.2333 9.19201C52.2761 9.19201 51.5 8.4159 51.5 7.45867C51.5 6.50145 52.2761 5.72534 53.2333 5.72534C54.1906 5.72534 54.9667 6.50145 54.9667 7.45867Z" fill="#04A0FE"/>
<path d="M49.7665 7.45867C49.7665 8.4159 48.9904 9.19201 48.0331 9.19201C47.0759 9.19201 46.2998 8.4159 46.2998 7.45867C46.2998 6.50145 47.0759 5.72534 48.0331 5.72534C48.9904 5.72534 49.7665 6.50145 49.7665 7.45867Z" fill="#04A0FE"/>
<path d="M49.3334 16.5585C49.3334 17.5158 48.5573 18.2919 47.6 18.2919C46.6428 18.2919 45.8667 17.5158 45.8667 16.5585C45.8667 15.6013 46.6428 14.8252 47.6 14.8252C48.5573 14.8252 49.3334 15.6013 49.3334 16.5585Z" fill="#04A0FE"/>
<path d="M44.5668 7.45867C44.5668 8.4159 43.7907 9.19201 42.8334 9.19201C41.8762 9.19201 41.1001 8.4159 41.1001 7.45867C41.1001 6.50145 41.8762 5.72534 42.8334 5.72534C43.7907 5.72534 44.5668 6.50145 44.5668 7.45867Z" fill="#04A0FE"/>
<path d="M44.1334 16.5585C44.1334 17.5158 43.3573 18.2919 42.4001 18.2919C41.4429 18.2919 40.6667 17.5158 40.6667 16.5585C40.6667 15.6013 41.4429 14.8252 42.4001 14.8252C43.3573 14.8252 44.1334 15.6013 44.1334 16.5585Z" fill="#04A0FE"/>
<path d="M38.9332 16.5585C38.9332 17.5158 38.1571 18.2919 37.1999 18.2919C36.2427 18.2919 35.4666 17.5158 35.4666 16.5585C35.4666 15.6013 36.2427 14.8252 37.1999 14.8252C38.1571 14.8252 38.9332 15.6013 38.9332 16.5585Z" fill="#04A0FE"/>
<path d="M55.8333 1.3252H55.8339C57.3057 1.32702 58.4981 2.51948 58.5 3.99124V3.99186V20.4579V20.4585H58C58.0008 20.6502 57.8755 20.8199 57.6921 20.8754L55.8333 1.3252ZM55.8333 1.3252L40.2333 1.3252L40.2327 1.3252C38.7609 1.32702 37.5685 2.51947 37.5667 3.99124V3.99186V9.99186L55.8333 1.3252ZM56.6333 3.99186V17.3769L53.1432 12.1406L53.143 12.1403C52.9698 11.881 52.6787 11.7252 52.3666 11.7252H40.2333C39.7915 11.7252 39.4333 11.367 39.4333 10.9252V3.99186C39.4333 3.55008 39.7915 3.19186 40.2333 3.19186H55.8333C56.2751 3.19186 56.6333 3.55008 56.6333 3.99186ZM40.2333 13.5919H50.5666V20.4585C50.5666 20.9003 50.2084 21.2585 49.7666 21.2585H37.6333C37.3857 21.2585 37.1483 21.357 36.9734 21.5319L33.3667 25.1387V12.6585C33.3667 12.2167 33.7249 11.8585 34.1667 11.8585H37.7352C38.1197 12.8864 39.1069 13.5905 40.2327 13.5919H40.2333Z" fill="#5344DB" stroke="#5344DB" stroke-linejoin="round"/>
</svg>
