<svg width="90" height="90" viewBox="0 0 90 90" fill="none" xmlns="http://www.w3.org/2000/svg">
<path d="M6.99997 75.5635H64L69 88.0635L3 87.5635L6.99997 75.5635Z" fill="#04A0FE"/>
<circle cx="75" cy="58.5635" r="6" fill="#04A0FE"/>
<path d="M86 87.0635C86 90.3772 84.3137 88.5635 81 88.5635C77.6863 88.5635 74 90.3772 74 87.0635C74 83.7498 76.6863 81.0635 80 81.0635C83.3137 81.0635 86 83.7498 86 87.0635Z" fill="#04A0FE"/>
<path d="M65.3516 75.1659C65.1119 74.5634 64.5007 74.1643 63.8183 74.165H6.54555C5.79528 74.165 5.14089 74.6463 4.95792 75.3324L1.68519 87.6714C1.56294 88.1323 1.67241 88.6211 1.98242 88.9954C2.29323 89.3697 2.76864 89.5889 3.27282 89.5889H68.7274C69.2643 89.5889 69.7669 89.3411 70.0729 88.9254C70.379 88.5097 70.4493 87.9787 70.2607 87.505L65.3516 75.1659ZM5.36861 86.5041L7.82316 77.2498H62.6845L66.3663 86.5041H5.36861Z" fill="#5344DB"/>
<path d="M80.1822 80.3347C76.5675 80.3347 73.6367 83.0971 73.6367 86.5042V88.0466C73.6367 88.8984 74.3694 89.589 75.2731 89.589H85.0913C85.995 89.589 86.7277 88.8984 86.7277 88.0466V86.5042C86.7277 83.0971 83.7969 80.3347 80.1822 80.3347ZM76.9095 86.5042C76.9095 84.8007 78.3748 83.4195 80.1822 83.4195C81.9895 83.4195 83.4549 84.8007 83.4549 86.5042H76.9095Z" fill="#5344DB"/>
<path d="M85.0909 29.4361V1.67324C85.0909 0.821467 84.3582 0.130859 83.4545 0.130859H1.63636C0.732688 0.130859 0 0.821467 0 1.67324V54.1142C0 54.966 0.732688 55.6566 1.63636 55.6566H36V58.7414H31.0909C30.4709 58.7414 29.9036 59.0712 29.6263 59.5946L26.3536 65.7642C26.1003 66.2424 26.1275 66.8102 26.4255 67.2644C26.7243 67.7193 27.2509 67.9957 27.8182 67.9957H57.2727C57.8416 67.9987 58.3706 67.723 58.671 67.2682C58.9714 66.8125 58.9994 66.2432 58.7453 65.7642L55.4726 59.5946C55.1945 59.069 54.6232 58.7384 54 58.7414H49.0909V55.6566H60.5455V67.9957C60.5455 70.551 62.7435 72.6228 65.4545 72.6228H85.0909C87.8019 72.6228 90 70.551 90 67.9957V34.0633C90 31.5079 87.8019 29.4361 85.0909 29.4361ZM47.4545 61.8261H52.9885L54.6248 64.9109H30.4661L32.1025 61.8261H37.6364C38.54 61.8261 39.2727 61.1355 39.2727 60.2837V55.6566H45.8182V60.2837C45.8182 61.1355 46.5509 61.8261 47.4545 61.8261ZM3.27273 52.5718V3.21562H81.8182V29.4361H65.4545C62.7435 29.4361 60.5455 31.5079 60.5455 34.0633V52.5718H3.27273ZM86.7273 67.9957C86.7273 68.8474 85.9946 69.538 85.0909 69.538H65.4545C64.5509 69.538 63.8182 68.8474 63.8182 67.9957V34.0633C63.8182 33.2115 64.5509 32.5209 65.4545 32.5209H85.0909C85.9946 32.5209 86.7273 33.2115 86.7273 34.0633V67.9957Z" fill="#5344DB"/>
<path d="M75.2726 51.0293C70.7543 51.0293 67.0908 54.4823 67.0908 58.7412C67.0908 63.0001 70.7543 66.4531 75.2726 66.4531C79.791 66.4531 83.4545 63.0001 83.4545 58.7412C83.4489 54.4838 79.7894 51.0346 75.2726 51.0293ZM75.2726 63.3684C72.5616 63.3684 70.3635 61.2965 70.3635 58.7412C70.3635 56.1859 72.5616 54.1141 75.2726 54.1141C77.9837 54.1141 80.1817 56.1859 80.1817 58.7412C80.1817 61.2965 77.9837 63.3684 75.2726 63.3684Z" fill="#5344DB"/>
<path d="M67.0908 35.6055H83.4545V38.6903H67.0908V35.6055Z" fill="#5344DB"/>
<path d="M67.0908 40.2329H83.4545V43.3176H67.0908V40.2329Z" fill="#5344DB"/>
</svg>
