<svg width="90" height="91" viewBox="0 0 90 91" fill="none" xmlns="http://www.w3.org/2000/svg">
<path d="M73.5 26.3691C67.4509 26.3669 62.3459 30.8677 61.5901 36.8691L69 35.3691L69.9001 35.6694L73.5 36.8691L78 35.3691L78.5698 35.4893L85.4099 36.8545C84.6431 30.8604 79.5425 26.3699 73.5 26.3691Z" fill="#04A0FE"/>
<path d="M67.5 89.3691H70.5C72.1545 89.364 73.4949 88.0237 73.5 86.3691C73.5051 88.0237 74.8455 89.364 76.5 89.3691H79.5C81.1545 89.364 82.4949 88.0237 82.5 86.3691V50.3691H64.5V86.3691C64.5051 88.0237 65.8455 89.364 67.5 89.3691Z" fill="#04A0FE"/>
<path d="M60 17.3691C60 25.6536 53.2844 32.3691 45 32.3691C36.7156 32.3691 30 25.6536 30 17.3691C30 9.08472 36.7156 2.36914 45 2.36914C53.2844 2.36914 60 9.08472 60 17.3691Z" fill="#04A0FE"/>
<path d="M7.5 50.3691V86.3691C7.50513 88.0237 8.84546 89.364 10.5 89.3691H13.5C15.1545 89.364 16.4949 88.0237 16.5 86.3691C16.5051 88.0237 17.8455 89.364 19.5 89.3691H22.5C24.1545 89.364 25.4949 88.0237 25.5 86.3691V50.3691H7.5Z" fill="#04A0FE"/>
<path d="M9.18018 35.8042C10.1367 35.8071 11.0881 35.6606 12 35.3691C13.7483 34.8037 15.3062 33.7659 16.5 32.3691C17.6938 33.7659 19.2517 34.8037 21 35.3691C21.2358 35.4482 21.4761 35.5134 21.72 35.564C23.8293 36.0159 26.0273 35.7954 28.0049 34.9341C26.4836 29.8503 21.8064 26.3677 16.5 26.3677C11.1936 26.3677 6.51636 29.8503 4.99512 34.9341C6.32007 35.4944 7.7417 35.7895 9.18018 35.8042Z" fill="#04A0FE"/>
<path d="M43.0605 16.0508L41.3788 14.3691H52.4999V11.3691H41.3788L43.0605 9.6875L40.9394 7.56641L36.6972 11.8086C36.112 12.3945 36.112 13.3438 36.6972 13.9297L40.9394 18.1719L43.0605 16.0508Z" fill="#5344DB"/>
<path d="M49.0605 16.5664L46.9395 18.6875L48.6211 20.3691H37.5V23.3691H48.6211L46.9395 25.0508L49.0605 27.1719L53.3027 22.9297C53.8879 22.3437 53.8879 21.3945 53.3027 20.8086L49.0605 16.5664Z" fill="#5344DB"/>
<path d="M85.5 48.8691H81.9675C86.4265 45.2781 88.1353 39.2649 86.2317 33.8655C84.3281 28.4661 79.2253 24.8545 73.5 24.8545C67.7747 24.8545 62.6719 28.4661 60.7683 33.8655C58.8647 39.2649 60.5735 45.2781 65.0325 48.8691H61.5C59.0149 48.8691 57 50.884 57 53.3691V65.3691C57 67.8542 59.0149 69.8691 61.5 69.8691H63V86.3691C63 88.8542 65.0149 90.8691 67.5 90.8691H70.5C71.6104 90.8655 72.6797 90.448 73.5 89.6995C74.3203 90.448 75.3897 90.8655 76.5 90.8691H79.5C81.9851 90.8691 84 88.8542 84 86.3691V69.8691H85.5C87.9851 69.8691 90 67.8542 90 65.3691V53.3691C90 50.884 87.9851 48.8691 85.5 48.8691ZM66 69.8691V51.8691H72V62.3691H75V51.8691H81V69.8691H66ZM73.5 27.8691C77.9619 27.8794 81.9309 30.7058 83.4001 34.9194L78.3003 33.8992C78.0439 33.8472 77.7795 33.864 77.532 33.9468L73.5 35.2878L69.4739 33.9468C69.2256 33.8647 68.9597 33.8479 68.7026 33.8992L63.5896 34.9341C65.0537 30.7109 69.03 27.8765 73.5 27.8691ZM63 38.3691C63 38.282 63.0103 38.1985 63.0132 38.1128L68.9055 36.9124L73.0261 38.2849C73.3337 38.3889 73.6663 38.3889 73.9739 38.2849L78.0959 36.9109L83.9868 38.0901C83.9868 38.1816 84 38.2703 84 38.3633C84 44.1619 79.2993 48.8633 73.5 48.8633C67.7007 48.8633 63 44.1619 63 38.3633V38.3691ZM61.5 66.8691C60.6716 66.8691 60 66.1975 60 65.3691V53.3691C60 52.5408 60.6716 51.8691 61.5 51.8691H63V66.8691H61.5ZM70.5 87.8691H67.5C66.6716 87.8691 66 87.1975 66 86.3691V72.8691H72V86.3691C72 87.1975 71.3284 87.8691 70.5 87.8691ZM79.5 87.8691H76.5C75.6716 87.8691 75 87.1975 75 86.3691V72.8691H81V86.3691C81 87.1975 80.3284 87.8691 79.5 87.8691ZM87 65.3691C87 66.1975 86.3284 66.8691 85.5 66.8691H84V51.8691H85.5C86.3284 51.8691 87 52.5408 87 53.3691V65.3691Z" fill="#5344DB"/>
<path d="M67.5 38.3691H70.5V41.3691H67.5V38.3691Z" fill="#5344DB"/>
<path d="M76.5 38.3691H79.5V41.3691H76.5V38.3691Z" fill="#5344DB"/>
<path d="M73.5 44.3691C72.7976 44.345 72.1406 44.0168 71.6997 43.469L69.3003 45.2693C70.2913 46.5913 71.8477 47.3691 73.5 47.3691C75.1523 47.3691 76.7087 46.5913 77.6997 45.2693L75.3003 43.469C74.8608 44.0183 74.2031 44.3472 73.5 44.3691Z" fill="#5344DB"/>
<path d="M28.5 48.8691H24.9675C29.4265 45.2781 31.1353 39.2649 29.2317 33.8655C27.3281 28.4661 22.2253 24.8545 16.5 24.8545C10.7747 24.8545 5.67188 28.4661 3.76831 33.8655C1.86475 39.2649 3.57349 45.2781 8.03247 48.8691H4.5C2.01489 48.8691 0 50.884 0 53.3691V65.3691C0 67.8542 2.01489 69.8691 4.5 69.8691H6V86.3691C6 88.8542 8.01489 90.8691 10.5 90.8691H13.5C14.6104 90.8655 15.6797 90.448 16.5 89.6995C17.3203 90.448 18.3896 90.8655 19.5 90.8691H22.5C24.9851 90.8691 27 88.8542 27 86.3691V69.8691H28.5C30.9851 69.8691 33 67.8542 33 65.3691V53.3691C33 50.884 30.9851 48.8691 28.5 48.8691ZM9 69.8691V51.8691H15V62.3691H18V51.8691H24V69.8691H9ZM16.5 27.8691C20.6052 27.8743 24.3303 30.2708 26.0369 34.0039C24.5332 34.4192 22.9417 34.3965 21.4497 33.938C19.9666 33.4575 18.646 32.5742 17.6338 31.3884C17.3408 31.0735 16.9299 30.8955 16.5 30.8955C16.0701 30.8955 15.6592 31.0735 15.3662 31.3884C14.3533 32.575 13.0312 33.4575 11.5474 33.938C10.0569 34.3972 8.46606 34.4199 6.96313 34.0024C8.66968 30.27 12.3955 27.8735 16.5 27.8691ZM6 38.3691C6.00366 37.8667 6.04321 37.3657 6.11865 36.8691C7.11768 37.1423 8.14819 37.2844 9.18457 37.2925C10.292 37.2947 11.3936 37.1262 12.4497 36.793C13.9453 36.3184 15.3252 35.5361 16.5 34.4961C19.322 37.0215 23.2419 37.9224 26.8828 36.8823C27.4702 40.7861 25.8179 44.6892 22.6069 46.9854C19.396 49.2815 15.1677 49.5825 11.6638 47.7639C8.15991 45.946 5.97217 42.3169 6 38.3691ZM4.5 66.8691C3.67163 66.8691 3 66.1975 3 65.3691V53.3691C3 52.5408 3.67163 51.8691 4.5 51.8691H6V66.8691H4.5ZM13.5 87.8691H10.5C9.67163 87.8691 9 87.1975 9 86.3691V72.8691H15V86.3691C15 87.1975 14.3284 87.8691 13.5 87.8691ZM22.5 87.8691H19.5C18.6716 87.8691 18 87.1975 18 86.3691V72.8691H24V86.3691C24 87.1975 23.3284 87.8691 22.5 87.8691ZM30 65.3691C30 66.1975 29.3284 66.8691 28.5 66.8691H27V51.8691H28.5C29.3284 51.8691 30 52.5408 30 53.3691V65.3691Z" fill="#5344DB"/>
<path d="M19.5 38.3691H22.5V41.3691H19.5V38.3691Z" fill="#5344DB"/>
<path d="M10.5 38.3691H13.5V41.3691H10.5V38.3691Z" fill="#5344DB"/>
<path d="M16.5 44.3691C15.7969 44.3472 15.1392 44.0183 14.6997 43.469L12.3003 45.2693C13.2913 46.5913 14.8477 47.3691 16.5 47.3691C18.1523 47.3691 19.7087 46.5913 20.6997 45.2693L18.3003 43.469C17.8594 44.0168 17.2024 44.345 16.5 44.3691Z" fill="#5344DB"/>
<path d="M45 0.869141C35.8872 0.869141 28.5 8.25635 28.5 17.3691C28.5 26.4819 35.8872 33.8691 45 33.8691C54.1128 33.8691 61.5 26.4819 61.5 17.3691C61.489 8.26074 54.1084 0.880127 45 0.869141ZM45 30.8691C37.5439 30.8691 31.5 24.8252 31.5 17.3691C31.5 9.91309 37.5439 3.86914 45 3.86914C52.4561 3.86914 58.5 9.91309 58.5 17.3691C58.4919 24.8215 52.4524 30.8611 45 30.8691Z" fill="#5344DB"/>
</svg>
