<svg width="91" height="90" viewBox="0 0 91 90" fill="none" xmlns="http://www.w3.org/2000/svg">
<path d="M77.5001 51C77.5001 73.32 58.1351 90 37.7501 88.5C17.9994 87.249 2.62061 70.8653 2.62061 51.075C2.62061 31.2847 17.9994 14.901 37.7501 13.65C58.1951 12 77.5001 28.71 77.5001 51Z" fill="#04A0FE"/>
<path d="M40.0234 88.418C60.7018 88.418 77.4648 71.6549 77.4648 50.9766C77.4648 30.2982 60.7018 13.5352 40.0234 13.5352C19.3451 13.5352 2.58203 30.2982 2.58203 50.9766C2.58203 71.6549 19.3451 88.418 40.0234 88.418Z" fill="#04A0FE"/>
<path d="M89.5 6V36C89.5 38.4853 87.4853 40.5 85 40.5H61L43 52.5V43.5C43 41.8432 41.6569 40.5 40 40.5C37.5147 40.5 35.5 38.4853 35.5 36V6C35.5 3.51472 37.5147 1.5 40 1.5H85C87.4853 1.5 89.5 3.51472 89.5 6Z" fill="white"/>
<path d="M57.6895 29.3555H47.582V20.8301M57.6895 12.6562H47.582V20.8301M47.582 20.8301H57.6895" stroke="#5344DB" stroke-width="2.8125" stroke-linecap="round" stroke-linejoin="round"/>
<path d="M66.2148 29.3555V19.7754V12.6562L77.5527 29.3555V12.6562" stroke="#5344DB" stroke-width="2.8125" stroke-linecap="round" stroke-linejoin="round"/>
<path d="M84.9999 0H39.9999C36.6862 0 33.9999 2.68629 33.9999 6V12.51C3.51991 17.175 -9.84509 54.225 11.2149 77.28C11.2149 77.28 11.3349 77.37 11.3799 77.43C28.2999 94.86 53.8449 93.405 68.6349 77.43C68.6349 77.43 68.7249 77.43 68.7549 77.325C77.5071 67.8137 80.949 54.569 77.9349 42H84.9999C88.3136 42 90.9999 39.3137 90.9999 36V6C90.9999 2.68629 88.3136 0 84.9999 0V0ZM54.8649 46.395C54.8649 47.415 54.9549 48.45 54.9699 49.5H50.1999L54.8649 46.395ZM75.9999 52.5C75.6765 60.5709 72.6314 68.2949 67.3599 74.415C63.8526 72.1663 60.0021 70.5045 55.9599 69.495C57.2588 63.9216 57.9429 58.2225 57.9999 52.5H75.9999ZM3.99991 52.5H21.9999C22.0668 58.2236 22.7609 63.9227 24.0699 69.495C20.0277 70.5045 16.1772 72.1663 12.6699 74.415C7.38762 68.2989 4.33171 60.5746 3.99991 52.5ZM12.6849 27.585C16.2043 29.8449 20.0707 31.5121 24.1299 32.52C22.7993 38.0848 22.085 43.779 21.9999 49.5H3.99991C4.33943 41.4243 7.40026 33.7009 12.6849 27.585ZM33.9999 31.2C31.9249 31.0138 29.8618 30.7133 27.8199 30.3C28.9786 25.8649 31.0872 21.7346 33.9999 18.195V31.2ZM24.8949 29.61C21.3204 28.7281 17.9046 27.296 14.7699 25.365C19.5296 20.6647 25.5104 17.3911 32.0349 15.915C28.6288 19.8671 26.1849 24.5547 24.8949 29.61ZM24.8949 72.39C26.2032 77.4489 28.6563 82.1395 32.0649 86.1C25.5244 84.623 19.5281 81.3442 14.7549 76.635C17.8884 74.7121 21.2979 73.2805 24.8649 72.39H24.8949ZM27.8949 71.715C35.9341 70.0948 44.2157 70.0948 52.2549 71.715C46.0749 92.055 33.9999 92.085 27.8199 71.715H27.8949ZM55.2099 72.39C58.7769 73.2805 62.1864 74.7121 65.3199 76.635C60.5343 81.3515 54.5215 84.6308 47.9649 86.1C51.3735 82.1395 53.8266 77.4489 55.1349 72.39H55.2099ZM53.0349 68.82C44.4839 67.0661 35.6659 67.0661 27.1149 68.82C25.8175 63.4733 25.1082 58.0008 24.9999 52.5H41.4999C41.4999 53.3284 42.1715 54 42.9999 54C43.5699 54 43.6749 53.85 45.6999 52.5H54.9999C54.9162 57.9981 54.2321 63.4705 52.9599 68.82H53.0349ZM41.4999 49.5H24.9999C25.0705 44.0087 25.7394 38.5414 26.9949 33.195C29.2929 33.6714 31.6169 34.012 33.9549 34.215V36C33.9549 39.3137 36.6412 42 39.9549 42C40.7833 42 41.4549 42.6716 41.4549 43.5L41.4999 49.5ZM75.9999 49.5H57.9999C57.9999 47.79 57.8949 46.11 57.7749 44.475L61.4499 42H74.8299C75.4898 44.4504 75.8821 46.9651 75.9999 49.5ZM87.9999 36C87.9999 37.6569 86.6568 39 84.9999 39H60.9999C60.3399 39 61.6449 38.265 44.4999 49.695V43.5C44.4999 41.0147 42.4852 39 39.9999 39C38.3431 39 36.9999 37.6569 36.9999 36V6C36.9999 4.34315 38.3431 3 39.9999 3H84.9999C86.6568 3 87.9999 4.34315 87.9999 6V36Z" fill="#5344DB"/>
</svg>
