<svg width="90" height="90" viewBox="0 0 90 90" fill="none" xmlns="http://www.w3.org/2000/svg">
<path d="M51.25 61.5V88.5H63.3089V76.5H72.353V88.5H84.4119V61.5L67.831 45L51.25 61.5ZM63.3089 70.5H57.2794V64.5H63.3089V70.5ZM72.353 64.5H78.3825V70.5H72.353V64.5Z" fill="#04A0FE"/>
<path d="M43.7134 13.5H55.7723L43.7134 1.5V13.5Z" fill="#04A0FE"/>
<path d="M15.3599 75.3179L30.4335 49.3374L35.6503 52.3345L20.576 78.3149L15.3599 75.3179Z" fill="#04A0FE"/>
<path d="M67.8312 39.6211L87.8685 59.5605L90 57.4394L68.897 36.4394C68.3081 35.8542 67.3543 35.8542 66.7655 36.4394L57.2797 45.8789V13.5H57.2664C57.2709 13.1038 57.117 12.7222 56.8381 12.4395L44.7792 0.439453C44.4951 0.162598 44.1116 0.00952147 43.7134 0.0146484V0H1.50736C0.674926 0 0 0.671631 0 1.5V88.5C0 89.3284 0.674926 90 1.50736 90H84.4122C85.2446 90 85.9195 89.3284 85.9195 88.5V65.1211L87.8685 67.0605L90 64.9394L68.897 43.9394C68.3081 43.3542 67.3543 43.3542 66.7655 43.9394L45.6624 64.9394L47.7939 67.0605L49.7429 65.1211V87H3.01472V3H42.2061V13.5C42.2061 14.3284 42.881 15 43.7134 15H54.265V48.8789L45.6624 57.4394L47.7939 59.5605L67.8312 39.6211ZM70.8459 87H64.8165V78H70.8459V87ZM67.8312 47.1211L82.9048 62.1211V87H73.8606V76.5C73.8606 75.6716 73.1857 75 72.3533 75H63.3091C62.4767 75 61.8018 75.6716 61.8018 76.5V87H52.7576V62.1211L67.8312 47.1211ZM45.2208 12V5.12109L52.1335 12H45.2208Z" fill="#5344DB"/>
<path d="M57.2798 72H63.3093C64.1417 72 64.8166 71.3284 64.8166 70.5V64.5C64.8166 63.6716 64.1417 63 63.3093 63H57.2798C56.4474 63 55.7725 63.6716 55.7725 64.5V70.5C55.7725 71.3284 56.4474 72 57.2798 72ZM58.7872 66H61.8019V69H58.7872V66Z" fill="#5344DB"/>
<path d="M72.3531 72H78.3825C79.2149 72 79.8899 71.3284 79.8899 70.5V64.5C79.8899 63.6716 79.2149 63 78.3825 63H72.3531C71.5206 63 70.8457 63.6716 70.8457 64.5V70.5C70.8457 71.3284 71.5206 72 72.3531 72ZM73.8604 66H76.8751V69H73.8604V66Z" fill="#5344DB"/>
<path d="M9.04395 12H36.1764V15H9.04395V12Z" fill="#5344DB"/>
<path d="M9.04395 21H12.0587V24H9.04395V21Z" fill="#5344DB"/>
<path d="M15.0737 21H21.1032V24H15.0737V21Z" fill="#5344DB"/>
<path d="M24.1177 21H48.2354V24H24.1177V21Z" fill="#5344DB"/>
<path d="M9.04395 30H48.2353V33H9.04395V30Z" fill="#5344DB"/>
<path d="M9.04395 39H15.0734V42H9.04395V39Z" fill="#5344DB"/>
<path d="M18.0884 39H24.1178V42H18.0884V39Z" fill="#5344DB"/>
<path d="M27.1323 39H33.1618V42H27.1323V39Z" fill="#5344DB"/>
<path d="M36.1768 39H42.2062V42H36.1768V39Z" fill="#5344DB"/>
<path d="M45.2207 39H48.2354V42H45.2207V39Z" fill="#5344DB"/>
<path d="M33.5358 64.9811L36.1465 66.4811L42.1759 56.0895C42.3761 55.7445 42.4306 55.3351 42.3275 54.9505C42.2238 54.566 41.9706 54.2379 41.6239 54.0387L37.7054 51.7887L38.459 50.4901C39.7073 48.336 38.9654 45.5821 36.8008 44.3399C34.6362 43.097 31.8695 43.836 30.6205 45.9901L29.1131 48.588L14.0395 74.5677C13.96 74.7083 13.9026 74.86 13.8695 75.0182L11.9566 84.3177C11.8263 84.9505 12.117 85.5951 12.6794 85.9181C13.2409 86.2411 13.9475 86.1693 14.4333 85.7416L21.566 79.4413C21.6867 79.3351 21.7883 79.2091 21.867 79.0692L36.187 54.388L38.7976 55.888L33.5358 64.9811ZM34.1556 46.8001C34.7444 46.6427 35.3707 46.8543 35.7417 47.3355C36.1126 47.8167 36.1561 48.4737 35.8513 48.9989L35.0977 50.296L32.4885 48.796L33.2422 47.4974C33.4402 47.1524 33.7692 46.9012 34.1556 46.8001ZM16.4124 77.6593L18.0103 78.5792L15.8273 80.5047L16.4124 77.6593ZM20.0299 76.2706L17.4208 74.7706L30.987 51.388L33.5962 52.888L20.0299 76.2706Z" fill="#5344DB"/>
</svg>
