<svg width="90" height="90" viewBox="0 0 90 90" fill="none" xmlns="http://www.w3.org/2000/svg">
<path d="M51 61.2605V88.098H63V76.1703H72V88.098H84V61.2605L67.5 44.8599L51 61.2605ZM63 70.2064H57V64.2425H63V70.2064ZM72 64.2425H78V70.2064H72V64.2425Z" fill="#04A0FE"/>
<path d="M43.5 13.5498H55.5L43.5 1.62207V13.5498Z" fill="#04A0FE"/>
<path d="M15.2852 74.9955L30.2852 49.1714L35.4766 52.1504L20.4758 77.9745L15.2852 74.9955Z" fill="#04A0FE"/>
<path d="M67.5 39.5135L87.4395 59.3329L89.5605 57.2246L68.5605 36.351C67.9746 35.7693 67.0254 35.7693 66.4395 36.351L57 45.7336V13.5496H56.9868C56.9912 13.1557 56.8381 12.7764 56.5605 12.4954L44.5605 0.567667C44.2778 0.292478 43.8962 0.140324 43.5 0.14542V0.130859H1.5C0.671631 0.130859 0 0.798447 0 1.62183V88.0981C0 88.9215 0.671631 89.5891 1.5 89.5891H84C84.8284 89.5891 85.5 88.9215 85.5 88.0981V64.86L87.4395 66.7877L89.5605 64.6794L68.5605 43.8058C67.9746 43.2241 67.0254 43.2241 66.4395 43.8058L45.4395 64.6794L47.5605 66.7877L49.5 64.86V86.6072H3V3.1128H42V13.5496C42 14.373 42.6716 15.0406 43.5 15.0406H54V48.7155L45.4395 57.2246L47.5605 59.3329L67.5 39.5135ZM70.5 86.6072H64.5V77.6613H70.5V86.6072ZM67.5 46.9683L82.5 61.878V86.6072H73.5V76.1704C73.5 75.347 72.8284 74.6794 72 74.6794H63C62.1716 74.6794 61.5 75.347 61.5 76.1704V86.6072H52.5V61.878L67.5 46.9683ZM45 12.0586V5.22113L51.8789 12.0586H45Z" fill="#5344DB"/>
<path d="M57 71.6974H63C63.8284 71.6974 64.5 71.0298 64.5 70.2064V64.2426C64.5 63.4192 63.8284 62.7516 63 62.7516H57C56.1716 62.7516 55.5 63.4192 55.5 64.2426V70.2064C55.5 71.0298 56.1716 71.6974 57 71.6974ZM58.5 65.7335H61.5V68.7155H58.5V65.7335Z" fill="#5344DB"/>
<path d="M72 71.6974H78C78.8284 71.6974 79.5 71.0298 79.5 70.2064V64.2426C79.5 63.4192 78.8284 62.7516 78 62.7516H72C71.1716 62.7516 70.5 63.4192 70.5 64.2426V70.2064C70.5 71.0298 71.1716 71.6974 72 71.6974ZM73.5 65.7335H76.5V68.7155H73.5V65.7335Z" fill="#5344DB"/>
<path d="M9 12.0586H36V15.0405H9V12.0586Z" fill="#5344DB"/>
<path d="M9 21.0044H12V23.9863H9V21.0044Z" fill="#5344DB"/>
<path d="M15 21.0044H21V23.9863H15V21.0044Z" fill="#5344DB"/>
<path d="M24 21.0044H48V23.9863H24V21.0044Z" fill="#5344DB"/>
<path d="M9 29.9503H48V32.9323H9V29.9503Z" fill="#5344DB"/>
<path d="M9 38.8961H15V41.8781H9V38.8961Z" fill="#5344DB"/>
<path d="M18 38.8961H24V41.8781H18V38.8961Z" fill="#5344DB"/>
<path d="M27 38.8961H33V41.8781H27V38.8961Z" fill="#5344DB"/>
<path d="M36 38.8961H42V41.8781H36V38.8961Z" fill="#5344DB"/>
<path d="M45 38.8961H48V41.8781H45V38.8961Z" fill="#5344DB"/>
<path d="M33.3722 64.7209L35.9701 66.2118L41.9701 55.8828C42.1693 55.5399 42.2235 55.1329 42.121 54.7507C42.0177 54.3685 41.7658 54.0424 41.4208 53.8443L37.5214 51.6079L38.2714 50.3171C39.5136 48.176 38.7753 45.4387 36.6212 44.204C34.4672 42.9685 31.714 43.7031 30.4711 45.8442L28.9711 48.4265L13.9711 74.2498C13.892 74.3896 13.8349 74.5403 13.8019 74.6975L11.8983 83.9411C11.7687 84.5701 12.058 85.2108 12.6176 85.5318C13.1764 85.8529 13.8795 85.7815 14.3629 85.3564L21.4608 79.094C21.581 78.9884 21.682 78.8632 21.7604 78.7242L36.0104 54.1916L38.6083 55.6826L33.3722 64.7209ZM33.9889 46.6494C34.5749 46.4929 35.1981 46.7033 35.5673 47.1816C35.9364 47.6599 35.9796 48.3129 35.6764 48.8349L34.9264 50.1242L32.33 48.6332L33.08 47.3425C33.277 46.9996 33.6044 46.7498 33.9889 46.6494ZM16.3324 77.3228L17.9225 78.2371L15.7501 80.1511L16.3324 77.3228ZM19.9323 75.9424L17.3358 74.4515L30.8358 51.2097L33.4323 52.7006L19.9323 75.9424Z" fill="#5344DB"/>
</svg>
