<svg width="27" height="27" viewBox="0 0 27 27" fill="none" xmlns="http://www.w3.org/2000/svg">
<path d="M19.4979 0.708252H6.62705C3.01357 0.708252 0.0742188 3.64801 0.0742188 7.26109V20.132C0.0742188 23.7455 3.01357 26.6844 6.62705 26.6844H19.4979C23.1114 26.6844 26.0504 23.7455 26.0504 20.132V7.26109C26.0504 3.64801 23.1114 0.708252 19.4979 0.708252ZM23.2238 20.132C23.2238 22.1866 21.5522 23.8582 19.4979 23.8582H6.62705C4.57285 23.8582 2.90122 22.1866 2.90122 20.132V7.26109C2.90122 5.20688 4.57285 3.53565 6.62705 3.53565H19.4979C21.5522 3.53565 23.2238 5.20688 23.2238 7.26109V20.132Z" fill="white"/>
<path d="M19.9677 8.38979C19.0947 8.38979 18.3843 7.67982 18.3843 6.80676C18.3843 5.93409 19.0947 5.22412 19.9677 5.22412C20.8408 5.22412 21.5508 5.93409 21.5508 6.80676C21.5508 7.67982 20.8408 8.38979 19.9677 8.38979Z" fill="white"/>
<path d="M13.0618 7.00659C9.37344 7.00659 6.37207 10.0076 6.37207 13.6963C6.37207 17.3851 9.37344 20.3865 13.0618 20.3865C16.751 20.3865 19.7524 17.3851 19.7524 13.6963C19.7524 10.008 16.751 7.00659 13.0618 7.00659ZM13.0618 17.5603C10.9327 17.5603 9.19867 15.8267 9.19867 13.6963C9.19867 11.5668 10.9327 9.83399 13.0618 9.83399C15.1921 9.83399 16.925 11.5668 16.925 13.6963C16.925 15.8267 15.1921 17.5603 13.0618 17.5603Z" fill="white"/>
</svg>
