<svg width="27" height="26" viewBox="0 0 27 26" fill="none" xmlns="http://www.w3.org/2000/svg">
<path d="M19.4979 0.00390625H6.62705C3.01357 0.00390625 0.0742188 2.94366 0.0742188 6.55674V19.4276C0.0742188 23.0411 3.01357 25.9801 6.62705 25.9801H19.4979C23.1114 25.9801 26.0504 23.0411 26.0504 19.4276V6.55674C26.0504 2.94366 23.1114 0.00390625 19.4979 0.00390625ZM23.2238 19.4276C23.2238 21.4822 21.5522 23.1539 19.4979 23.1539H6.62705C4.57285 23.1539 2.90122 21.4822 2.90122 19.4276V6.55674C2.90122 4.50254 4.57285 2.83131 6.62705 2.83131H19.4979C21.5522 2.83131 23.2238 4.50254 23.2238 6.55674V19.4276Z" fill="#272448"/>
<path d="M19.9677 7.68569C19.0947 7.68569 18.3843 6.97572 18.3843 6.10265C18.3843 5.22999 19.0947 4.52002 19.9677 4.52002C20.8408 4.52002 21.5508 5.22999 21.5508 6.10265C21.5508 6.97572 20.8408 7.68569 19.9677 7.68569Z" fill="#272448"/>
<path d="M13.0618 6.30225C9.37344 6.30225 6.37207 9.30321 6.37207 12.992C6.37207 16.6808 9.37344 19.6822 13.0618 19.6822C16.751 19.6822 19.7524 16.6808 19.7524 12.992C19.7524 9.30362 16.751 6.30225 13.0618 6.30225ZM13.0618 16.856C10.9327 16.856 9.19867 15.1223 9.19867 12.992C9.19867 10.8625 10.9327 9.12965 13.0618 9.12965C15.1921 9.12965 16.925 10.8625 16.925 12.992C16.925 15.1223 15.1921 16.856 13.0618 16.856Z" fill="#272448"/>
</svg>
