<svg width="86" height="85" viewBox="0 0 86 85" fill="none" xmlns="http://www.w3.org/2000/svg">
<path d="M72.5312 37.0696C74.0846 37.0696 75.3438 35.8104 75.3438 34.2571C75.3438 32.7038 74.0846 31.4446 72.5312 31.4446C70.9779 31.4446 69.7188 32.7038 69.7188 34.2571C69.7188 35.8104 70.9779 37.0696 72.5312 37.0696Z" fill="#04A0FE"/>
<path d="M72.5312 48.3196C74.0846 48.3196 75.3438 47.0604 75.3438 45.5071C75.3438 43.9538 74.0846 42.6946 72.5312 42.6946C70.9779 42.6946 69.7188 43.9538 69.7188 45.5071C69.7188 47.0604 70.9779 48.3196 72.5312 48.3196Z" fill="#04A0FE"/>
<path d="M72.5312 25.3836V21.6008C72.529 20.8556 72.232 20.1415 71.705 19.6146C71.1781 19.0876 70.464 18.7906 69.7188 18.7883H64.0938C63.3485 18.7906 62.6344 19.0876 62.1075 19.6146C61.5805 20.1415 61.2835 20.8556 61.2812 21.6008V25.3836C64.9197 24.0899 68.8928 24.0899 72.5312 25.3836Z" fill="#04A0FE"/>
<path d="M61.2812 37.0696C62.8346 37.0696 64.0938 35.8104 64.0938 34.2571C64.0938 32.7038 62.8346 31.4446 61.2812 31.4446C59.7279 31.4446 58.4688 32.7038 58.4688 34.2571C58.4688 35.8104 59.7279 37.0696 61.2812 37.0696Z" fill="#04A0FE"/>
<path d="M80.9688 50.6258V77.8508C80.9688 79.3427 80.3761 80.7734 79.3212 81.8283C78.2663 82.8832 76.8356 83.4758 75.3438 83.4758H66.0484C64.7163 83.4774 63.4269 83.0062 62.4097 82.1461C61.3925 81.286 60.7135 80.0928 60.4937 78.779L57.4703 60.6243C55.7272 60.1074 54.1979 59.0407 53.1106 57.5835C52.0234 56.1262 51.4365 54.3565 51.4375 52.5383H35.9688C35.9698 54.3565 35.3828 56.1262 34.2956 57.5835C33.2084 59.0407 31.6791 60.1074 29.9359 60.6243L26.9125 78.779C26.6927 80.0928 26.0138 81.286 24.9966 82.1461C23.9794 83.0062 22.6899 83.4774 21.3578 83.4758H12.0625C10.5707 83.4758 9.13992 82.8832 8.08502 81.8283C7.03013 80.7734 6.4375 79.3427 6.4375 77.8508V52.454C8.02039 54.2501 9.96788 55.6884 12.1502 56.6728C14.3326 57.6573 16.6996 58.1654 19.0938 58.1633C19.7754 58.1641 20.4565 58.1218 21.1328 58.0368C19.7957 56.4853 19.0708 54.4992 19.0941 52.4511C19.1174 50.4031 19.8873 48.434 21.2594 46.9133H16.2812V41.2883H10.6562V35.6633H16.2812V30.0383H21.9062V35.6633H27.5312V41.2883H21.9062V46.2665C22.8109 45.4501 23.8821 44.8402 25.0458 44.479C26.2095 44.1177 27.4378 44.0137 28.6456 44.1742C29.8535 44.3348 31.012 44.7559 32.041 45.4086C33.0699 46.0612 33.9447 46.9297 34.6047 47.954C35.8692 44.9983 36.2656 41.7436 35.7476 38.5708C35.2296 35.398 33.8186 32.4383 31.6797 30.0383H54.3203C52.0057 32.632 50.5476 35.8766 50.145 39.3295C49.7423 42.7824 50.4147 46.2754 52.0703 49.3321C52.8129 47.5244 54.1598 46.0306 55.8813 45.1056C57.6027 44.1806 59.5918 43.8818 61.509 44.2603C63.4263 44.6388 65.1527 45.671 66.3935 47.1807C67.6343 48.6905 68.3126 50.5841 68.3125 52.5383C68.3205 54.6048 67.5584 56.6001 66.175 58.1352C66.418 58.1586 66.6622 58.168 66.9062 58.1633C69.6901 58.1644 72.431 57.4767 74.8846 56.1615C77.3382 54.8464 79.4284 52.9447 80.9688 50.6258Z" fill="#04A0FE"/>
<path d="M13.4688 25.3836C17.1072 24.0899 21.0803 24.0899 24.7188 25.3836V21.6008C24.7165 20.8556 24.4195 20.1415 23.8925 19.6146C23.3656 19.0876 22.6515 18.7906 21.9062 18.7883H16.2812C15.536 18.7906 14.8219 19.0876 14.295 19.6146C13.768 20.1415 13.471 20.8556 13.4688 21.6008V25.3836Z" fill="#04A0FE"/>
<path d="M73.9373 24.4133V21.6008C73.934 20.483 73.4885 19.4119 72.698 18.6214C71.9076 17.831 70.8365 17.3854 69.7186 17.3821H64.0936C62.9757 17.3854 61.9046 17.831 61.1142 18.6214C60.3237 19.4119 59.8782 20.483 59.8749 21.6008V24.4133C57.5677 25.392 55.4821 26.827 53.7436 28.6321H48.6249V27.2258C48.6215 26.108 48.176 25.0369 47.3855 24.2464C46.5951 23.456 45.524 23.0104 44.4061 23.0071H41.5936C40.4757 23.0104 39.4046 23.456 38.6142 24.2464C37.8237 25.0369 37.3782 26.108 37.3749 27.2258V28.6321H32.2561C30.5176 26.827 28.432 25.392 26.1248 24.4133V21.6008C26.1215 20.483 25.676 19.4119 24.8855 18.6214C24.0951 17.831 23.024 17.3854 21.9061 17.3821H16.2811C15.1632 17.3854 14.0921 17.831 13.3017 18.6214C12.5112 19.4119 12.0657 20.483 12.0624 21.6008V24.4133C9.4224 25.5108 7.07705 27.2129 5.21518 29.3825C3.3533 31.5521 2.02692 34.1286 1.34286 36.9045C0.658791 39.6804 0.636154 42.5782 1.27677 45.3645C1.91738 48.1508 3.20334 50.7477 5.0311 52.9461V77.8508C5.0311 79.7156 5.77189 81.5041 7.09051 82.8227C8.40912 84.1413 10.1975 84.8821 12.0624 84.8821H21.3577C23.0237 84.8876 24.6371 84.2987 25.9078 83.2212C27.1786 82.1438 28.0234 80.6485 28.2905 79.004L31.1874 61.6649C32.7873 61.0227 34.1906 59.9716 35.2568 58.6167C36.3229 57.2619 37.0145 55.6507 37.2623 53.9446H50.1436C50.3914 55.6507 51.083 57.2619 52.1492 58.6167C53.2153 59.9716 54.6186 61.0227 56.2186 61.6649L59.1155 79.004C59.3825 80.6485 60.2274 82.1438 61.4981 83.2212C62.7689 84.2987 64.3823 84.8876 66.0483 84.8821H75.3436C77.2084 84.8821 78.9968 84.1413 80.3154 82.8227C81.6341 81.5041 82.3748 79.7156 82.3748 77.8508V51.0196C83.7917 48.7712 84.7009 46.2408 85.0391 43.6048C85.3773 40.9689 85.1363 38.2909 84.333 35.7576C83.5296 33.2244 82.1832 30.8969 80.3878 28.9376C78.5923 26.9783 76.391 25.4343 73.9373 24.4133ZM62.6874 21.6008C62.6874 21.2279 62.8355 20.8702 63.0992 20.6065C63.363 20.3427 63.7206 20.1946 64.0936 20.1946H69.7186C70.0916 20.1946 70.4492 20.3427 70.713 20.6065C70.9767 20.8702 71.1248 21.2279 71.1248 21.6008V23.5133C68.3529 22.8383 65.4594 22.8383 62.6874 23.5133V21.6008ZM40.1874 27.2258C40.1874 26.8529 40.3355 26.4952 40.5992 26.2315C40.863 25.9677 41.2206 25.8196 41.5936 25.8196H44.4061C44.7791 25.8196 45.1367 25.9677 45.4005 26.2315C45.6642 26.4952 45.8124 26.8529 45.8124 27.2258V28.6321H40.1874V27.2258ZM14.8749 21.6008C14.8749 21.2279 15.023 20.8702 15.2867 20.6065C15.5505 20.3427 15.9081 20.1946 16.2811 20.1946H21.9061C22.2791 20.1946 22.6367 20.3427 22.9005 20.6065C23.1642 20.8702 23.3124 21.2279 23.3124 21.6008V23.5133C20.5404 22.8383 17.6469 22.8383 14.8749 23.5133V21.6008ZM25.5202 78.5399C25.3601 79.5274 24.853 80.4255 24.09 81.0725C23.3269 81.7195 22.3581 82.0731 21.3577 82.0696H12.0624C10.9445 82.0662 9.87338 81.6207 9.08293 80.8302C8.29249 80.0398 7.84694 78.9687 7.8436 77.8508V55.6743C11.0553 58.1891 15.0145 59.56 19.0936 59.5696C19.5858 59.5696 20.078 59.5133 20.5561 59.4852C21.4703 60.404 22.5573 61.133 23.7543 61.6302C24.9514 62.1273 26.2349 62.3829 27.5311 62.3821C27.7702 62.3821 27.9952 62.368 28.2202 62.354L25.5202 78.5399ZM16.2811 39.8821H12.0624V37.0696H16.2811C16.6541 37.0696 17.0117 36.9214 17.2755 36.6577C17.5392 36.394 17.6874 36.0363 17.6874 35.6633V31.4446H20.4999V35.6633C20.4999 36.0363 20.648 36.394 20.9117 36.6577C21.1755 36.9214 21.5331 37.0696 21.9061 37.0696H26.1248V39.8821H21.9061C21.5331 39.8821 21.1755 40.0302 20.9117 40.294C20.648 40.5577 20.4999 40.9154 20.4999 41.2883V45.5071H17.6874V41.2883C17.6874 40.9154 17.5392 40.5577 17.2755 40.294C17.0117 40.0302 16.6541 39.8821 16.2811 39.8821ZM27.5311 59.5696C26.1404 59.5696 24.781 59.1572 23.6247 58.3846C22.4685 57.612 21.5673 56.5139 21.0351 55.2291C20.5029 53.9443 20.3637 52.5305 20.635 51.1666C20.9063 49.8027 21.5759 48.5498 22.5593 47.5665C23.5426 46.5831 24.7954 45.9135 26.1594 45.6422C27.5233 45.3709 28.937 45.5101 30.2218 46.0423C31.5066 46.5745 32.6048 47.4757 33.3774 48.632C34.15 49.7883 34.5624 51.1477 34.5624 52.5383C34.5624 54.4031 33.8216 56.1916 32.5029 57.5102C31.1843 58.8288 29.3959 59.5696 27.5311 59.5696ZM34.0561 45.1836C32.2609 43.5803 29.9381 42.6942 27.5311 42.6946C26.0696 42.6954 24.6273 43.0272 23.3124 43.6649V42.6946H27.5311C27.9041 42.6946 28.2617 42.5464 28.5255 42.2827C28.7892 42.019 28.9373 41.6613 28.9373 41.2883V35.6633C28.9373 35.2904 28.7892 34.9327 28.5255 34.669C28.2617 34.4052 27.9041 34.2571 27.5311 34.2571H23.3124V30.0383C23.3124 29.6654 23.1642 29.3077 22.9005 29.044C22.6367 28.7802 22.2791 28.6321 21.9061 28.6321H16.2811C15.9081 28.6321 15.5505 28.7802 15.2867 29.044C15.023 29.3077 14.8749 29.6654 14.8749 30.0383V34.2571H10.6561C10.2831 34.2571 9.92546 34.4052 9.66173 34.669C9.39801 34.9327 9.24985 35.2904 9.24985 35.6633V41.2883C9.24985 41.6613 9.39801 42.019 9.66173 42.2827C9.92546 42.5464 10.2831 42.6946 10.6561 42.6946H14.8749V46.9133C14.8749 47.2863 15.023 47.644 15.2867 47.9077C15.5505 48.1714 15.9081 48.3196 16.2811 48.3196H18.6577C18.0215 49.6295 17.6898 51.0664 17.6873 52.5227C17.6849 53.9789 18.0118 55.4169 18.6436 56.729C15.607 56.6383 12.6644 55.6548 10.1834 53.9014C7.70252 52.148 5.79329 49.7025 4.69427 46.8702C3.59525 44.038 3.35518 40.9447 4.00405 37.9768C4.65292 35.0089 6.16197 32.2981 8.34265 30.1829C10.5233 28.0677 13.279 26.642 16.2652 26.0839C19.2515 25.5258 22.3361 25.8601 25.1335 27.0449C27.9309 28.2298 30.3171 30.2127 31.9941 32.7459C33.671 35.2791 34.5643 38.2503 34.5624 41.2883C34.5578 42.6029 34.3877 43.9116 34.0561 45.1836ZM50.1436 51.1321H37.2623C37.0976 49.9629 36.7212 48.8335 36.1514 47.7993C36.9607 45.7239 37.3756 43.5158 37.3749 41.2883C37.3775 37.7966 36.3716 34.3783 34.478 31.4446H51.5217C49.6281 34.3783 48.6222 37.7966 48.6249 41.2883C48.6365 44.1049 49.2957 46.8812 50.5514 49.4024C50.3644 49.9657 50.2279 50.5446 50.1436 51.1321ZM52.8436 52.5383C52.8436 51.1477 53.256 49.7883 54.0286 48.632C54.8012 47.4757 55.8993 46.5745 57.1841 46.0423C58.4689 45.5101 59.8827 45.3709 61.2466 45.6422C62.6105 45.9135 63.8634 46.5831 64.8467 47.5665C65.83 48.5498 66.4997 49.8027 66.771 51.1666C67.0423 52.5305 66.9031 53.9443 66.3709 55.2291C65.8387 56.5139 64.9375 57.612 63.7812 58.3846C62.6249 59.1572 61.2655 59.5696 59.8749 59.5696C58.01 59.5696 56.2216 58.8288 54.903 57.5102C53.5844 56.1916 52.8436 54.4031 52.8436 52.5383ZM79.5623 77.8508C79.559 78.9687 79.1135 80.0398 78.323 80.8302C77.5326 81.6207 76.4615 82.0662 75.3436 82.0696H66.0483C65.0479 82.0731 64.079 81.7195 63.316 81.0725C62.553 80.4255 62.0458 79.5274 61.8858 78.5399L59.1858 62.354C59.4108 62.368 59.6358 62.3821 59.8749 62.3821C62.4464 62.3788 64.9146 61.3693 66.7514 59.5696H66.9061C71.6288 59.5682 76.1665 57.7329 79.5623 54.4508V77.8508ZM79.8014 49.8524C78.5666 51.7075 76.9464 53.2746 75.051 54.4467C73.1557 55.6189 71.0299 56.3685 68.8186 56.6446C69.8092 54.4732 69.9772 52.0159 69.2914 49.73C68.6055 47.444 67.1125 45.4851 65.0902 44.2177C63.0679 42.9503 60.654 42.4608 58.2977 42.8403C55.9415 43.2197 53.8033 44.4423 52.2811 46.2805C51.7327 44.6728 51.4477 42.987 51.4374 41.2883C51.4405 38.8763 52.0078 36.4984 53.0937 34.3446C54.1796 32.1909 55.7542 30.3209 57.6915 28.8841C59.6289 27.4472 61.8755 26.4834 64.2518 26.0695C66.628 25.6556 69.0682 25.8031 71.3773 26.5003C73.6863 27.1975 75.8004 28.425 77.5506 30.0848C79.3007 31.7446 80.6385 33.7907 81.457 36.0596C82.2755 38.3286 82.5521 40.7575 82.2646 43.1523C81.9771 45.5472 81.1336 47.8416 79.8014 49.8524Z" fill="#5344DB"/>
<path d="M27.5312 48.3196V51.1321C27.9042 51.1321 28.2619 51.2802 28.5256 51.544C28.7893 51.8077 28.9375 52.1654 28.9375 52.5383H31.75C31.75 51.4194 31.3055 50.3464 30.5144 49.5552C29.7232 48.7641 28.6501 48.3196 27.5312 48.3196Z" fill="#5344DB"/>
<path d="M10.6562 63.7883H13.4688V76.4446H10.6562V63.7883Z" fill="#5344DB"/>
<path d="M73.9375 62.3821H76.75V76.4446H73.9375V62.3821Z" fill="#5344DB"/>
<path d="M59.875 48.3196C58.7561 48.3196 57.6831 48.7641 56.8919 49.5552C56.1007 50.3464 55.6562 51.4194 55.6562 52.5383H58.4688C58.4688 52.1654 58.6169 51.8077 58.8806 51.544C59.1444 51.2802 59.502 51.1321 59.875 51.1321V48.3196Z" fill="#5344DB"/>
<path d="M66.9061 3.31953C68.5687 3.31565 70.2155 3.64138 71.7514 4.27788C73.2872 4.91439 74.6817 5.84905 75.8541 7.02781L77.8425 5.03937C76.4068 3.60246 74.7019 2.46257 72.8254 1.68485C70.9488 0.907133 68.9374 0.506836 66.9061 0.506836C64.8748 0.506836 62.8634 0.907133 60.9869 1.68485C59.1104 2.46257 57.4055 3.60246 55.9697 5.03937L57.9582 7.02781C59.1306 5.84905 60.525 4.91439 62.0609 4.27788C63.5968 3.64138 65.2436 3.31565 66.9061 3.31953Z" fill="#5344DB"/>
<path d="M73.8687 9.02325C72.9556 8.10722 71.8707 7.38041 70.6762 6.8845C69.4817 6.38858 68.2011 6.1333 66.9077 6.1333C65.6144 6.1333 64.3337 6.38858 63.1392 6.8845C61.9447 7.38041 60.8598 8.10722 59.9468 9.02325L61.9422 11.0033C62.5937 10.3507 63.3675 9.83294 64.2193 9.4797C65.0711 9.12646 65.9842 8.94463 66.9063 8.94463C67.8284 8.94463 68.7415 9.12646 69.5933 9.4797C70.4451 9.83294 71.2189 10.3507 71.8704 11.0033L73.8687 9.02325Z" fill="#5344DB"/>
<path d="M63.9165 13.0128L65.9303 14.9731C66.1938 14.7234 66.5431 14.5842 66.9062 14.5842C67.2693 14.5842 67.6186 14.7234 67.8821 14.9731L69.8959 13.0128C69.096 12.2332 68.0232 11.7969 66.9062 11.7969C65.7892 11.7969 64.7164 12.2332 63.9165 13.0128Z" fill="#5344DB"/>
<path d="M19.0936 3.31953C20.7562 3.31565 22.403 3.64138 23.9389 4.27788C25.4747 4.91439 26.8692 5.84905 28.0416 7.02781L30.03 5.03937C28.5943 3.60246 26.8894 2.46257 25.0129 1.68485C23.1363 0.907133 21.1249 0.506836 19.0936 0.506836C17.0623 0.506836 15.0509 0.907133 13.1744 1.68485C11.2979 2.46257 9.59301 3.60246 8.15723 5.03937L10.1457 7.02781C11.3181 5.84905 12.7125 4.91439 14.2484 4.27788C15.7843 3.64138 17.4311 3.31565 19.0936 3.31953Z" fill="#5344DB"/>
<path d="M26.0561 9.02325C25.1431 8.10722 24.0582 7.38041 22.8637 6.8845C21.6692 6.38858 20.3886 6.1333 19.0952 6.1333C17.8019 6.1333 16.5212 6.38858 15.3267 6.8845C14.1322 7.38041 13.0473 8.10722 12.1343 9.02325L14.1297 11.0033C14.7812 10.3507 15.555 9.83294 16.4068 9.4797C17.2586 9.12646 18.1717 8.94463 19.0938 8.94463C20.0159 8.94463 20.929 9.12646 21.7808 9.4797C22.6326 9.83294 23.4064 10.3507 24.0579 11.0033L26.0561 9.02325Z" fill="#5344DB"/>
<path d="M16.104 13.0128L18.1178 14.9731C18.3813 14.7234 18.7306 14.5842 19.0937 14.5842C19.4568 14.5842 19.8061 14.7234 20.0696 14.9731L22.0834 13.0128C21.2835 12.2332 20.2107 11.7969 19.0937 11.7969C17.9767 11.7969 16.9039 12.2332 16.104 13.0128Z" fill="#5344DB"/>
<path d="M61.2813 38.4758C62.1156 38.4758 62.9313 38.2284 63.6251 37.7648C64.3188 37.3013 64.8596 36.6424 65.1789 35.8715C65.4982 35.1007 65.5817 34.2524 65.4189 33.434C65.2562 32.6157 64.8544 31.864 64.2644 31.274C63.6744 30.684 62.9226 30.2822 62.1043 30.1194C61.2859 29.9566 60.4377 30.0402 59.6668 30.3595C58.8959 30.6788 58.2371 31.2195 57.7735 31.9133C57.3099 32.607 57.0625 33.4227 57.0625 34.2571C57.0625 35.376 57.507 36.449 58.2981 37.2402C59.0893 38.0314 60.1624 38.4758 61.2813 38.4758ZM61.2813 32.8508C61.5594 32.8508 61.8313 32.9333 62.0625 33.0878C62.2938 33.2423 62.474 33.462 62.5805 33.7189C62.6869 33.9759 62.7147 34.2586 62.6605 34.5314C62.6062 34.8042 62.4723 35.0548 62.2756 35.2515C62.079 35.4481 61.8284 35.582 61.5556 35.6363C61.2828 35.6906 61.0001 35.6627 60.7431 35.5563C60.4861 35.4499 60.2665 35.2696 60.112 35.0384C59.9575 34.8071 59.875 34.5352 59.875 34.2571C59.875 33.8841 60.0232 33.5264 60.2869 33.2627C60.5506 32.999 60.9083 32.8508 61.2813 32.8508Z" fill="#5344DB"/>
<path d="M72.5313 38.4758C73.3656 38.4758 74.1813 38.2284 74.8751 37.7648C75.5688 37.3013 76.1096 36.6424 76.4289 35.8715C76.7482 35.1007 76.8317 34.2524 76.6689 33.434C76.5062 32.6157 76.1044 31.864 75.5144 31.274C74.9244 30.684 74.1726 30.2822 73.3543 30.1194C72.5359 29.9566 71.6877 30.0402 70.9168 30.3595C70.1459 30.6788 69.4871 31.2195 69.0235 31.9133C68.5599 32.607 68.3125 33.4227 68.3125 34.2571C68.3125 35.376 68.757 36.449 69.5481 37.2402C70.3393 38.0314 71.4124 38.4758 72.5313 38.4758ZM72.5313 32.8508C72.8094 32.8508 73.0813 32.9333 73.3125 33.0878C73.5438 33.2423 73.724 33.462 73.8305 33.7189C73.9369 33.9759 73.9647 34.2586 73.9105 34.5314C73.8562 34.8042 73.7223 35.0548 73.5256 35.2515C73.329 35.4481 73.0784 35.582 72.8056 35.6363C72.5328 35.6906 72.2501 35.6627 71.9931 35.5563C71.7361 35.4499 71.5165 35.2696 71.362 35.0384C71.2075 34.8071 71.125 34.5352 71.125 34.2571C71.125 33.8841 71.2732 33.5264 71.5369 33.2627C71.8006 32.999 72.1583 32.8508 72.5313 32.8508Z" fill="#5344DB"/>
<path d="M72.5313 49.7258C73.3656 49.7258 74.1813 49.4784 74.8751 49.0149C75.5688 48.5513 76.1096 47.8924 76.4289 47.1215C76.7482 46.3507 76.8317 45.5024 76.6689 44.6841C76.5062 43.8657 76.1044 43.114 75.5144 42.524C74.9244 41.934 74.1726 41.5322 73.3543 41.3694C72.5359 41.2066 71.6877 41.2902 70.9168 41.6095C70.1459 41.9288 69.4871 42.4695 69.0235 43.1633C68.5599 43.857 68.3125 44.6727 68.3125 45.5071C68.3125 46.626 68.757 47.699 69.5481 48.4902C70.3393 49.2814 71.4124 49.7258 72.5313 49.7258ZM72.5313 44.1008C72.8094 44.1008 73.0813 44.1833 73.3125 44.3378C73.5438 44.4924 73.724 44.712 73.8305 44.9689C73.9369 45.2259 73.9647 45.5086 73.9105 45.7814C73.8562 46.0542 73.7223 46.3048 73.5256 46.5015C73.329 46.6981 73.0784 46.8321 72.8056 46.8863C72.5328 46.9406 72.2501 46.9127 71.9931 46.8063C71.7361 46.6999 71.5165 46.5196 71.362 46.2884C71.2075 46.0571 71.125 45.7852 71.125 45.5071C71.125 45.1341 71.2732 44.7764 71.5369 44.5127C71.8006 44.249 72.1583 44.1008 72.5313 44.1008Z" fill="#5344DB"/>
</svg>
