<svg width="27" height="26" viewBox="0 0 27 26" fill="none" xmlns="http://www.w3.org/2000/svg">
<path d="M0.40332 8.65234H5.97097V25.4027H0.40332V8.65234Z" fill="#272448"/>
<path d="M3.15055 6.36613H3.18728C5.12961 6.36613 6.33741 5.0794 6.33741 3.47116C6.30068 1.82747 5.12961 0.577148 3.22368 0.577148C1.31808 0.577148 0.0722656 1.82747 0.0722656 3.47116C0.0722656 5.0794 1.28296 6.36613 3.15055 6.36613Z" fill="#272448"/>
<path d="M14.6207 25.4025V16.0474C14.6207 15.5455 14.659 15.0481 14.8056 14.6902C15.2086 13.6882 16.1233 12.6538 17.6626 12.6538C19.678 12.6538 20.4828 14.1902 20.4828 16.4408V25.4021H26.0517V15.7968C26.0517 10.6522 23.3046 8.25879 19.64 8.25879C16.6816 8.25879 15.3607 9.88701 14.6207 11.0255V11.0803H14.5843C14.594 11.0623 14.6097 11.0439 14.6207 11.0255V8.65215H9.05078C9.12552 10.2234 9.05078 25.4021 9.05078 25.4021H14.6207V25.4025Z" fill="#272448"/>
</svg>
