<svg width="27" height="26" viewBox="0 0 27 26" fill="none" xmlns="http://www.w3.org/2000/svg">
<path d="M0.40332 8.35669H5.97097V25.107H0.40332V8.35669Z" fill="white"/>
<path d="M3.15055 6.07072H3.18728C5.12961 6.07072 6.33741 4.78399 6.33741 3.17575C6.30068 1.53206 5.12961 0.281738 3.22368 0.281738C1.31808 0.281738 0.0722656 1.53206 0.0722656 3.17575C0.0722656 4.78399 1.28296 6.07072 3.15055 6.07072Z" fill="white"/>
<path d="M14.6207 25.1071V15.752C14.6207 15.2501 14.659 14.7527 14.8056 14.3948C15.2086 13.3928 16.1233 12.3584 17.6626 12.3584C19.678 12.3584 20.4828 13.8948 20.4828 16.1454V25.1067H26.0517V15.5014C26.0517 10.3567 23.3046 7.96338 19.64 7.96338C16.6816 7.96338 15.3607 9.5916 14.6207 10.7301V10.7849H14.5843C14.594 10.7669 14.6097 10.7485 14.6207 10.7301V8.35674H9.05078C9.12552 9.92794 9.05078 25.1067 9.05078 25.1067H14.6207V25.1071Z" fill="white"/>
</svg>
