<svg width="74" height="85" viewBox="0 0 74 85" fill="none" xmlns="http://www.w3.org/2000/svg">
<path d="M53.875 18.6572H59.5V27.0947H53.875V18.6572Z" fill="#04A0FE"/>
<path d="M59.5 13.0322H53.875C53.875 11.5404 53.2824 10.1096 52.2275 9.05475C51.1726 7.99986 49.7418 7.40723 48.25 7.40723H25.75C24.2582 7.40723 22.8274 7.99986 21.7725 9.05475C20.7176 10.1096 20.125 11.5404 20.125 13.0322V27.0947H14.5V13.0322C14.5 10.0485 15.6853 7.18706 17.795 5.07728C19.9048 2.96749 22.7663 1.78223 25.75 1.78223H48.25C51.2337 1.78223 54.0952 2.96749 56.2049 5.07728C58.3147 7.18706 59.5 10.0485 59.5 13.0322Z" fill="#04A0FE"/>
<path d="M52.4688 41.1572V53.3775C52.4685 55.7292 51.9768 58.0548 51.0251 60.2053C50.0733 62.3558 48.6826 64.2836 46.9422 65.865L37 74.9072L27.0578 65.865C25.3174 64.2836 23.9267 62.3558 22.9749 60.2053C22.0232 58.0548 21.5315 55.7292 21.5312 53.3775V41.1572L37 35.5322L52.4688 41.1572Z" fill="#04A0FE"/>
<path d="M69.3438 25.6885H60.9062V13.0322C60.901 9.67718 59.5659 6.46104 57.1936 4.08866C54.8212 1.71628 51.605 0.381183 48.25 0.375977H25.75C22.395 0.381183 19.1788 1.71628 16.8064 4.08866C14.4341 6.46104 13.099 9.67718 13.0938 13.0322V25.6885H4.65625C3.53839 25.6918 2.46728 26.1374 1.67683 26.9278C0.886385 27.7183 0.440839 28.7894 0.4375 29.9072V80.5322C0.440839 81.6501 0.886385 82.7212 1.67683 83.5116C2.46728 84.3021 3.53839 84.7476 4.65625 84.751H69.3438C70.4616 84.7476 71.5327 84.3021 72.3232 83.5116C73.1136 82.7212 73.5592 81.6501 73.5625 80.5322V29.9072C73.5592 28.7894 73.1136 27.7183 72.3232 26.9278C71.5327 26.1374 70.4616 25.6918 69.3438 25.6885ZM55.2812 17.251V14.4385H58.0938V17.251H55.2812ZM58.0938 20.0635V25.6885H55.2812V20.0635H58.0938ZM15.9062 13.0322C15.9092 10.4224 16.9473 7.92035 18.7927 6.07493C20.6381 4.22952 23.1402 3.19145 25.75 3.18848H48.25C50.6151 3.19125 52.9001 4.04546 54.6871 5.59482C56.474 7.14419 57.6434 9.28514 57.9812 11.626H55.1406C54.8123 10.0399 53.9482 8.61504 52.6935 7.59075C51.4387 6.56647 49.8697 6.00512 48.25 6.00098H25.75C23.8852 6.00098 22.0968 6.74177 20.7782 8.06038C19.4595 9.379 18.7188 11.1674 18.7188 13.0322V25.6885H15.9062V13.0322ZM52.4688 13.0322V25.6885H21.5312V13.0322C21.5346 11.9144 21.9801 10.8433 22.7706 10.0528C23.561 9.26236 24.6321 8.81682 25.75 8.81348H48.25C49.3679 8.81682 50.439 9.26236 51.2294 10.0528C52.0199 10.8433 52.4654 11.9144 52.4688 13.0322ZM70.75 80.5322C70.75 80.9052 70.6018 81.2629 70.3381 81.5266C70.0744 81.7903 69.7167 81.9385 69.3438 81.9385H4.65625C4.28329 81.9385 3.9256 81.7903 3.66188 81.5266C3.39816 81.2629 3.25 80.9052 3.25 80.5322V29.9072C3.25 29.5343 3.39816 29.1766 3.66188 28.9129C3.9256 28.6491 4.28329 28.501 4.65625 28.501H69.3438C69.7167 28.501 70.0744 28.6491 70.3381 28.9129C70.6018 29.1766 70.75 29.5343 70.75 29.9072V80.5322Z" fill="#5344DB"/>
<path d="M52.9469 39.8354L37.4781 34.2104C37.1693 34.0978 36.8307 34.0978 36.5219 34.2104L21.0531 39.8354C20.7804 39.9322 20.5446 40.1115 20.3783 40.3483C20.212 40.5852 20.1235 40.8679 20.125 41.1573V53.3776C20.1267 55.924 20.659 58.4421 21.688 60.7713C22.7171 63.1005 24.2202 65.1897 26.1016 66.9057L36.0578 75.9479C36.3152 76.1832 36.6513 76.3136 37 76.3136C37.3487 76.3136 37.6848 76.1832 37.9422 75.9479L47.8985 66.9057C49.7798 65.1897 51.283 63.1005 52.312 60.7713C53.341 58.4421 53.8733 55.924 53.875 53.3776V41.1573C53.8765 40.8679 53.788 40.5852 53.6217 40.3483C53.4554 40.1115 53.2196 39.9322 52.9469 39.8354ZM51.0625 53.3776C51.061 55.5327 50.61 57.6639 49.7383 59.6348C48.8666 61.6058 47.5934 63.3733 46 64.8244L37 73.0088L28 64.8244C26.4066 63.3733 25.1334 61.6058 24.2617 59.6348C23.39 57.6639 22.939 55.5327 22.9375 53.3776V42.1416L37 37.0229L51.0625 42.1416V53.3776Z" fill="#5344DB"/>
<path d="M30.963 52.8193L28.9746 54.8078L34.5996 60.4328C34.8633 60.6964 35.2209 60.8445 35.5938 60.8445C35.9667 60.8445 36.3243 60.6964 36.588 60.4328L46.4318 50.589L44.4434 48.6006L35.5938 57.4501L30.963 52.8193Z" fill="#5344DB"/>
<path d="M6.0625 31.3135H8.875V34.126H6.0625V31.3135Z" fill="#5344DB"/>
<path d="M11.6875 31.3135H14.5V34.126H11.6875V31.3135Z" fill="#5344DB"/>
<path d="M17.3125 31.3135H20.125V34.126H17.3125V31.3135Z" fill="#5344DB"/>
<path d="M53.875 31.3135H56.6875V34.126H53.875V31.3135Z" fill="#5344DB"/>
<path d="M59.5 31.3135H62.3125V34.126H59.5V31.3135Z" fill="#5344DB"/>
<path d="M65.125 31.3135H67.9375V34.126H65.125V31.3135Z" fill="#5344DB"/>
<path d="M6.0625 76.3135H8.875V79.126H6.0625V76.3135Z" fill="#5344DB"/>
<path d="M11.6875 76.3135H14.5V79.126H11.6875V76.3135Z" fill="#5344DB"/>
<path d="M17.3125 76.3135H20.125V79.126H17.3125V76.3135Z" fill="#5344DB"/>
<path d="M53.875 76.3135H56.6875V79.126H53.875V76.3135Z" fill="#5344DB"/>
<path d="M59.5 76.3135H62.3125V79.126H59.5V76.3135Z" fill="#5344DB"/>
<path d="M65.125 76.3135H67.9375V79.126H65.125V76.3135Z" fill="#5344DB"/>
</svg>
