<svg width="79" height="91" viewBox="0 0 79 91" fill="none" xmlns="http://www.w3.org/2000/svg">
<path d="M15.5254 39.8333H21.0103V54.8308H27.0093V39.8333H32.4935L24.0098 31.3496L15.5254 39.8333Z" fill="#04A0FE"/>
<path d="M45.0064 54.8308V33.8343H50.4906L42.0069 25.3506L33.5225 33.8343H39.0074V54.8308H45.0064Z" fill="#04A0FE"/>
<path d="M63.0034 54.8308V27.8353H68.4876L60.004 19.3516L51.5195 27.8353H57.0045V54.8308H63.0034Z" fill="#04A0FE"/>
<path d="M75.6085 23.867C69.4594 10.6439 56.5621 1.85115 42.0069 0.957009L40.5387 0.825195L39.2381 0.858149C34.7476 1.02292 30.3473 2.16091 26.3401 4.19524C15.6873 9.52126 8.97288 20.4245 9.01243 32.3346V37.9184L0.228491 52.5592C-0.0497828 53.0221 -0.0578382 53.5991 0.208719 54.07C0.474544 54.5401 0.97324 54.8308 1.51368 54.8308H10.9032L9.99298 68.3484C9.29583 72.3482 11.9321 76.1693 15.9187 76.9375C16.0176 76.958 16.1179 76.9675 16.2183 76.9675C16.2724 76.9675 16.3259 76.9646 16.3794 76.9587L25.5097 75.9687V89.3251C25.5097 90.1541 26.1812 90.8248 27.0094 90.8248H63.0034C63.8317 90.8248 64.5032 90.1541 64.5032 89.3251V74.4206L76.2236 45.464C78.7999 38.453 78.5794 30.7199 75.6085 23.867ZM73.4204 44.3978L61.6128 73.5777C61.5308 73.7915 61.4993 74.0222 61.5213 74.25C61.5213 74.28 61.5037 74.3071 61.5037 74.3386V87.8253H28.5092V74.3276C28.5092 74.2961 28.4923 74.2697 28.4909 74.2383C28.4894 74.2068 28.5048 74.1716 28.5004 74.1372C28.4806 74.05 28.4535 73.9651 28.4191 73.8824C28.4037 73.8201 28.384 73.7586 28.3605 73.6978C28.299 73.566 28.2177 73.4437 28.1203 73.3353C28.1028 73.3141 28.094 73.2841 28.0742 73.2628C28.0544 73.2423 28.0515 73.2511 28.0427 73.2438C27.7293 72.9238 27.2884 72.7634 26.8432 72.8073L16.2878 73.9497C13.9591 73.3632 12.4982 71.0564 12.9625 68.7006L13.9972 53.4336C14.0558 52.609 13.4363 51.8921 12.6117 51.8313C12.4974 51.8313 4.1668 51.8313 4.1668 51.8313L11.8018 39.1018C11.8149 39.0703 11.8267 39.0388 11.8362 39.0058C11.8801 38.915 11.9138 38.8198 11.9365 38.7224C11.9673 38.6243 11.987 38.524 11.9965 38.4222C11.9965 38.3878 12.0163 38.3578 12.0163 38.3219V32.3346C11.976 21.5551 18.0468 11.6837 27.6853 6.85715C31.3102 5.01761 35.2917 3.988 39.3538 3.83934H40.5416C54.4648 4.23625 66.9732 12.4534 72.8653 25.0746C75.5192 31.2069 75.7176 38.1234 73.4204 44.3978Z" fill="#5344DB"/>
<path d="M25.0702 30.2894C24.4749 29.727 23.5441 29.727 22.9495 30.2894L14.465 38.7738C14.0367 39.2022 13.9085 39.8473 14.1406 40.4075C14.3728 40.9678 14.9191 41.3332 15.5254 41.3332H19.5106V54.8309C19.5106 55.6599 20.1821 56.3307 21.0103 56.3307H27.0093C27.8376 56.3307 28.5091 55.6599 28.5091 54.8309V41.3332H32.4935C33.1006 41.3332 33.6469 40.9678 33.879 40.4075C34.1112 39.8473 33.983 39.2022 33.5539 38.7738L25.0702 30.2894ZM27.0093 38.3337C26.1811 38.3337 25.5096 39.0052 25.5096 39.8334V53.3312H22.5101V39.8334C22.5101 39.0052 21.8386 38.3337 21.0103 38.3337H19.1459L24.0098 33.4705L28.8738 38.3337H27.0093Z" fill="#5344DB"/>
<path d="M43.0673 24.2903C42.4719 23.7279 41.5412 23.7279 40.9465 24.2903L32.4621 32.7748C32.0337 33.2032 31.9056 33.8483 32.1377 34.4085C32.3698 34.9687 32.9161 35.3342 33.5225 35.3342H37.5077V54.8309C37.5077 55.6599 38.1792 56.3307 39.0074 56.3307H45.0064C45.8347 56.3307 46.5062 55.6599 46.5062 54.8309V35.3342H50.4906C51.0977 35.3342 51.644 34.9687 51.8761 34.4085C52.1083 33.8483 51.9801 33.2032 51.551 32.7748L43.0673 24.2903ZM45.0064 32.3347C44.1782 32.3347 43.5067 33.0062 43.5067 33.8344V53.3312H40.5072V33.8344C40.5072 33.0062 39.8356 32.3347 39.0074 32.3347H37.143L42.0069 27.4714L46.8709 32.3347H45.0064Z" fill="#5344DB"/>
<path d="M61.0644 18.2913C60.469 17.7289 59.5382 17.7289 58.9436 18.2913L50.4592 26.7757C50.0308 27.2041 49.9026 27.8493 50.1348 28.4095C50.3669 28.9697 50.9132 29.3351 51.5196 29.3351H55.5047V54.8309C55.5047 55.6599 56.1763 56.3306 57.0045 56.3306H63.0035C63.8317 56.3306 64.5032 55.6599 64.5032 54.8309V29.3351H68.4877C69.0948 29.3351 69.6411 28.9697 69.8732 28.4095C70.1053 27.8493 69.9772 27.2041 69.5481 26.7757L61.0644 18.2913ZM63.0035 26.3356C62.1753 26.3356 61.5037 27.0071 61.5037 27.8354V53.3311H58.5042V27.8354C58.5042 27.0071 57.8327 26.3356 57.0045 26.3356H55.14L60.004 21.4724L64.8679 26.3356H63.0035Z" fill="#5344DB"/>
</svg>
