<svg width="91" height="91" viewBox="0 0 91 91" fill="none" xmlns="http://www.w3.org/2000/svg">
<path d="M38.1754 61.5592L38.3563 61.381L38.1754 61.2029L33.5487 56.646L38.1754 52.0891L38.3563 51.9109L38.1754 51.7328L36.8911 50.4679L36.7157 50.2951L36.5402 50.4679L31.0905 55.8354L31.0905 55.8354C30.8729 56.0498 30.75 56.3413 30.75 56.646C30.75 56.9507 30.8729 57.2422 31.0905 57.4566L31.0905 57.4566L36.5402 62.8241L36.7157 62.9969L36.8911 62.8241L38.1754 61.5592Z" fill="#5344DB" stroke="#5344DB" stroke-width="0.5"/>
<path d="M53.1089 62.8241L53.2843 62.9969L53.4598 62.8241L58.9095 57.4566L58.9095 57.4566C59.1271 57.2422 59.25 56.9507 59.25 56.646C59.25 56.3413 59.1271 56.0498 58.9095 55.8354L58.9095 55.8354L53.4598 50.4679L53.2843 50.2951L53.1089 50.4679L51.8246 51.7328L51.6437 51.9109L51.8246 52.0891L56.4513 56.646L51.8246 61.2029L51.6437 61.381L51.8246 61.5592L53.1089 62.8241Z" fill="#5344DB" stroke="#5344DB" stroke-width="0.5"/>
<path d="M42.0543 63.9702L41.9938 64.2128L42.2364 64.2733L44.0591 64.7281L44.3017 64.7886L44.3622 64.546L48.1122 49.5153L48.1727 49.2727L47.9301 49.2122L46.1073 48.7575L45.8648 48.6969L45.8042 48.9395L42.0543 63.9702Z" fill="#5344DB" stroke="#5344DB" stroke-width="0.5"/>
<path d="M15.2102 47.3965C9.63407 47.3945 4.92821 51.5423 4.23145 57.0731L11.062 55.6908L11.8918 55.9675L15.2102 57.0731L19.3584 55.6908L19.8837 55.8015L26.189 57.0596C25.4821 51.5356 20.7803 47.3972 15.2102 47.3965Z" fill="#04A0FE"/>
<path d="M6.91357 69.5145V88.8676H23.5063V69.5145H6.91357Z" fill="#04A0FE"/>
<path d="M26.2718 68.1321H23.0142C27.1252 64.8233 28.7017 59.281 26.9463 54.305C25.1916 49.3284 20.4877 46 15.21 46C9.93228 46 5.22844 49.3284 3.4737 54.305C1.71828 59.281 3.29478 64.8233 7.40583 68.1321H4.14818C1.85736 68.1321 0 69.989 0 72.2792V83.3382C0 85.6284 1.85736 87.4853 4.14818 87.4853H5.53091V88.8676C5.53091 89.631 6.15003 90.25 6.91364 90.25H23.5064C24.27 90.25 24.8891 89.631 24.8891 88.8676V87.4853H26.2718C28.5626 87.4853 30.42 85.6284 30.42 83.3382V72.2792C30.42 69.989 28.5626 68.1321 26.2718 68.1321ZM4.14818 84.7205C3.38458 84.7205 2.76545 84.1016 2.76545 83.3382V72.2792C2.76545 71.5158 3.38458 70.8968 4.14818 70.8968H5.53091V84.7205H4.14818ZM15.21 48.7789C19.3231 48.7884 22.9818 51.3931 24.3361 55.2763L19.635 54.3361C19.3994 54.2868 19.155 54.3016 18.9268 54.3786L15.2154 55.6233L11.504 54.3786C11.2752 54.3043 11.0301 54.2895 10.7938 54.3361L6.07846 55.2912C7.42811 51.4006 11.0908 48.7884 15.21 48.7789ZM5.53091 58.4555C5.53091 58.3752 5.54036 58.2982 5.54306 58.2193L10.9747 57.113L14.7732 58.3792C15.0567 58.4737 15.3633 58.4737 15.6468 58.3792L19.4466 57.113L24.8769 58.1983C24.8769 58.2827 24.8891 58.3657 24.8891 58.4501C24.8891 63.794 20.5559 68.1267 15.21 68.1267C9.86408 68.1267 5.53091 63.794 5.53091 58.4501V58.4555ZM22.1236 87.4853H8.29636V70.8968H13.8273V80.5734H16.5927V70.8968H22.1236V87.4853ZM27.6545 83.3382C27.6545 84.1016 27.0354 84.7205 26.2718 84.7205H24.8891V70.8968H26.2718C27.0354 70.8968 27.6545 71.5158 27.6545 72.2792V83.3382Z" fill="#5344DB"/>
<path d="M9.6792 58.4555H12.4447V61.2202H9.6792V58.4555Z" fill="#5344DB"/>
<path d="M17.9756 58.4555H20.741V61.2202H17.9756V58.4555Z" fill="#5344DB"/>
<path d="M15.2102 63.985C14.5628 63.9627 13.9571 63.6603 13.5507 63.1554L11.3389 64.8145C12.2524 66.0329 13.6871 66.7497 15.2102 66.7497C16.7334 66.7497 18.1681 66.0329 19.0816 64.8145L16.8698 63.1554C16.4647 63.6616 15.8584 63.9647 15.2102 63.985Z" fill="#5344DB"/>
<path d="M75.2102 47.3965C69.6341 47.3945 64.9282 51.5422 64.2314 57.0731L71.062 55.6907L71.8918 55.9674L75.2102 57.0731L79.3584 55.6907L79.8837 55.8014L86.189 57.0596C85.4821 51.5355 80.7803 47.3972 75.2102 47.3965Z" fill="#04A0FE"/>
<path d="M66.9136 69.5144V88.8676H83.5063V69.5144H66.9136Z" fill="#04A0FE"/>
<path d="M86.2718 68.1321H83.0142C87.1252 64.8233 88.7017 59.281 86.9463 54.305C85.1916 49.3284 80.4877 46 75.21 46C69.9323 46 65.2284 49.3284 63.4737 54.305C61.7183 59.281 63.2948 64.8233 67.4058 68.1321H64.1482C61.8574 68.1321 60 69.989 60 72.2792V83.3382C60 85.6284 61.8574 87.4853 64.1482 87.4853H65.5309V88.8676C65.5309 89.631 66.15 90.25 66.9136 90.25H83.5064C84.27 90.25 84.8891 89.631 84.8891 88.8676V87.4853H86.2718C88.5626 87.4853 90.42 85.6284 90.42 83.3382V72.2792C90.42 69.989 88.5626 68.1321 86.2718 68.1321ZM64.1482 84.7205C63.3846 84.7205 62.7655 84.1016 62.7655 83.3382V72.2792C62.7655 71.5158 63.3846 70.8968 64.1482 70.8968H65.5309V84.7205H64.1482ZM75.21 48.7789C79.3231 48.7884 82.9818 51.3931 84.3361 55.2763L79.635 54.3361C79.3994 54.2868 79.155 54.3016 78.9268 54.3786L75.2154 55.6233L71.504 54.3786C71.2752 54.3043 71.0301 54.2895 70.7938 54.3361L66.0785 55.2912C67.4281 51.4006 71.0908 48.7884 75.21 48.7789ZM65.5309 58.4555C65.5309 58.3752 65.5404 58.2982 65.5431 58.2193L70.9747 57.113L74.7732 58.3792C75.0567 58.4737 75.3633 58.4737 75.6468 58.3792L79.4466 57.113L84.8769 58.1983C84.8769 58.2827 84.8891 58.3657 84.8891 58.4501C84.8891 63.794 80.5559 68.1267 75.21 68.1267C69.8641 68.1267 65.5309 63.794 65.5309 58.4501V58.4555ZM82.1236 87.4853H68.2964V70.8968H73.8273V80.5734H76.5927V70.8968H82.1236V87.4853ZM87.6545 83.3382C87.6545 84.1016 87.0354 84.7205 86.2718 84.7205H84.8891V70.8968H86.2718C87.0354 70.8968 87.6545 71.5158 87.6545 72.2792V83.3382Z" fill="#5344DB"/>
<path d="M69.6792 58.4555H72.4447V61.2202H69.6792V58.4555Z" fill="#5344DB"/>
<path d="M77.9756 58.4555H80.741V61.2202H77.9756V58.4555Z" fill="#5344DB"/>
<path d="M75.2102 63.985C74.5628 63.9627 73.9571 63.6603 73.5507 63.1554L71.3389 64.8145C72.2524 66.0329 73.6871 66.7497 75.2102 66.7497C76.7334 66.7497 78.1681 66.0329 79.0816 64.8145L76.8698 63.1554C76.4647 63.6616 75.8584 63.9647 75.2102 63.985Z" fill="#5344DB"/>
<path d="M45.2075 1.39667C39.6323 1.39464 34.9271 5.54285 34.2305 11.0743L41.06 9.69174L41.8896 9.96851L45.2075 11.0743L49.3551 9.69174L49.8803 9.80245L56.1846 11.0608C55.4778 5.5361 50.7767 1.39734 45.2075 1.39667Z" fill="#04A0FE"/>
<path d="M36.9126 23.5168V42.872H53.5027V23.5168H36.9126Z" fill="#04A0FE"/>
<path d="M56.2677 22.1344H53.0106C57.121 18.8252 58.6972 13.2824 56.9421 8.30587C55.1876 3.32869 50.4845 0 45.2076 0C39.9307 0 35.2276 3.32869 33.4732 8.30587C31.718 13.2824 33.2943 18.8252 37.4047 22.1344H34.1475C31.8571 22.1344 30 23.9914 30 26.2819V37.342C30 39.6325 31.8571 41.4895 34.1475 41.4895H35.53V42.872C35.53 43.6355 36.1491 44.2546 36.9126 44.2546H53.5027C54.2662 44.2546 54.8852 43.6355 54.8852 42.872V41.4895H56.2677C58.5582 41.4895 60.4153 39.6325 60.4153 37.342V26.2819C60.4153 23.9914 58.5582 22.1344 56.2677 22.1344ZM34.1475 38.7245C33.384 38.7245 32.765 38.1055 32.765 37.342V26.2819C32.765 25.5184 33.384 24.8994 34.1475 24.8994H35.53V38.7245H34.1475ZM45.2076 2.7792C49.3201 2.78865 52.9782 5.39369 54.3323 9.27728L49.6319 8.33692C49.3963 8.28764 49.152 8.3025 48.9238 8.37945L45.213 9.62425L41.5023 8.37945C41.2734 8.3052 41.0284 8.29035 40.7921 8.33692L36.0775 9.29213C37.4269 5.40111 41.0891 2.78865 45.2076 2.7792ZM35.53 12.4568C35.53 12.3765 35.5395 12.2995 35.5422 12.2205L40.973 11.1141L44.7709 12.3805C45.0544 12.475 45.3609 12.475 45.6444 12.3805L49.4436 11.1141L54.8731 12.1996C54.8731 12.284 54.8852 12.367 54.8852 12.4514C54.8852 17.7958 50.5527 22.129 45.2076 22.129C39.8625 22.129 35.53 17.7958 35.53 12.4514V12.4568ZM52.1202 41.4895H38.2951V24.8994H43.8251V34.577H46.5901V24.8994H52.1202V41.4895ZM57.6502 37.342C57.6502 38.1055 57.0312 38.7245 56.2677 38.7245H54.8852V24.8994H56.2677C57.0312 24.8994 57.6502 25.5184 57.6502 26.2819V37.342Z" fill="#5344DB"/>
<path d="M39.6777 12.4568H42.4428V15.2218H39.6777V12.4568Z" fill="#5344DB"/>
<path d="M47.9727 12.4568H50.7377V15.2218H47.9727V12.4568Z" fill="#5344DB"/>
<path d="M45.2077 17.9868C44.5603 17.9645 43.9548 17.6621 43.5484 17.1572L41.3369 18.8164C42.2503 20.0349 43.6848 20.7518 45.2077 20.7518C46.7306 20.7518 48.1651 20.0349 49.0784 18.8164L46.867 17.1572C46.4619 17.6635 45.8557 17.9666 45.2077 17.9868Z" fill="#5344DB"/>
</svg>
