<svg width="86" height="86" viewBox="0 0 86 86" fill="none" xmlns="http://www.w3.org/2000/svg">
<path d="M2.21875 58.2939C2.21875 59.7858 2.81138 61.2165 3.86627 62.2714C4.92117 63.3263 6.35191 63.9189 7.84375 63.9189H78.1562C79.6481 63.9189 81.0788 63.3263 82.1337 62.2714C83.1886 61.2165 83.7812 59.7858 83.7812 58.2939V52.6689H2.21875V58.2939Z" fill="#04A0FE"/>
<path d="M59.875 83.6064C60.6192 83.6009 61.3314 83.3028 61.8576 82.7766C62.3839 82.2503 62.682 81.5382 62.6875 80.7939C62.6853 80.0487 62.3882 79.3346 61.8613 78.8077C61.3343 78.2807 60.6202 77.9837 59.875 77.9814H26.125C25.3808 77.987 24.6686 78.2851 24.1424 78.8113C23.6161 79.3376 23.318 80.0497 23.3125 80.7939C23.3147 81.5392 23.6118 82.2533 24.1387 82.7802C24.6657 83.3072 25.3798 83.6042 26.125 83.6064H59.875Z" fill="#04A0FE"/>
<path d="M43 47.0439C53.8731 47.0439 62.6875 38.2296 62.6875 27.3564C62.6875 16.4833 53.8731 7.66895 43 7.66895C32.1269 7.66895 23.3125 16.4833 23.3125 27.3564C23.3125 38.2296 32.1269 47.0439 43 47.0439Z" fill="#04A0FE"/>
<path d="M78.1562 0.637695H7.84375C5.97963 0.639928 4.1925 1.38144 2.87437 2.69957C1.55624 4.0177 0.814733 5.80483 0.8125 7.66895V58.2939C0.814733 60.1581 1.55624 61.9452 2.87437 63.2633C4.1925 64.5815 5.97963 65.323 7.84375 65.3252H34.5625V76.5752H26.125C25.0061 76.5752 23.9331 77.0197 23.1419 77.8108C22.3507 78.602 21.9062 79.6751 21.9062 80.7939C21.9062 81.9128 22.3507 82.9859 23.1419 83.777C23.9331 84.5682 25.0061 85.0127 26.125 85.0127H59.875C60.9939 85.0127 62.0669 84.5682 62.8581 83.777C63.6493 82.9859 64.0938 81.9128 64.0938 80.7939C64.0938 79.6751 63.6493 78.602 62.8581 77.8108C62.0669 77.0197 60.9939 76.5752 59.875 76.5752H51.4375V65.3252H78.1562C80.0204 65.323 81.8075 64.5815 83.1256 63.2633C84.4438 61.9452 85.1853 60.1581 85.1875 58.2939V7.66895C85.1853 5.80483 84.4438 4.0177 83.1256 2.69957C81.8075 1.38144 80.0204 0.639928 78.1562 0.637695ZM7.84375 3.4502H78.1562C79.2751 3.4502 80.3482 3.89467 81.1394 4.68584C81.9305 5.47701 82.375 6.55006 82.375 7.66895V51.2627H3.625V7.66895C3.625 6.55006 4.06947 5.47701 4.86064 4.68584C5.65181 3.89467 6.72487 3.4502 7.84375 3.4502ZM61.2812 80.7939C61.2812 81.1669 61.1331 81.5246 60.8694 81.7883C60.6056 82.052 60.248 82.2002 59.875 82.2002H26.125C25.752 82.2002 25.3944 82.052 25.1306 81.7883C24.8669 81.5246 24.7188 81.1669 24.7188 80.7939C24.7188 80.421 24.8669 80.0633 25.1306 79.7996C25.3944 79.5359 25.752 79.3877 26.125 79.3877H59.875C60.248 79.3877 60.6056 79.5359 60.8694 79.7996C61.1331 80.0633 61.2812 80.421 61.2812 80.7939ZM48.625 76.5752H37.375V65.3252H48.625V76.5752ZM78.1562 62.5127H7.84375C6.72487 62.5127 5.65181 62.0682 4.86064 61.2771C4.06947 60.4859 3.625 59.4128 3.625 58.2939V54.0752H82.375V58.2939C82.375 59.4128 81.9305 60.4859 81.1394 61.2771C80.3482 62.0682 79.2751 62.5127 78.1562 62.5127Z" fill="#5344DB"/>
<path d="M43 48.4502C47.1719 48.4502 51.2502 47.2131 54.7191 44.8953C58.1879 42.5774 60.8915 39.2831 62.4881 35.4287C64.0846 31.5743 64.5023 27.333 63.6884 23.2413C62.8745 19.1495 60.8655 15.3909 57.9155 12.4409C54.9655 9.49091 51.207 7.48192 47.1152 6.66802C43.0234 5.85411 38.7821 6.27183 34.9278 7.86837C31.0734 9.46491 27.779 12.1685 25.4612 15.6374C23.1434 19.1062 21.9063 23.1845 21.9062 27.3564C21.9126 32.9489 24.137 38.3105 28.0915 42.265C32.0459 46.2195 37.4075 48.4439 43 48.4502ZM43 9.0752C46.6157 9.0752 50.1502 10.1474 53.1565 12.1561C56.1628 14.1649 58.506 17.0201 59.8897 20.3605C61.2733 23.701 61.6354 27.3767 60.93 30.9229C60.2246 34.4692 58.4835 37.7266 55.9268 40.2832C53.3701 42.8399 50.1127 44.581 46.5665 45.2864C43.0203 45.9918 39.3445 45.6298 36.0041 44.2461C32.6636 42.8624 29.8085 40.5193 27.7997 37.513C25.7909 34.5066 24.7187 30.9721 24.7187 27.3564C24.7243 22.5097 26.6522 17.863 30.0794 14.4358C33.5066 11.0086 38.1532 9.08079 43 9.0752Z" fill="#5344DB"/>
<path d="M38.3689 34.7998L30.9256 27.3565L38.3689 19.9132L36.3805 17.9248L27.943 26.3623C27.6793 26.626 27.5312 26.9836 27.5312 27.3565C27.5312 27.7294 27.6793 28.087 27.943 28.3507L36.3805 36.7882L38.3689 34.7998Z" fill="#5344DB"/>
<path d="M49.6193 36.7882L58.0568 28.3507C58.3204 28.087 58.4685 27.7294 58.4685 27.3565C58.4685 26.9836 58.3204 26.626 58.0568 26.3623L49.6193 17.9248L47.6309 19.9132L55.0741 27.3565L47.6309 34.7998L49.6193 36.7882Z" fill="#5344DB"/>
<path d="M38.8145 38.2686L44.4269 15.7724L47.155 16.4531L41.5426 38.9492L38.8145 38.2686Z" fill="#5344DB"/>
<path d="M6.4375 9.0752H9.25V11.8877H6.4375V9.0752Z" fill="#5344DB"/>
<path d="M12.0625 9.0752H17.6875V11.8877H12.0625V9.0752Z" fill="#5344DB"/>
<path d="M6.4375 14.7002H12.0625V17.5127H6.4375V14.7002Z" fill="#5344DB"/>
<path d="M14.875 14.7002H17.6875V17.5127H14.875V14.7002Z" fill="#5344DB"/>
<path d="M6.4375 20.3252H9.25V23.1377H6.4375V20.3252Z" fill="#5344DB"/>
<path d="M12.0625 20.3252H17.6875V23.1377H12.0625V20.3252Z" fill="#5344DB"/>
<path d="M6.4375 25.9502H12.0625V28.7627H6.4375V25.9502Z" fill="#5344DB"/>
<path d="M14.875 25.9502H17.6875V28.7627H14.875V25.9502Z" fill="#5344DB"/>
<path d="M6.4375 31.5752H9.25V34.3877H6.4375V31.5752Z" fill="#5344DB"/>
<path d="M12.0625 31.5752H17.6875V34.3877H12.0625V31.5752Z" fill="#5344DB"/>
<path d="M6.4375 37.2002H12.0625V40.0127H6.4375V37.2002Z" fill="#5344DB"/>
<path d="M14.875 37.2002H17.6875V40.0127H14.875V37.2002Z" fill="#5344DB"/>
<path d="M6.4375 42.8252H9.25V45.6377H6.4375V42.8252Z" fill="#5344DB"/>
<path d="M12.0625 42.8252H17.6875V45.6377H12.0625V42.8252Z" fill="#5344DB"/>
<path d="M76.75 9.0752H79.5625V11.8877H76.75V9.0752Z" fill="#5344DB"/>
<path d="M68.3125 9.0752H73.9375V11.8877H68.3125V9.0752Z" fill="#5344DB"/>
<path d="M73.9375 14.7002H79.5625V17.5127H73.9375V14.7002Z" fill="#5344DB"/>
<path d="M68.3125 14.7002H71.125V17.5127H68.3125V14.7002Z" fill="#5344DB"/>
<path d="M76.75 20.3252H79.5625V23.1377H76.75V20.3252Z" fill="#5344DB"/>
<path d="M68.3125 20.3252H73.9375V23.1377H68.3125V20.3252Z" fill="#5344DB"/>
<path d="M73.9375 25.9502H79.5625V28.7627H73.9375V25.9502Z" fill="#5344DB"/>
<path d="M68.3125 25.9502H71.125V28.7627H68.3125V25.9502Z" fill="#5344DB"/>
<path d="M76.75 31.5752H79.5625V34.3877H76.75V31.5752Z" fill="#5344DB"/>
<path d="M68.3125 31.5752H73.9375V34.3877H68.3125V31.5752Z" fill="#5344DB"/>
<path d="M73.9375 37.2002H79.5625V40.0127H73.9375V37.2002Z" fill="#5344DB"/>
<path d="M68.3125 37.2002H71.125V40.0127H68.3125V37.2002Z" fill="#5344DB"/>
<path d="M76.75 42.8252H79.5625V45.6377H76.75V42.8252Z" fill="#5344DB"/>
<path d="M68.3125 42.8252H73.9375V45.6377H68.3125V42.8252Z" fill="#5344DB"/>
</svg>
