<svg width="79" height="90" viewBox="0 0 79 90" fill="none" xmlns="http://www.w3.org/2000/svg">
<path d="M40.5071 9.01318C34.3814 9.02344 28.6797 12.1438 25.369 17.2977C22.059 22.4516 21.5918 28.9339 24.1299 34.5089H29.289C25.8567 29.366 26.3634 22.5468 30.5178 17.967C34.6721 13.3872 41.4093 12.2199 46.862 15.1359C52.3147 18.052 55.0849 24.3029 53.583 30.3011C52.0803 36.2994 46.6906 40.5072 40.5071 40.5079V60.0047H46.5061V43.9724C54.7613 41.0454 59.7102 32.5998 58.2287 23.9667C56.7473 15.3337 49.2661 9.02124 40.5071 9.01318Z" fill="#04A0FE"/>
<path d="M40.5073 66.0034H46.5063V72.0024H40.5073V66.0034Z" fill="#04A0FE"/>
<path d="M75.6085 23.044C69.4601 9.82014 56.5629 1.02595 42.0069 0.131814L40.5387 0L39.2381 0.0329534C34.7476 0.197721 30.3473 1.33572 26.3401 3.37004C15.6873 8.69606 8.97288 19.5993 9.01243 31.5094V37.0932L0.228491 51.7341C-0.0497828 52.1969 -0.0578382 52.7739 0.208719 53.2448C0.474544 53.7149 0.97324 54.0056 1.51368 54.0056H10.9032L9.99298 67.5232C9.29656 71.523 11.9321 75.3441 15.9187 76.1138C16.0176 76.1328 16.1179 76.1423 16.2183 76.1423C16.2724 76.1423 16.3266 76.1394 16.3808 76.1336L25.5097 75.1435V88.4999C25.5097 89.3289 26.1812 89.9996 27.0094 89.9996H63.0034C63.8317 89.9996 64.5032 89.3289 64.5032 88.4999V73.5954L76.2236 44.6388C78.7999 37.6285 78.5794 29.8961 75.6085 23.044ZM73.4204 43.5726L61.6128 72.7525C61.5308 72.9664 61.4993 73.197 61.5213 73.4248C61.5213 73.4563 61.5037 73.4834 61.5037 73.5148V87.0001H28.5092V73.5024C28.5092 73.4709 28.4923 73.4445 28.4909 73.4131C28.4894 73.3816 28.5048 73.3464 28.5004 73.3105C28.4814 73.2205 28.4535 73.1319 28.4176 73.0469C28.403 72.9898 28.3847 72.9341 28.3635 72.8792C28.299 72.7342 28.2119 72.6009 28.1042 72.4845C28.0925 72.4706 28.0859 72.4515 28.0742 72.4376L28.0471 72.4157C27.7344 72.0956 27.2921 71.936 26.8476 71.9821L16.2937 73.1245C13.965 72.5387 12.5033 70.2312 12.9683 67.8754L14.0038 52.607C14.0609 51.7802 13.4377 51.064 12.6117 51.0061C12.4887 50.9974 4.1668 51.0061 4.1668 51.0061L11.8018 38.2766C11.8157 38.2451 11.8267 38.2121 11.8362 38.1792C11.8801 38.0898 11.9138 37.9954 11.9365 37.8987C11.9665 37.8006 11.987 37.7003 11.9965 37.5985C11.9965 37.5641 12.0163 37.534 12.0163 37.4981V31.5094C11.9753 20.7307 18.0468 10.8593 27.6853 6.03342C31.3102 4.19315 35.2917 3.16354 39.3538 3.01415H40.5416C54.4655 3.41105 66.974 11.6289 72.8653 24.2508C75.5192 30.3824 75.7176 37.2982 73.4204 43.5726Z" fill="#5344DB"/>
<path d="M40.5072 7.51355C33.8806 7.52234 27.7103 10.8924 24.1213 16.463C20.5323 22.0336 20.0145 29.0446 22.7453 35.0824V35.1L22.7563 35.1286C22.7922 35.1872 22.8332 35.2428 22.8778 35.2955C22.965 35.4933 23.1202 35.6529 23.3158 35.7452C23.3956 35.8045 23.4813 35.8543 23.5721 35.8953C23.676 35.9282 23.7837 35.9495 23.8928 35.9597C23.9704 35.9824 24.0495 35.9993 24.1301 36.0088H29.2891C29.3338 36.0022 29.3785 35.9934 29.4224 35.9824C29.5242 35.9729 29.6245 35.9524 29.7226 35.9224C29.8193 35.8938 29.913 35.855 30.0016 35.8067C30.0441 35.7913 30.0866 35.7737 30.1276 35.754C30.1679 35.7269 30.1891 35.6851 30.2265 35.6551C30.3056 35.5907 30.3781 35.5174 30.4425 35.4376C30.4996 35.3651 30.5494 35.2875 30.5926 35.2055C30.682 35.0312 30.7383 34.8422 30.7574 34.6475C30.7706 34.6021 30.7815 34.5559 30.7889 34.5091C30.7823 34.4636 30.7728 34.419 30.7618 34.3743C30.7523 34.2725 30.7325 34.1722 30.7017 34.0748C30.6739 33.9774 30.6351 33.8829 30.586 33.7943C30.5706 33.7511 30.5538 33.7094 30.534 33.6684C27.4869 29.0944 27.9417 23.0339 31.6369 18.966C35.3321 14.8981 41.3208 13.8648 46.1657 16.4593C51.0106 19.0531 53.4697 24.6106 52.1325 29.941C50.7946 35.2714 46.0031 39.009 40.5072 39.0083C39.679 39.0083 39.0075 39.6798 39.0075 40.5081V60.0048C39.0075 60.8338 39.679 61.5046 40.5072 61.5046H46.5062C47.3345 61.5046 48.006 60.8338 48.006 60.0048V44.9897C56.5834 41.4183 61.4473 32.288 59.6239 23.1767C57.8005 14.0662 49.7986 7.50916 40.5072 7.51355ZM46.0083 42.5585C45.9929 42.5585 45.9826 42.5768 45.9695 42.5812C45.8691 42.6259 45.7747 42.6823 45.6875 42.7489C45.6121 42.7928 45.5411 42.8426 45.4744 42.899C45.4107 42.97 45.3536 43.0462 45.3045 43.1282C45.2445 43.2022 45.1903 43.2805 45.1441 43.364C45.1163 43.4453 45.0951 43.5281 45.0797 43.613C45.0468 43.717 45.0248 43.8246 45.0153 43.9338C45.0153 43.9506 45.0065 43.9623 45.0065 43.9792V58.5051H42.007V41.9229C48.5098 41.2989 53.8688 36.5551 55.2763 30.1753C56.6837 23.7962 53.8182 17.237 48.1817 13.9358C42.5445 10.6339 35.4221 11.3427 30.5465 15.6904C25.6708 20.0381 24.1535 27.033 26.7905 33.0093H25.1509C22.7035 26.7489 24.2992 19.6287 29.1859 15.0116C34.0718 10.3944 41.271 9.20443 47.3835 12.0025C53.4953 14.8007 57.2989 21.0281 56.9964 27.7441C56.694 34.46 52.3471 40.3206 46.0083 42.5585Z" fill="#5344DB"/>
<path d="M46.5061 64.5037H40.5071C39.6788 64.5037 39.0073 65.1752 39.0073 66.0034V72.0024C39.0073 72.8314 39.6788 73.5022 40.5071 73.5022H46.5061C47.3343 73.5022 48.0058 72.8314 48.0058 72.0024V66.0034C48.0058 65.1752 47.3343 64.5037 46.5061 64.5037ZM45.0063 70.5027H42.0068V67.5032H45.0063V70.5027Z" fill="#5344DB"/>
</svg>
