<svg width="90" height="90" viewBox="0 0 90 90" fill="none" xmlns="http://www.w3.org/2000/svg">
<path d="M1.5 73.4067H88.5V79.3706H1.5V73.4067Z" fill="#04A0FE"/>
<path d="M7.5 1.84009H82.5V7.80408H7.5V1.84009Z" fill="#04A0FE"/>
<path d="M58.5 13.7681V39.6513C57.5353 40.7385 57.0021 42.1378 57 43.5874V45.0784L67.5 43.5874L72 45.0784V43.5874C72.0011 42.2655 71.5594 40.9808 70.7446 39.936C69.9298 38.8913 68.7882 38.1459 67.5 37.8174V13.7681H58.5Z" fill="#04A0FE"/>
<path d="M22.5 25.6958V37.8174C21.2118 38.1459 20.0702 38.8913 19.2554 39.936C18.4406 40.9808 17.9989 42.2655 18 43.5874V45.0784L28.5 43.5874L33 45.0784V43.5874C32.9979 42.1378 32.4647 40.7385 31.5 39.6513V25.6958H22.5Z" fill="#04A0FE"/>
<path d="M22.5 64.4611L25.5 67.443L28.5 64.4611V55.5152H61.5V64.4611L64.5 67.443L67.5 64.4611V55.5152H82.5V49.5513H72C72 51.1331 71.3679 52.65 70.2426 53.7684C69.1174 54.8869 67.5913 55.5152 66 55.5152H63C61.4087 55.5152 59.8826 54.8869 58.7574 53.7684C57.6321 52.65 57 51.1331 57 49.5513H49.5V19.7319H40.5V49.5513H33C33 51.1331 32.3679 52.65 31.2426 53.7684C30.1174 54.8869 28.5913 55.5152 27 55.5152H24C22.4087 55.5152 20.8826 54.8869 19.7574 53.7684C18.6321 52.65 18 51.1331 18 49.5513H7.5V55.5152H22.5V64.4611Z" fill="#04A0FE"/>
<path d="M88.5 71.9157H78V64.4609C78.0008 63.071 77.7211 61.6952 77.1774 60.4147C76.6338 59.1342 75.8373 57.9751 74.835 57.006H82.5C82.8978 57.006 83.2794 56.8489 83.5607 56.5693C83.842 56.2897 84 55.9105 84 55.515V49.5512C84 49.1557 83.842 48.7765 83.5607 48.4969C83.2794 48.2173 82.8978 48.0602 82.5 48.0602H81V9.29495H82.5C82.8978 9.29495 83.2794 9.13786 83.5607 8.85825C83.842 8.57864 84 8.19941 84 7.80398V1.84009C84 1.44466 83.842 1.06543 83.5607 0.785816C83.2794 0.506205 82.8978 0.349121 82.5 0.349121H7.5C7.10218 0.349121 6.72064 0.506205 6.43934 0.785816C6.15804 1.06543 6 1.44466 6 1.84009V7.80398C6 8.19941 6.15804 8.57864 6.43934 8.85825C6.72064 9.13786 7.10218 9.29495 7.5 9.29495H9V48.0602H7.5C7.10218 48.0602 6.72064 48.2173 6.43934 48.4969C6.15804 48.7765 6 49.1557 6 49.5512V55.515C6 55.9105 6.15804 56.2897 6.43934 56.5693C6.72064 56.8489 7.10218 57.006 7.5 57.006H15.165C14.1627 57.9751 13.3662 59.1342 12.8226 60.4147C12.2789 61.6952 11.9992 63.071 12 64.4609V71.9157H1.5C1.10218 71.9157 0.720644 72.0728 0.43934 72.3524C0.158035 72.632 0 73.0113 0 73.4067V79.3706C0 79.766 0.158035 80.1452 0.43934 80.4249C0.720644 80.7045 1.10218 80.8615 1.5 80.8615H4.5V88.3164C4.5 88.7118 4.65804 89.0911 4.93934 89.3707C5.22064 89.6503 5.60218 89.8074 6 89.8074H84C84.3978 89.8074 84.7794 89.6503 85.0607 89.3707C85.342 89.0911 85.5 88.7118 85.5 88.3164V80.8615H88.5C88.8978 80.8615 89.2794 80.7045 89.5607 80.4249C89.842 80.1452 90 79.766 90 79.3706V73.4067C90 73.0113 89.842 72.632 89.5607 72.3524C89.2794 72.0728 88.8978 71.9157 88.5 71.9157ZM75 64.4609V71.9157H54V64.4609C54.0044 62.7436 54.6032 61.0801 55.6958 59.7497C56.7883 58.4194 58.3082 57.5032 60 57.1551V64.4609C60.003 64.8561 60.1587 65.2352 60.435 65.5195L63.435 68.5014C63.7193 68.7786 64.1017 68.9339 64.5 68.9339C64.8983 68.9339 65.2807 68.7786 65.565 68.5014L68.565 65.5195C68.8413 65.2352 68.997 64.8561 69 64.4609V57.1551C70.6918 57.5032 72.2117 58.4194 73.3042 59.7497C74.3968 61.0801 74.9956 62.7436 75 64.4609ZM35.835 57.006H54.165C53.1627 57.9751 52.3662 59.1342 51.8226 60.4147C51.2789 61.6952 50.9992 63.071 51 64.4609V71.9157H39V64.4609C39.0008 63.071 38.7211 61.6952 38.1774 60.4147C37.6338 59.1342 36.8373 57.9751 35.835 57.006ZM24 54.0241C22.8076 54.0205 21.6651 53.5481 20.822 52.7101C19.9788 51.872 19.5036 50.7364 19.5 49.5512V46.3754L28.365 45.1081L31.5 46.1517V49.5512C31.4964 50.7364 31.0212 51.872 30.178 52.7101C29.3349 53.5481 28.1924 54.0205 27 54.0241H24ZM27 57.006V63.8496L25.5 65.3405L24 63.8496V57.006H27ZM27 39.1144C28.0861 39.1191 29.1339 39.5142 29.9499 40.2267C30.7659 40.9391 31.2952 41.9209 31.44 42.9909L28.98 42.1709C28.7575 42.0994 28.5216 42.079 28.29 42.1112L19.53 43.3487C19.5869 42.2079 20.0825 41.1324 20.9144 40.3444C21.7463 39.5563 22.8509 39.116 24 39.1144H27ZM24 36.1324V27.1866H30V36.7586C29.0548 36.3444 28.033 36.1311 27 36.1324H24ZM22.5 24.2047C22.1022 24.2047 21.7206 24.3617 21.4393 24.6413C21.158 24.921 21 25.3002 21 25.6956V36.7586C19.6647 37.3408 18.5285 38.2962 17.7295 39.5085C16.9306 40.7209 16.5034 42.138 16.5 43.5873V48.0602H12V9.29495H78V48.0602H73.5V43.5873C73.4966 42.138 73.0694 40.7209 72.2705 39.5085C71.4715 38.2962 70.3353 37.3408 69 36.7586V13.7679C69 13.3724 68.842 12.9932 68.5607 12.7136C68.2794 12.434 67.8978 12.2769 67.5 12.2769H58.5C58.1022 12.2769 57.7206 12.434 57.4393 12.7136C57.158 12.9932 57 13.3724 57 13.7679V39.1591C56.0296 40.4342 55.5031 41.9885 55.5 43.5873V48.0602H51V19.7317C51 19.3363 50.842 18.9571 50.5607 18.6775C50.2794 18.3979 49.8978 18.2408 49.5 18.2408H40.5C40.1022 18.2408 39.7206 18.3979 39.4393 18.6775C39.158 18.9571 39 19.3363 39 19.7317V48.0602H34.5V43.5873C34.4969 41.9885 33.9704 40.4342 33 39.1591V25.6956C33 25.3002 32.842 24.921 32.5607 24.6413C32.2794 24.3617 31.8978 24.2047 31.5 24.2047H22.5ZM63 54.0241C61.8076 54.0205 60.6651 53.5481 59.822 52.7101C58.9788 51.872 58.5036 50.7364 58.5 49.5512V46.3754L67.365 45.1081L70.5 46.1517V49.5512C70.4964 50.7364 70.0212 51.872 69.178 52.7101C68.3349 53.5481 67.1924 54.0205 66 54.0241H63ZM66 57.006V63.8496L64.5 65.3405L63 63.8496V57.006H66ZM63 39.1144H66C67.0861 39.1191 68.1339 39.5142 68.9499 40.2267C69.7659 40.9391 70.2952 41.9209 70.44 42.9909L67.98 42.1709C67.7575 42.0994 67.5216 42.079 67.29 42.1112L58.53 43.3487C58.5869 42.2079 59.0825 41.1324 59.9144 40.3444C60.7463 39.5563 61.8509 39.116 63 39.1144ZM60 36.7586V15.2588H66V36.1324H63C61.967 36.1311 60.9452 36.3444 60 36.7586ZM48 21.2227V48.0602H42V21.2227H48ZM34.35 51.0421H55.65C55.8779 52.1296 56.3553 53.1501 57.045 54.0241H32.955C33.6447 53.1501 34.1221 52.1296 34.35 51.0421ZM81 54.0241H71.955C72.6447 53.1501 73.1221 52.1296 73.35 51.0421H81V54.0241ZM9 3.33106H81V6.313H9V3.33106ZM9 54.0241V51.0421H16.65C16.8779 52.1296 17.3553 53.1501 18.045 54.0241H9ZM15 64.4609C15.0044 62.7436 15.6032 61.0801 16.6958 59.7497C17.7883 58.4194 19.3082 57.5032 21 57.1551V64.4609C21.003 64.8561 21.1587 65.2352 21.435 65.5195L24.435 68.5014C24.7193 68.7786 25.1017 68.9339 25.5 68.9339C25.8983 68.9339 26.2807 68.7786 26.565 68.5014L29.565 65.5195C29.8413 65.2352 29.997 64.8561 30 64.4609V57.1551C31.6918 57.5032 33.2117 58.4194 34.3042 59.7497C35.3968 61.0801 35.9956 62.7436 36 64.4609V71.9157H15V64.4609ZM82.5 86.8254H7.5V80.8615H82.5V86.8254ZM87 77.8796H3V74.8977H87V77.8796Z" fill="#5344DB"/>
</svg>
