<svg width="86" height="85" viewBox="0 0 86 85" fill="none" xmlns="http://www.w3.org/2000/svg">
<path d="M75.3438 28.501H72.5312V34.126H75.3438H80.9688H83.7812V28.501H80.9688H75.3438Z" fill="#04A0FE"/>
<path d="M82.375 56.626H80.9688H75.3438H68.3125V62.251H82.375V56.626Z" fill="#04A0FE"/>
<path d="M23.3125 43.9697H62.6875C63.4327 43.9675 64.1468 43.6705 64.6738 43.1435C65.2007 42.6165 65.4978 41.9025 65.5 41.1572V15.8447C65.4978 15.0995 65.2007 14.3854 64.6738 13.8584C64.1468 13.3315 63.4327 13.0345 62.6875 13.0322H23.3125C22.5673 13.0345 21.8532 13.3315 21.3262 13.8584C20.7993 14.3854 20.5022 15.0995 20.5 15.8447V41.1572C20.5022 41.9025 20.7993 42.6165 21.3262 43.1435C21.8532 43.6705 22.5673 43.9675 23.3125 43.9697ZM26.125 24.2822C26.125 22.7904 26.7176 21.3596 27.7725 20.3048C28.8274 19.2499 30.2582 18.6572 31.75 18.6572H54.25C55.7418 18.6572 57.1726 19.2499 58.2275 20.3048C59.2824 21.3596 59.875 22.7904 59.875 24.2822V27.0947C59.875 28.5866 59.2824 30.0173 58.2275 31.0722C57.1726 32.1271 55.7418 32.7197 54.25 32.7197H31.75C30.2582 32.7197 28.8274 32.1271 27.7725 31.0722C26.7176 30.0173 26.125 28.5866 26.125 27.0947V24.2822Z" fill="#04A0FE"/>
<path d="M28.9375 58.0322H57.0625V74.9072H28.9375V58.0322Z" fill="#04A0FE"/>
<path d="M50.0312 28.501C51.5846 28.501 52.8438 27.2418 52.8438 25.6885C52.8438 24.1352 51.5846 22.876 50.0312 22.876C48.4779 22.876 47.2188 24.1352 47.2188 25.6885C47.2188 27.2418 48.4779 28.501 50.0312 28.501Z" fill="#04A0FE"/>
<path d="M47.2188 4.59473C47.2165 3.84949 46.9195 3.13541 46.3925 2.60845C45.8656 2.08148 45.1515 1.78445 44.4062 1.78223H41.5938C40.8485 1.78445 40.1344 2.08148 39.6075 2.60845C39.0805 3.13541 38.7835 3.84949 38.7812 4.59473V7.40723H47.2188V4.59473Z" fill="#04A0FE"/>
<path d="M35.9688 28.501C37.5221 28.501 38.7812 27.2418 38.7812 25.6885C38.7812 24.1352 37.5221 22.876 35.9688 22.876C34.4154 22.876 33.1562 24.1352 33.1562 25.6885C33.1562 27.2418 34.4154 28.501 35.9688 28.501Z" fill="#04A0FE"/>
<path d="M5.03125 56.626H3.625V62.251H17.6875V56.626H10.6562H5.03125Z" fill="#04A0FE"/>
<path d="M10.6562 34.126H13.4688V28.501H10.6562H5.03125H2.21875V34.126H5.03125H10.6562Z" fill="#04A0FE"/>
<path d="M23.3125 45.376H62.6875C63.8064 45.376 64.8794 44.9315 65.6706 44.1403C66.4618 43.3492 66.9062 42.2761 66.9062 41.1572V15.8447C66.9062 14.7258 66.4618 13.6528 65.6706 12.8616C64.8794 12.0704 63.8064 11.626 62.6875 11.626H55.6562V10.2197C55.6562 9.10084 55.2118 8.02779 54.4206 7.23662C53.6294 6.44545 52.5564 6.00098 51.4375 6.00098H48.625V4.59473C48.625 3.47584 48.1805 2.40279 47.3894 1.61162C46.5982 0.820451 45.5251 0.375977 44.4062 0.375977H41.5938C40.4749 0.375977 39.4018 0.820451 38.6106 1.61162C37.8195 2.40279 37.375 3.47584 37.375 4.59473V6.00098H34.5625C33.4436 6.00098 32.3706 6.44545 31.5794 7.23662C30.7882 8.02779 30.3438 9.10084 30.3438 10.2197V11.626H23.3125C22.1936 11.626 21.1206 12.0704 20.3294 12.8616C19.5382 13.6528 19.0938 14.7258 19.0938 15.8447V41.1572C19.0938 42.2761 19.5382 43.3492 20.3294 44.1403C21.1206 44.9315 22.1936 45.376 23.3125 45.376ZM40.1875 4.59473C40.1875 4.22177 40.3357 3.86408 40.5994 3.60036C40.8631 3.33663 41.2208 3.18848 41.5938 3.18848H44.4062C44.7792 3.18848 45.1369 3.33663 45.4006 3.60036C45.6643 3.86408 45.8125 4.22177 45.8125 4.59473V6.00098H40.1875V4.59473ZM33.1562 10.2197C33.1562 9.84677 33.3044 9.48908 33.5681 9.22536C33.8319 8.96163 34.1895 8.81348 34.5625 8.81348H51.4375C51.8105 8.81348 52.1681 8.96163 52.4319 9.22536C52.6956 9.48908 52.8438 9.84677 52.8438 10.2197V11.626H33.1562V10.2197ZM21.9062 15.8447C21.9062 15.4718 22.0544 15.1141 22.3181 14.8504C22.5819 14.5866 22.9395 14.4385 23.3125 14.4385H62.6875C63.0605 14.4385 63.4181 14.5866 63.6819 14.8504C63.9456 15.1141 64.0938 15.4718 64.0938 15.8447V41.1572C64.0938 41.5302 63.9456 41.8879 63.6819 42.1516C63.4181 42.4153 63.0605 42.5635 62.6875 42.5635H23.3125C22.9395 42.5635 22.5819 42.4153 22.3181 42.1516C22.0544 41.8879 21.9062 41.5302 21.9062 41.1572V15.8447Z" fill="#5344DB"/>
<path d="M31.75 34.126H54.25C56.1141 34.1237 57.9012 33.3822 59.2194 32.0641C60.5375 30.746 61.279 28.9588 61.2812 27.0947V24.2822C61.279 22.4181 60.5375 20.631 59.2194 19.3128C57.9012 17.9947 56.1141 17.2532 54.25 17.251H31.75C29.8859 17.2532 28.0988 17.9947 26.7806 19.3128C25.4625 20.631 24.721 22.4181 24.7188 24.2822V27.0947C24.721 28.9588 25.4625 30.746 26.7806 32.0641C28.0988 33.3822 29.8859 34.1237 31.75 34.126ZM27.5312 24.2822C27.5312 23.1633 27.9757 22.0903 28.7669 21.2991C29.5581 20.508 30.6311 20.0635 31.75 20.0635H54.25C55.3689 20.0635 56.4419 20.508 57.2331 21.2991C58.0243 22.0903 58.4688 23.1633 58.4688 24.2822V27.0947C58.4688 28.2136 58.0243 29.2867 57.2331 30.0778C56.4419 30.869 55.3689 31.3135 54.25 31.3135H31.75C30.6311 31.3135 29.5581 30.869 28.7669 30.0778C27.9757 29.2867 27.5312 28.2136 27.5312 27.0947V24.2822Z" fill="#5344DB"/>
<path d="M35.9687 29.9072C36.8031 29.9072 37.6188 29.6598 38.3126 29.1962C39.0063 28.7327 39.5471 28.0738 39.8664 27.3029C40.1857 26.532 40.2692 25.6838 40.1064 24.8654C39.9437 24.0471 39.5419 23.2954 38.9519 22.7054C38.3619 22.1154 37.6101 21.7136 36.7918 21.5508C35.9734 21.388 35.1252 21.4716 34.3543 21.7909C33.5834 22.1102 32.9245 22.6509 32.461 23.3447C31.9974 24.0384 31.75 24.8541 31.75 25.6885C31.75 26.8074 32.1945 27.8804 32.9856 28.6716C33.7768 29.4628 34.8499 29.9072 35.9687 29.9072ZM35.9687 24.2822C36.2469 24.2822 36.5188 24.3647 36.75 24.5192C36.9813 24.6737 37.1615 24.8934 37.268 25.1503C37.3744 25.4073 37.4022 25.69 37.348 25.9628C37.2937 26.2356 37.1598 26.4862 36.9631 26.6828C36.7665 26.8795 36.5159 27.0134 36.2431 27.0677C35.9703 27.122 35.6876 27.0941 35.4306 26.9877C35.1736 26.8812 34.954 26.701 34.7995 26.4697C34.645 26.2385 34.5625 25.9666 34.5625 25.6885C34.5625 25.3155 34.7107 24.9578 34.9744 24.6941C35.2381 24.4304 35.5958 24.2822 35.9687 24.2822Z" fill="#5344DB"/>
<path d="M50.0313 29.9072C50.8656 29.9072 51.6813 29.6598 52.3751 29.1962C53.0688 28.7327 53.6096 28.0738 53.9289 27.3029C54.2482 26.532 54.3317 25.6838 54.1689 24.8654C54.0062 24.0471 53.6044 23.2954 53.0144 22.7054C52.4244 22.1154 51.6727 21.7136 50.8543 21.5508C50.0359 21.388 49.1877 21.4716 48.4168 21.7909C47.6459 22.1102 46.9871 22.6509 46.5235 23.3447C46.0599 24.0384 45.8125 24.8541 45.8125 25.6885C45.8125 26.8074 46.257 27.8804 47.0481 28.6716C47.8393 29.4628 48.9124 29.9072 50.0313 29.9072ZM50.0313 24.2822C50.3094 24.2822 50.5813 24.3647 50.8125 24.5192C51.0438 24.6737 51.224 24.8934 51.3305 25.1503C51.4369 25.4073 51.4647 25.69 51.4105 25.9628C51.3562 26.2356 51.2223 26.4862 51.0256 26.6828C50.829 26.8795 50.5784 27.0134 50.3056 27.0677C50.0328 27.122 49.7501 27.0941 49.4931 26.9877C49.2361 26.8812 49.0165 26.701 48.862 26.4697C48.7075 26.2385 48.625 25.9666 48.625 25.6885C48.625 25.3155 48.7732 24.9578 49.0369 24.6941C49.3006 24.4304 49.6583 24.2822 50.0313 24.2822Z" fill="#5344DB"/>
<path d="M37.375 36.9385H48.625V39.751H37.375V36.9385Z" fill="#5344DB"/>
<path d="M28.9375 36.9385H31.75V39.751H28.9375V36.9385Z" fill="#5344DB"/>
<path d="M54.25 36.9385H57.0625V39.751H54.25V36.9385Z" fill="#5344DB"/>
<path d="M83.7812 35.5322C84.1542 35.5322 84.5119 35.3841 84.7756 35.1203C85.0393 34.8566 85.1875 34.4989 85.1875 34.126V28.501C85.1875 28.128 85.0393 27.7703 84.7756 27.5066C84.5119 27.2429 84.1542 27.0947 83.7812 27.0947H82.375V17.251H79.5625V27.0947H76.75V17.251H73.9375V27.0947H72.5312C72.1583 27.0947 71.8006 27.2429 71.5369 27.5066C71.2732 27.7703 71.125 28.128 71.125 28.501V34.126C71.125 34.4989 71.2732 34.8566 71.5369 35.1203C71.8006 35.3841 72.1583 35.5322 72.5312 35.5322H73.9375V55.2197H69.7188V49.5947C69.7188 49.2218 69.5706 48.8641 69.3069 48.6004C69.0431 48.3366 68.6855 48.1885 68.3125 48.1885H17.6875C17.3145 48.1885 16.9569 48.3366 16.6931 48.6004C16.4294 48.8641 16.2812 49.2218 16.2812 49.5947V55.2197H12.0625V35.5322H13.4688C13.8417 35.5322 14.1994 35.3841 14.4631 35.1203C14.7268 34.8566 14.875 34.4989 14.875 34.126V28.501C14.875 28.128 14.7268 27.7703 14.4631 27.5066C14.1994 27.2429 13.8417 27.0947 13.4688 27.0947H12.0625V17.251H9.25V27.0947H6.4375V17.251H3.625V27.0947H2.21875C1.84579 27.0947 1.4881 27.2429 1.22438 27.5066C0.960658 27.7703 0.8125 28.128 0.8125 28.501V34.126C0.8125 34.4989 0.960658 34.8566 1.22438 35.1203C1.4881 35.3841 1.84579 35.5322 2.21875 35.5322H3.625V55.2197C3.25204 55.2197 2.89435 55.3679 2.63063 55.6316C2.36691 55.8953 2.21875 56.253 2.21875 56.626V62.251C2.21875 62.6239 2.36691 62.9816 2.63063 63.2453C2.89435 63.5091 3.25204 63.6572 3.625 63.6572H16.2812V81.9385H0.8125V84.751H85.1875V81.9385H69.7188V63.6572H82.375C82.748 63.6572 83.1056 63.5091 83.3694 63.2453C83.6331 62.9816 83.7812 62.6239 83.7812 62.251V56.626C83.7812 56.253 83.6331 55.8953 83.3694 55.6316C83.1056 55.3679 82.748 55.2197 82.375 55.2197V35.5322H83.7812ZM73.9375 29.9072H82.375V32.7197H73.9375V29.9072ZM3.625 29.9072H12.0625V32.7197H3.625V29.9072ZM6.4375 35.5322H9.25V55.2197H6.4375V35.5322ZM5.03125 60.8447V58.0322H16.2812V60.8447H5.03125ZM66.9062 81.9385H19.0938V51.001H66.9062V81.9385ZM80.9688 60.8447H69.7188V58.0322H80.9688V60.8447ZM79.5625 55.2197H76.75V35.5322H79.5625V55.2197Z" fill="#5344DB"/>
<path d="M57.0625 56.626H28.9375C28.5645 56.626 28.2069 56.7741 27.9431 57.0379C27.6794 57.3016 27.5312 57.6593 27.5312 58.0322V74.9072C27.5312 75.2802 27.6794 75.6379 27.9431 75.9016C28.2069 76.1653 28.5645 76.3135 28.9375 76.3135H57.0625C57.4355 76.3135 57.7931 76.1653 58.0569 75.9016C58.3206 75.6379 58.4688 75.2802 58.4688 74.9072V58.0322C58.4688 57.6593 58.3206 57.3016 58.0569 57.0379C57.7931 56.7741 57.4355 56.626 57.0625 56.626ZM55.6562 73.501H30.3438V59.4385H55.6562V73.501Z" fill="#5344DB"/>
</svg>
