<svg width="42" height="37" viewBox="0 0 42 37" fill="none" xmlns="http://www.w3.org/2000/svg">
<path d="M40.5 1.78564L1.88892 15.119L7.72225 21.2301L11.8889 34.2856L15.7778 29.5634L22.1667 35.119L40.5 1.78564Z" fill="#04A0FE"/>
<path d="M0.868029 15.9212L0.868024 15.9212C0.74321 15.7975 0.652049 15.6441 0.603188 15.4753C0.554328 15.3066 0.549386 15.1281 0.588834 14.9569C0.628281 14.7857 0.710809 14.6275 0.82859 14.4971C0.946369 14.3668 1.09549 14.2687 1.26182 14.2121C1.26183 14.2121 1.26183 14.2121 1.26183 14.2121L40.3243 0.930865C40.5219 0.86369 40.7352 0.858038 40.9361 0.914657C41.1369 0.971275 41.3159 1.0875 41.4493 1.24797M0.868029 15.9212L41.257 1.40779M0.868029 15.9212L6.69765 21.6952L0.868029 15.9212ZM41.4493 1.24797L41.257 1.40779M41.4493 1.24797C41.4493 1.24795 41.4493 1.24794 41.4492 1.24792L41.257 1.40779M41.4493 1.24797C41.5828 1.40851 41.6645 1.6058 41.6834 1.81374C41.7024 2.02171 41.6578 2.23053 41.5555 2.41259M41.257 1.40779C41.3582 1.52942 41.4201 1.6789 41.4345 1.83645C41.4488 1.994 41.415 2.1522 41.3375 2.29012M41.5555 2.41259L41.5555 2.4125L41.3375 2.29012M41.5555 2.41259L22.8055 35.813L22.5875 35.6906M41.5555 2.41259L41.3375 2.29012M41.3375 2.29012L22.5875 35.6906M22.5875 35.6906C22.5286 35.7955 22.4463 35.8854 22.3469 35.9533C22.2476 36.0211 22.1339 36.0651 22.0148 36.0818M22.5875 35.6906L15.6674 30.5801L15.8473 30.7583M22.5875 35.6906L22.8055 35.813C22.7278 35.9515 22.6191 36.0701 22.4879 36.1597C22.3569 36.2492 22.207 36.3072 22.0499 36.3293M22.5875 35.6906L22.0499 36.3293M22.0148 36.0818C21.9788 36.0869 21.9426 36.0895 21.9063 36.0894M22.0148 36.0818L22.0495 36.3294C22.0496 36.3294 22.0498 36.3293 22.0499 36.3293M22.0148 36.0818L12.5715 35.3417M21.9063 36.0894C21.7004 36.0894 21.5028 36.0082 21.3565 35.8633L15.9945 30.5522L15.8473 30.7583M21.9063 36.0894L21.906 36.3394M21.9063 36.0894L21.9063 36.3394H21.906M15.8473 30.7583L12.5892 35.3191L12.5878 35.3211C12.581 35.3304 12.5749 35.3376 12.5721 35.341L12.5715 35.3417M15.8473 30.7583L21.1805 36.0409C21.3736 36.2321 21.6343 36.3394 21.906 36.3394M12.5715 35.3417C12.5729 35.3398 12.5744 35.3379 12.5758 35.336L12.3752 35.1868L12.5715 35.3417ZM12.5715 35.3417C12.4581 35.492 12.3057 35.6083 12.1308 35.678C11.9536 35.7486 11.7604 35.7687 11.5725 35.736C11.3846 35.7033 11.2095 35.619 11.0667 35.4927C10.9239 35.3664 10.819 35.2029 10.7636 35.0205C10.7636 35.0204 10.7635 35.0204 10.7635 35.0204L11.0027 34.9477L12.5715 35.3417ZM21.906 36.3394C21.9542 36.3395 22.0023 36.3361 22.0499 36.3293M31.5009 8.4299L11.9145 25.2961L11.9145 25.2961C11.7132 25.4694 11.5866 25.7138 11.561 25.9781L11.2233 29.4609L8.83257 21.6259L31.5009 8.4299ZM3.50338 15.6282L31.2295 6.20147L7.77224 19.8565L3.50338 15.6282ZM14.3628 29.2875L13.1476 30.9888L13.4045 28.3383L14.3628 29.2875ZM21.6699 33.6221L14.1063 26.1305L36.8882 6.51289L21.6699 33.6221Z" fill="#5344DB" stroke="#5344DB" stroke-width="0.5"/>
</svg>
