<svg width="86" height="86" viewBox="0 0 86 86" fill="none" xmlns="http://www.w3.org/2000/svg">
<path d="M80.9688 52.8439H75.3438V47.2189H61.2812V52.8439H33.1562V44.4064H41.5938L52.3656 36.447L50.2562 34.3376L48.3859 32.4673L39.2594 38.7814H35.9688C35.9665 38.0361 35.6695 37.322 35.1425 36.7951C34.6156 36.2681 33.9015 35.9711 33.1562 35.9688H16.2812C14.7894 35.9688 13.3587 36.5615 12.3038 37.6164C11.2489 38.6713 10.6562 40.102 10.6562 41.5939V52.8439H2.21875V58.4689H83.7812V52.8439H80.9688Z" fill="#04A0FE"/>
<path d="M16.2812 19.0938L27.5312 21.9062L33.1562 19.0938V21.9062H35.9688V19.0938C35.9688 17.6019 35.3761 16.1712 34.3212 15.1163C33.2663 14.0614 31.8356 13.4688 30.3438 13.4688H19.0938C17.6019 13.4688 16.1712 14.0614 15.1163 15.1163C14.0614 16.1712 13.4688 17.6019 13.4688 19.0938V21.9062H16.2812V19.0938Z" fill="#04A0FE"/>
<path d="M83.7812 51.4375H82.375V2.21875C82.375 1.84579 82.2268 1.4881 81.9631 1.22438C81.6994 0.960658 81.3417 0.8125 80.9688 0.8125H5.03125C4.65829 0.8125 4.3006 0.960658 4.03688 1.22438C3.77316 1.4881 3.625 1.84579 3.625 2.21875V51.4375H2.21875C1.84579 51.4375 1.4881 51.5857 1.22438 51.8494C0.960658 52.1131 0.8125 52.4708 0.8125 52.8438V58.4688C0.8125 58.8417 0.960658 59.1994 1.22438 59.4631C1.4881 59.7268 1.84579 59.875 2.21875 59.875H14.875V83.7812C14.875 84.1542 15.0232 84.5119 15.2869 84.7756C15.5506 85.0393 15.9083 85.1875 16.2812 85.1875H33.1562C33.5292 85.1875 33.8869 85.0393 34.1506 84.7756C34.4143 84.5119 34.5625 84.1542 34.5625 83.7812V59.875H83.7812C84.1542 59.875 84.5119 59.7268 84.7756 59.4631C85.0393 59.1994 85.1875 58.8417 85.1875 58.4688V52.8438C85.1875 52.4708 85.0393 52.1131 84.7756 51.8494C84.5119 51.5857 84.1542 51.4375 83.7812 51.4375ZM6.4375 3.625H79.5625V51.4375H76.75V47.2188C76.75 46.8458 76.6018 46.4881 76.3381 46.2244C76.0744 45.9607 75.7167 45.8125 75.3438 45.8125H61.2812C60.9083 45.8125 60.5506 45.9607 60.2869 46.2244C60.0232 46.4881 59.875 46.8458 59.875 47.2188V51.4375H34.5625V45.8125H41.5938C41.8952 45.8114 42.1883 45.7127 42.4291 45.5312L53.1967 37.5761C53.3594 37.4559 53.4942 37.302 53.5919 37.1249C53.6897 36.9479 53.7481 36.7518 53.7632 36.5501C53.7783 36.3484 53.7497 36.1458 53.6793 35.9562C53.609 35.7666 53.4986 35.5943 53.3556 35.4512L52.2405 34.3361L67.9005 18.6817L65.912 16.6933L50.252 32.3533L49.3787 31.48C49.1461 31.247 48.839 31.1031 48.5111 31.0733C48.1832 31.0435 47.8552 31.1297 47.5844 31.3169L38.8248 37.375H37.1373C36.8453 36.5526 36.3058 35.8407 35.593 35.3372C34.8802 34.8336 34.029 34.563 33.1562 34.5625H31.5953C32.5345 33.6481 33.2809 32.5548 33.7906 31.3472C34.3002 30.1395 34.5627 28.842 34.5625 27.5312V23.3125H35.9688C36.3417 23.3125 36.6994 23.1643 36.9631 22.9006C37.2268 22.6369 37.375 22.2792 37.375 21.9062V19.0938C37.3728 17.2296 36.6313 15.4425 35.3131 14.1244C33.995 12.8062 32.2079 12.0647 30.3438 12.0625H19.0938C17.2296 12.0647 15.4425 12.8062 14.1244 14.1244C12.8062 15.4425 12.0647 17.2296 12.0625 19.0938V21.9062C12.0625 22.2792 12.2107 22.6369 12.4744 22.9006C12.7381 23.1643 13.0958 23.3125 13.4688 23.3125H14.875V27.5312C14.8748 28.842 15.1373 30.1395 15.6469 31.3472C16.1566 32.5548 16.903 33.6481 17.8422 34.5625H16.2812C14.4171 34.5647 12.63 35.3062 11.3119 36.6244C9.99374 37.9425 9.25223 39.7296 9.25 41.5938V51.4375H6.4375V3.625ZM73.9375 51.4375H62.6875V48.625H73.9375V51.4375ZM17.6875 57.0625V44.4062H14.875V57.0625H12.0625V41.5938C12.0625 40.4749 12.507 39.4018 13.2981 38.6106C14.0893 37.8195 15.1624 37.375 16.2812 37.375H33.1562C33.5292 37.375 33.8869 37.5232 34.1506 37.7869C34.4143 38.0506 34.5625 38.4083 34.5625 38.7812C34.5625 39.1542 34.7107 39.5119 34.9744 39.7756C35.2381 40.0393 35.5958 40.1875 35.9688 40.1875H39.2636C39.5496 40.1874 39.8287 40.1 40.0638 39.9372L48.22 34.2981L50.2127 36.2908L41.1311 43H33.1562C32.7833 43 32.4256 43.1482 32.1619 43.4119C31.8982 43.6756 31.75 44.0333 31.75 44.4062V57.0625H17.6875ZM17.6875 27.5312V20.8952L27.1895 23.2703C27.5153 23.3508 27.859 23.3134 28.1598 23.1648L31.75 21.3691V27.5312C31.75 29.3961 31.0092 31.1845 29.6906 32.5031C28.372 33.8217 26.5836 34.5625 24.7188 34.5625C22.8539 34.5625 21.0655 33.8217 19.7469 32.5031C18.4283 31.1845 17.6875 29.3961 17.6875 27.5312ZM15.4164 17.9856C15.2479 18.1171 15.1116 18.2852 15.0177 18.4772C14.9239 18.6692 14.8751 18.88 14.875 19.0938C14.875 17.9749 15.3195 16.9018 16.1106 16.1106C16.9018 15.3195 17.9749 14.875 19.0938 14.875H30.3438C31.4626 14.875 32.5357 15.3195 33.3269 16.1106C34.118 16.9018 34.5625 17.9749 34.5625 19.0938C34.5626 18.854 34.5014 18.6182 34.3848 18.4088C34.2681 18.1994 34.0999 18.0232 33.896 17.8971C33.6921 17.771 33.4594 17.6991 33.2199 17.6883C32.9804 17.6774 32.7421 17.728 32.5277 17.8352L27.3681 20.4156L16.623 17.7297C16.4156 17.6779 16.1992 17.674 15.9901 17.7183C15.7811 17.7627 15.5849 17.8541 15.4164 17.9856ZM3.625 54.25H9.25V57.0625H3.625V54.25ZM31.75 82.375H26.125V64.0938H23.3125V82.375H17.6875V59.875H31.75V82.375ZM82.375 57.0625H34.5625V54.25H82.375V57.0625Z" fill="#5344DB"/>
<path d="M23.3125 40.1875H26.125V43H23.3125V40.1875Z" fill="#5344DB"/>
<path d="M23.3125 45.8125H26.125V48.625H23.3125V45.8125Z" fill="#5344DB"/>
<path d="M23.3125 51.4375H26.125V54.25H23.3125V51.4375Z" fill="#5344DB"/>
</svg>
