<svg width="90" height="92" viewBox="0 0 90 92" fill="none" xmlns="http://www.w3.org/2000/svg">
<path d="M48 13.5608H51V16.5427H48V13.5608Z" fill="#5344DB"/>
<path d="M8 73.6853V91.577V86.6071C8.00513 88.2517 9.34546 89.584 11 89.5891H14C15.6545 89.584 16.9949 88.2517 17 86.6071C17.0051 88.2517 18.3455 89.584 20 89.5891H23C24.6545 89.584 25.9949 88.2517 26 86.6071V91.577V73.6853H8Z" fill="#04A0FE"/>
<path d="M65 73.6853V91.577V86.6071C65.0051 88.2517 66.3455 89.584 68 89.5891H71C72.6545 89.584 73.9949 88.2517 74 86.6071C74.0051 88.2517 75.3455 89.584 77 89.5891H80C81.6545 89.584 82.9949 88.2517 83 86.6071V91.577V73.6853H65Z" fill="#04A0FE"/>
<path d="M36 25.9741V43.8658V38.8959C36.0051 40.5405 37.3455 41.8728 39 41.8779H42C43.6545 41.8728 44.9949 40.5405 45 38.8959C45.0051 40.5405 46.3455 41.8728 48 41.8779H51C52.6545 41.8728 53.9949 40.5405 54 38.8959V43.8658V25.9741H36Z" fill="#04A0FE"/>
<path d="M39 13.5608H42V16.5427H39V13.5608Z" fill="#5344DB"/>
<path d="M44.9099 1.12476C38.8608 1.12257 33.7559 5.5962 33 11.5615L40.4099 10.0706L41.3101 10.369L44.9099 8.57959L49.4099 10.0706L49.9797 10.19L56.8198 11.547C56.053 5.58892 50.9524 1.12548 44.9099 1.12476Z" fill="#04A0FE"/>
<path d="M16.9099 49.8298C10.8608 49.8277 5.75586 54.3013 5 60.2666L12.4099 58.7756L13.3101 59.0741L16.9099 57.2847L21.4099 58.7756L21.9797 58.895L28.8198 60.252C28.053 54.294 22.9524 49.8306 16.9099 49.8298Z" fill="#04A0FE"/>
<path d="M73.9099 49.8298C67.8608 49.8277 62.7559 54.3013 62 60.2666L69.4099 58.7756L70.3101 59.0741L73.9099 57.2847L78.4099 58.7756L78.9797 58.895L85.8198 60.252C85.053 54.294 79.9524 49.8306 73.9099 49.8298Z" fill="#04A0FE"/>
<path d="M45 19.5237C44.2969 19.5018 43.6392 19.1749 43.2004 18.6289L40.8003 20.4184C41.7913 21.7326 43.3477 22.5057 45 22.5057C46.6523 22.5057 48.2087 21.7326 49.2004 20.4184L46.8003 18.6289C46.3594 19.1735 45.7024 19.4996 45 19.5237Z" fill="#5344DB"/>
<path d="M19.5 61.2646H22.5V64.2466H19.5V61.2646Z" fill="#5344DB"/>
<path d="M10.5 61.2646H13.5V64.2466H10.5V61.2646Z" fill="#5344DB"/>
<path d="M16.5 67.2277C15.7969 67.2059 15.1392 66.879 14.7004 66.333L12.3003 68.1225C13.2913 69.4366 14.8477 70.2097 16.5 70.2097C18.1523 70.2097 19.7087 69.4366 20.7004 68.1225L18.3003 66.333C17.8594 66.8776 17.2024 67.2037 16.5 67.2277Z" fill="#5344DB"/>
<path d="M85.5 71.7H81.9675C85.5967 68.8015 87.4622 64.247 86.9019 59.6539C86.3423 55.0608 83.4353 51.0806 79.2151 49.1269C79.3975 47.714 79.4927 46.291 79.5 44.8665C79.5557 31.1011 71.2625 18.6575 58.4883 13.3372C58.3784 6.01161 52.3718 0.130859 45 0.130859C37.6282 0.130859 31.6223 6.01161 31.5117 13.3372C18.7375 18.6575 10.4443 31.1011 10.5 44.8665C10.5073 46.291 10.6025 47.714 10.7849 49.1269C6.5647 51.0806 3.65845 55.0608 3.09814 59.6539C2.53784 64.247 4.40405 68.8015 8.03247 71.7H4.5C2.01489 71.7 0 73.7025 0 76.1722V82.1352C0 84.605 2.01489 86.6075 4.5 86.6075H6V88.0982C6 88.9215 6.67163 89.589 7.5 89.589H25.5C26.3284 89.589 27 88.9215 27 88.0982V86.6075H28.5C30.9851 86.6075 33 84.605 33 82.1352V77.0071C40.741 79.8693 49.259 79.8693 57 77.0071V82.1352C57 84.605 59.0149 86.6075 61.5 86.6075H63V88.0982C63 88.9215 63.6716 89.589 64.5 89.589H82.5C83.3284 89.589 84 88.9215 84 88.0982V86.6075H85.5C87.9851 86.6075 90 84.605 90 82.1352V76.1722C90 73.7025 87.9851 71.7 85.5 71.7ZM4.5 83.626C3.67163 83.626 3 82.9585 3 82.1352V76.1722C3 75.349 3.67163 74.6815 4.5 74.6815H6V83.626H4.5ZM73.5 71.7C70.448 71.7225 67.5396 70.4145 65.5422 68.1216C63.5449 65.828 62.6594 62.7802 63.1187 59.7813C64.1177 60.0535 65.1489 60.1947 66.1846 60.202C67.292 60.2049 68.3936 60.0375 69.4504 59.7056C70.946 59.2324 72.3259 58.4521 73.5 57.4156C76.3213 59.9254 80.2412 60.8207 83.8813 59.7878C83.9568 60.2762 83.9963 60.7705 84 61.2647C83.9927 67.0254 79.2957 71.6927 73.5 71.7ZM83.0369 56.9271C81.5332 57.3391 79.9417 57.3166 78.4504 56.8609C76.9666 56.3834 75.646 55.5063 74.6338 54.3271C74.3408 54.0148 73.9299 53.8372 73.5 53.8372C73.0701 53.8372 72.6592 54.0148 72.3662 54.3271C71.3533 55.5063 70.0312 56.3834 68.5474 56.8609C67.0569 57.3173 65.4661 57.3399 63.9631 56.925C65.666 53.2119 69.394 50.8287 73.5 50.8287C77.6067 50.8287 81.3347 53.2119 83.0369 56.925V56.9271ZM55.5 13.5607C55.5293 17.4856 53.3408 21.0945 49.8354 22.9019C46.3301 24.7093 42.1003 24.4087 38.8887 22.1245C35.6777 19.8404 34.0276 15.9584 34.6187 12.0772C35.6177 12.3495 36.6489 12.4907 37.6846 12.498C38.792 12.5009 39.8936 12.3335 40.9504 12.0015C42.446 11.5284 43.8259 10.7481 45 9.71155C46.1741 10.7481 47.554 11.5277 49.0503 12.0001C51.1106 12.6305 53.3093 12.6596 55.3857 12.0838C55.459 12.5729 55.4971 13.0665 55.5 13.5607ZM37.5 26.9775H43.5V37.4127H46.5V26.9775H52.5V38.9035H37.5V26.9775ZM45 3.12546C49.1052 3.13056 52.8303 5.51226 54.5369 9.22313C53.0332 9.63512 51.4417 9.61256 49.9504 9.15689C48.4666 8.67938 47.146 7.80226 46.1338 6.62305C45.8408 6.31078 45.4299 6.13317 45 6.13317C44.5701 6.13317 44.1592 6.31078 43.8662 6.62305C42.8533 7.80226 41.5312 8.67938 40.0474 9.15689C38.5569 9.61328 36.9661 9.63585 35.4631 9.22094C37.1697 5.51154 40.8955 3.13056 45 3.12546ZM16.5 50.8295C20.6052 50.8346 24.3303 53.2163 26.0369 56.9271C24.5332 57.3391 22.9417 57.3166 21.4504 56.8609C19.9666 56.3834 18.646 55.5063 17.6338 54.3271C17.3408 54.0148 16.9299 53.8372 16.5 53.8372C16.0701 53.8372 15.6592 54.0148 15.3662 54.3271C14.3533 55.5063 13.0312 56.3834 11.5474 56.8609C10.0569 57.3173 8.46606 57.3399 6.96313 56.925C8.66968 53.2156 12.3955 50.8346 16.5 50.8295ZM6 61.2647C6.00366 60.7683 6.04321 60.2726 6.11865 59.7813C7.11768 60.0535 8.14893 60.1947 9.18457 60.202C10.292 60.2049 11.3936 60.0375 12.4504 59.7056C13.946 59.2324 15.3259 58.4521 16.5 57.4156C19.3213 59.9254 23.2412 60.8207 26.8813 59.7878C26.9568 60.2762 26.9963 60.7705 27 61.2647C27 67.0283 22.2993 71.7 16.5 71.7C10.7014 71.7 6 67.0283 6 61.2647ZM24 86.6075H9V74.6815H15V85.1167H18V74.6815H24V86.6075ZM30 82.1352C30 82.9585 29.3284 83.626 28.5 83.626H27V74.6815H28.5C29.3284 74.6815 30 75.349 30 76.1722V82.1352ZM61.5 83.626C60.6716 83.626 60 82.9585 60 82.1352V76.1722C60 75.349 60.6716 74.6815 61.5 74.6815H63V83.626H61.5ZM61.5 71.7C60.1458 71.7051 58.8669 72.3187 58.0217 73.3698C49.7476 77.1069 40.2524 77.1069 31.9783 73.3698C31.1331 72.3187 29.8542 71.7051 28.5 71.7H24.9675C29.8323 67.8057 31.3704 61.1017 28.686 55.4968C26.0017 49.8912 19.7966 46.85 13.6875 48.1464C13.5688 47.0567 13.5066 45.962 13.5 44.8665C13.4487 32.6362 20.6206 21.5124 31.8223 16.4483C32.4858 19.4225 34.147 22.0838 36.5325 23.996H33C30.5149 23.996 28.5 25.9984 28.5 28.4682V34.4312C28.5 36.901 30.5149 38.9035 33 38.9035H34.5V40.3942C34.5 41.2175 35.1716 41.885 36 41.885H54C54.8284 41.885 55.5 41.2175 55.5 40.3942V38.9035H57C59.4851 38.9035 61.5 36.901 61.5 34.4312V28.4682C61.5 25.9984 59.4851 23.996 57 23.996H53.4675C55.8538 22.0838 57.5142 19.4225 58.1777 16.4483C69.3794 21.5124 76.5513 32.6362 76.5 44.8665C76.4941 45.962 76.4312 47.0567 76.3125 48.1464C70.2041 46.85 63.9983 49.8912 61.314 55.4968C58.6296 61.1017 60.1677 67.8057 65.0325 71.7H61.5ZM34.5 35.922H33C32.1716 35.922 31.5 35.2545 31.5 34.4312V28.4682C31.5 27.645 32.1716 26.9775 33 26.9775H34.5V35.922ZM55.5 26.9775H57C57.8284 26.9775 58.5 27.645 58.5 28.4682V34.4312C58.5 35.2545 57.8284 35.922 57 35.922H55.5V26.9775ZM81 86.6075H66V74.6815H72V85.1167H75V74.6815H81V86.6075ZM87 82.1352C87 82.9585 86.3284 83.626 85.5 83.626H84V74.6815H85.5C86.3284 74.6815 87 75.349 87 76.1722V82.1352Z" fill="#5344DB"/>
<path d="M76.5 61.2646H79.5V64.2466H76.5V61.2646Z" fill="#5344DB"/>
<path d="M67.5 61.2646H70.5V64.2466H67.5V61.2646Z" fill="#5344DB"/>
<path d="M73.5 67.2277C72.7969 67.2059 72.1392 66.879 71.7004 66.333L69.3003 68.1225C70.2913 69.4366 71.8477 70.2097 73.5 70.2097C75.1523 70.2097 76.7087 69.4366 77.7004 68.1225L75.3003 66.333C74.8594 66.8776 74.2024 67.2037 73.5 67.2277Z" fill="#5344DB"/>
</svg>
