<svg width="90" height="90" viewBox="0 0 90 90" fill="none" xmlns="http://www.w3.org/2000/svg">
<path d="M76.5 19.5V25.5H70.5V37.5H76.5V43.5L88.5 46.5V16.5L76.5 19.5Z" fill="#04A0FE"/>
<path d="M21 52.4998C21.0024 53.2947 21.3192 54.0564 21.8813 54.6185C22.4434 55.1806 23.2051 55.4974 24 55.4998H63C63.7949 55.4974 64.5566 55.1806 65.1187 54.6185C65.6808 54.0564 65.9976 53.2947 66 52.4998V49.4998H21V52.4998Z" fill="#04A0FE"/>
<path d="M22.5 19.5H64.5V25.5H22.5V19.5Z" fill="#04A0FE"/>
<path d="M64.5 4.49999C64.4976 3.70507 64.1808 2.94339 63.6187 2.3813C63.0566 1.81921 62.2949 1.50237 61.5 1.5H43.5C42.7051 1.50237 41.9434 1.81921 41.3813 2.3813C40.8192 2.94339 40.5024 3.70507 40.5 4.49999V13.5H46.5V7.49998H58.5V13.5H64.5V4.49999Z" fill="#04A0FE"/>
<path d="M61.5 37.5C63.1569 37.5 64.5 36.1568 64.5 34.5C64.5 32.8431 63.1569 31.5 61.5 31.5C59.8431 31.5 58.5 32.8431 58.5 34.5C58.5 36.1568 59.8431 37.5 61.5 37.5Z" fill="#04A0FE"/>
<path d="M48 61.5L57 88.4999H63L54 61.5H48Z" fill="#04A0FE"/>
<path d="M49.5 37.5C51.1569 37.5 52.5 36.1568 52.5 34.5C52.5 32.8431 51.1569 31.5 49.5 31.5C47.8431 31.5 46.5 32.8431 46.5 34.5C46.5 36.1568 47.8431 37.5 49.5 37.5Z" fill="#04A0FE"/>
<path d="M27 88.4999H33L42 61.5H36L27 88.4999Z" fill="#04A0FE"/>
<path d="M37.5 37.5C39.1569 37.5 40.5 36.1568 40.5 34.5C40.5 32.8431 39.1569 31.5 37.5 31.5C35.8431 31.5 34.5 32.8431 34.5 34.5C34.5 36.1568 35.8431 37.5 37.5 37.5Z" fill="#04A0FE"/>
<path d="M34.5 7.50001C34.4976 6.70509 34.1808 5.9434 33.6187 5.38131C33.0566 4.81921 32.2949 4.50238 31.5 4.5H7.5V1.5H1.5V16.5H7.5V13.5H34.5V7.50001Z" fill="#04A0FE"/>
<path d="M25.5 37.5C27.1569 37.5 28.5 36.1568 28.5 34.5C28.5 32.8431 27.1569 31.5 25.5 31.5C23.8431 31.5 22.5 32.8431 22.5 34.5C22.5 36.1568 23.8431 37.5 25.5 37.5Z" fill="#04A0FE"/>
<path d="M89.4225 15.318C89.2435 15.1769 89.0345 15.0789 88.8116 15.0316C88.5887 14.9842 88.3579 14.9888 88.137 15.045L76.137 18.045C75.8123 18.126 75.5241 18.3132 75.3181 18.5768C75.1121 18.8405 75.0001 19.1654 75 19.5V24H72V16.5C72 15.3065 71.5259 14.1619 70.682 13.318C69.8381 12.4741 68.6935 12 67.5 12H66V4.5C66 3.30653 65.5259 2.16193 64.682 1.31802C63.8381 0.474106 62.6935 0 61.5 0H43.5C42.3065 0 41.1619 0.474106 40.318 1.31802C39.4741 2.16193 39 3.30653 39 4.5V12H36V7.5C36 6.30653 35.5259 5.16193 34.682 4.31802C33.8381 3.47411 32.6935 3 31.5 3H9V1.5C9 1.10218 8.84196 0.720644 8.56066 0.43934C8.27936 0.158035 7.89782 0 7.5 0H1.5C1.10218 0 0.720644 0.158035 0.43934 0.43934C0.158035 0.720644 0 1.10218 0 1.5V16.5C0 16.8978 0.158035 17.2794 0.43934 17.5607C0.720644 17.842 1.10218 18 1.5 18H7.5C7.89782 18 8.27936 17.842 8.56066 17.5607C8.84196 17.2794 9 16.8978 9 16.5V15H15V46.5C15 47.6935 15.4741 48.8381 16.318 49.682C17.1619 50.5259 18.3065 51 19.5 51V52.5C19.5 53.6935 19.9741 54.8381 20.818 55.682C21.6619 56.5259 22.8065 57 24 57H33V61.5C33.0014 61.8009 33.0933 62.0943 33.2637 62.3423C33.4341 62.5903 33.6751 62.7813 33.9555 62.8905L25.578 88.026C25.5029 88.2514 25.4825 88.4914 25.5183 88.7262C25.5541 88.961 25.6452 89.184 25.784 89.3767C25.9229 89.5695 26.1055 89.7265 26.3169 89.8349C26.5283 89.9432 26.7624 89.9998 27 90H33C33.3147 89.9998 33.6213 89.9006 33.8765 89.7164C34.1317 89.5323 34.3226 89.2726 34.422 88.974L43.08 63H46.92L55.578 88.974C55.6774 89.2726 55.8683 89.5323 56.1235 89.7164C56.3787 89.9006 56.6853 89.9998 57 90H63C63.2376 89.9998 63.4717 89.9432 63.6831 89.8349C63.8945 89.7265 64.0771 89.5695 64.216 89.3767C64.3548 89.184 64.4459 88.961 64.4817 88.7262C64.5175 88.4914 64.4971 88.2514 64.422 88.026L56.0445 62.8905C56.3248 62.7813 56.5659 62.5903 56.7363 62.3423C56.9067 62.0943 56.9986 61.8009 57 61.5V57H63C64.1935 57 65.3381 56.5259 66.182 55.682C67.0259 54.8381 67.5 53.6935 67.5 52.5V51C68.6935 51 69.8381 50.5259 70.682 49.682C71.5259 48.8381 72 47.6935 72 46.5V39H75V43.5C75.0001 43.8346 75.1121 44.1596 75.3181 44.4232C75.5241 44.6868 75.8123 44.874 76.137 44.955L88.137 47.955C88.3581 48.0101 88.5888 48.0142 88.8117 47.9668C89.0346 47.9195 89.2437 47.822 89.4233 47.6818C89.6029 47.5415 89.7481 47.3622 89.848 47.1575C89.948 46.9527 89.9999 46.7278 90 46.5V16.5C89.9999 16.272 89.9478 16.0471 89.8477 15.8423C89.7477 15.6375 89.6022 15.4582 89.4225 15.318ZM42 4.5C42 4.10218 42.158 3.72064 42.4393 3.43934C42.7206 3.15804 43.1022 3 43.5 3H61.5C61.8978 3 62.2794 3.15804 62.5607 3.43934C62.842 3.72064 63 4.10218 63 4.5V12H60V7.5C60 7.10218 59.842 6.72064 59.5607 6.43934C59.2794 6.15804 58.8978 6 58.5 6H46.5C46.1022 6 45.7206 6.15804 45.4393 6.43934C45.158 6.72064 45 7.10218 45 7.5V12H42V4.5ZM57 12H48V9H57V12ZM6 15H3V3H6V15ZM9 6H31.5C31.8978 6 32.2794 6.15804 32.5607 6.43934C32.842 6.72064 33 7.10218 33 7.5V12H9V6ZM31.9185 87H29.082L37.0815 63H39.918L31.9185 87ZM58.0815 87L50.082 63H52.9185L60.918 87H58.0815ZM54 60H36V57H54V60ZM64.5 52.5C64.5 52.8978 64.342 53.2794 64.0607 53.5607C63.7794 53.842 63.3978 54 63 54H24C23.6022 54 23.2206 53.842 22.9393 53.5607C22.658 53.2794 22.5 52.8978 22.5 52.5V51H64.5V52.5ZM69 46.5C69 46.8978 68.842 47.2794 68.5607 47.5607C68.2794 47.842 67.8978 48 67.5 48H19.5C19.1022 48 18.7206 47.842 18.4393 47.5607C18.158 47.2794 18 46.8978 18 46.5V15H67.5C67.8978 15 68.2794 15.158 68.5607 15.4393C68.842 15.7206 69 16.1022 69 16.5V46.5ZM72 36V27H75V36H72ZM87 44.5785L78 42.3285V20.6715L87 18.4215V44.5785Z" fill="#5344DB"/>
<path d="M64.5 18H22.5C22.1022 18 21.7206 18.158 21.4393 18.4393C21.158 18.7206 21 19.1022 21 19.5V25.5C21 25.8978 21.158 26.2793 21.4393 26.5606C21.7206 26.8419 22.1022 27 22.5 27H64.5C64.8978 27 65.2794 26.8419 65.5607 26.5606C65.842 26.2793 66 25.8978 66 25.5V19.5C66 19.1022 65.842 18.7206 65.5607 18.4393C65.2794 18.158 64.8978 18 64.5 18ZM63 24H24V21H63V24Z" fill="#5344DB"/>
<path d="M25.5 30C24.61 30 23.74 30.2639 22.9999 30.7584C22.2599 31.2529 21.6831 31.9557 21.3425 32.7779C21.0019 33.6002 20.9128 34.505 21.0865 35.3779C21.2601 36.2508 21.6887 37.0527 22.318 37.682C22.9474 38.3113 23.7492 38.7399 24.6221 38.9136C25.495 39.0872 26.3998 38.9981 27.2221 38.6575C28.0443 38.3169 28.7471 37.7401 29.2416 37.0001C29.7361 36.2601 30 35.39 30 34.5C30 33.3065 29.5259 32.1619 28.682 31.318C27.8381 30.4741 26.6935 30 25.5 30ZM25.5 36C25.2033 36 24.9133 35.9121 24.6666 35.7472C24.42 35.5824 24.2277 35.3481 24.1142 35.074C24.0007 34.8 23.9709 34.4984 24.0288 34.2074C24.0867 33.9164 24.2296 33.6491 24.4393 33.4394C24.6491 33.2296 24.9164 33.0867 25.2074 33.0288C25.4983 32.971 25.7999 33.0007 26.074 33.1142C26.3481 33.2277 26.5824 33.42 26.7472 33.6667C26.912 33.9133 27 34.2033 27 34.5C27 34.8978 26.842 35.2794 26.5607 35.5607C26.2794 35.842 25.8978 36 25.5 36Z" fill="#5344DB"/>
<path d="M37.5 30C36.61 30 35.74 30.2639 34.9999 30.7584C34.2599 31.2529 33.6831 31.9557 33.3425 32.7779C33.0019 33.6002 32.9128 34.505 33.0865 35.3779C33.2601 36.2508 33.6887 37.0527 34.318 37.682C34.9474 38.3113 35.7492 38.7399 36.6221 38.9136C37.495 39.0872 38.3998 38.9981 39.2221 38.6575C40.0443 38.3169 40.7471 37.7401 41.2416 37.0001C41.7361 36.2601 42 35.39 42 34.5C42 33.3065 41.5259 32.1619 40.682 31.318C39.8381 30.4741 38.6935 30 37.5 30ZM37.5 36C37.2033 36 36.9133 35.9121 36.6666 35.7472C36.42 35.5824 36.2277 35.3481 36.1142 35.074C36.0007 34.8 35.9709 34.4984 36.0288 34.2074C36.0867 33.9164 36.2296 33.6491 36.4393 33.4394C36.6491 33.2296 36.9164 33.0867 37.2074 33.0288C37.4983 32.971 37.7999 33.0007 38.074 33.1142C38.3481 33.2277 38.5824 33.42 38.7472 33.6667C38.912 33.9133 39 34.2033 39 34.5C39 34.8978 38.842 35.2794 38.5607 35.5607C38.2794 35.842 37.8978 36 37.5 36Z" fill="#5344DB"/>
<path d="M49.5 30C48.61 30 47.74 30.2639 46.9999 30.7584C46.2599 31.2529 45.6831 31.9557 45.3425 32.7779C45.002 33.6002 44.9128 34.505 45.0865 35.3779C45.2601 36.2508 45.6887 37.0527 46.318 37.682C46.9474 38.3113 47.7492 38.7399 48.6221 38.9136C49.495 39.0872 50.3998 38.9981 51.2221 38.6575C52.0443 38.3169 52.7471 37.7401 53.2416 37.0001C53.7361 36.2601 54 35.39 54 34.5C54 33.3065 53.5259 32.1619 52.682 31.318C51.8381 30.4741 50.6935 30 49.5 30ZM49.5 36C49.2033 36 48.9133 35.9121 48.6666 35.7472C48.42 35.5824 48.2277 35.3481 48.1142 35.074C48.0007 34.8 47.9709 34.4984 48.0288 34.2074C48.0867 33.9164 48.2296 33.6491 48.4393 33.4394C48.6491 33.2296 48.9164 33.0867 49.2074 33.0288C49.4983 32.971 49.7999 33.0007 50.074 33.1142C50.3481 33.2277 50.5824 33.42 50.7472 33.6667C50.912 33.9133 51 34.2033 51 34.5C51 34.8978 50.842 35.2794 50.5607 35.5607C50.2794 35.842 49.8978 36 49.5 36Z" fill="#5344DB"/>
<path d="M61.5 30C60.61 30 59.74 30.2639 58.9999 30.7584C58.2599 31.2529 57.6831 31.9557 57.3425 32.7779C57.002 33.6002 56.9128 34.505 57.0865 35.3779C57.2601 36.2508 57.6887 37.0527 58.318 37.682C58.9474 38.3113 59.7492 38.7399 60.6221 38.9136C61.495 39.0872 62.3998 38.9981 63.2221 38.6575C64.0443 38.3169 64.7471 37.7401 65.2416 37.0001C65.7361 36.2601 66 35.39 66 34.5C66 33.3065 65.5259 32.1619 64.682 31.318C63.8381 30.4741 62.6935 30 61.5 30ZM61.5 36C61.2033 36 60.9133 35.9121 60.6666 35.7472C60.42 35.5824 60.2277 35.3481 60.1142 35.074C60.0007 34.8 59.9709 34.4984 60.0288 34.2074C60.0867 33.9164 60.2296 33.6491 60.4393 33.4394C60.6491 33.2296 60.9164 33.0867 61.2074 33.0288C61.4983 32.971 61.7999 33.0007 62.074 33.1142C62.3481 33.2277 62.5824 33.42 62.7472 33.6667C62.912 33.9133 63 34.2033 63 34.5C63 34.8978 62.842 35.2794 62.5607 35.5607C62.2794 35.842 61.8978 36 61.5 36Z" fill="#5344DB"/>
<path d="M21 42H24V45H21V42Z" fill="#5344DB"/>
<path d="M27 42H30V45H27V42Z" fill="#5344DB"/>
<path d="M33 42H36V45H33V42Z" fill="#5344DB"/>
<path d="M39 42H42V45H39V42Z" fill="#5344DB"/>
<path d="M45 42H48V45H45V42Z" fill="#5344DB"/>
<path d="M51 42H54V45H51V42Z" fill="#5344DB"/>
<path d="M57 42H60V45H57V42Z" fill="#5344DB"/>
<path d="M63 42H66V45H63V42Z" fill="#5344DB"/>
<path d="M81 24H84V27H81V24Z" fill="#5344DB"/>
<path d="M81 30H84V33H81V30Z" fill="#5344DB"/>
<path d="M81 36H84V39.0001H81V36Z" fill="#5344DB"/>
</svg>
