<svg width="27" height="20" viewBox="0 0 27 20" fill="none" xmlns="http://www.w3.org/2000/svg">
<path d="M3.3329 18.6841C6.55422 19.043 9.81421 19.0452 13.0607 19.043C16.3081 19.0452 19.5687 19.043 22.7888 18.6841C24.1489 18.532 25.2791 17.5121 25.5974 16.1306C26.0504 14.1638 26.0516 12.0149 26.0516 9.98917C26.0516 7.96372 26.0558 5.81584 25.6026 3.84902C25.2843 2.46629 24.1544 1.4476 22.7936 1.29586C19.5726 0.935677 16.312 0.934388 13.0661 0.935677C9.81969 0.934388 6.55809 0.935677 3.33644 1.29586C1.97755 1.4476 0.847395 2.46629 0.530384 3.84902C0.0777424 5.81584 0.0722656 7.96372 0.0722656 9.98949C0.0722656 12.0153 0.0722656 14.1638 0.525552 16.1306C0.84224 17.5121 1.97239 18.532 3.3329 18.6841ZM9.70983 5.43117C12.4624 6.86739 15.1976 8.29361 17.9685 9.73949C15.2056 11.1718 12.4701 12.591 9.70983 14.0224V5.43117Z" fill="#272448"/>
</svg>
