<svg width="27" height="19" viewBox="0 0 27 19" fill="none" xmlns="http://www.w3.org/2000/svg">
<path d="M3.3329 18.3889C6.55422 18.7478 9.81421 18.7501 13.0607 18.7478C16.3081 18.7501 19.5687 18.7478 22.7888 18.3889C24.1489 18.2369 25.2791 17.2169 25.5974 15.8354C26.0504 13.8686 26.0516 11.7198 26.0516 9.69401C26.0516 7.66855 26.0558 5.52067 25.6026 3.55385C25.2843 2.17112 24.1544 1.15243 22.7936 1.00069C19.5726 0.640511 16.312 0.639222 13.0661 0.640511C9.81969 0.639222 6.55809 0.640511 3.33644 1.00069C1.97755 1.15243 0.847395 2.17112 0.530384 3.55385C0.0777424 5.52067 0.0722656 7.66855 0.0722656 9.69433C0.0722656 11.7201 0.0722656 13.8686 0.525552 15.8354C0.84224 17.2169 1.97239 18.2369 3.3329 18.3889ZM9.70983 5.13601C12.4624 6.57222 15.1976 7.99845 17.9685 9.44433C15.2056 10.8767 12.4701 12.2958 9.70983 13.7272V5.13601Z" fill="white"/>
</svg>
